%TF.GenerationSoftware,KiCad,Pcbnew,9.0.6*%
%TF.CreationDate,2026-07-05T22:22:31+03:00*%
%TF.ProjectId,blinky board,626c696e-6b79-4206-926f-6172642e6b69,rev?*%
%TF.SameCoordinates,Original*%
%TF.FileFunction,Copper,L2,Bot*%
%TF.FilePolarity,Positive*%
%FSLAX46Y46*%
G04 Gerber Fmt 4.6, Leading zero omitted, Abs format (unit mm)*
G04 Created by KiCad (PCBNEW 9.0.6) date 2026-07-05 22:22:31*
%MOMM*%
%LPD*%
G01*
G04 APERTURE LIST*
G04 Aperture macros list*
%AMRoundRect*
0 Rectangle with rounded corners*
0 $1 Rounding radius*
0 $2 $3 $4 $5 $6 $7 $8 $9 X,Y pos of 4 corners*
0 Add a 4 corners polygon primitive as box body*
4,1,4,$2,$3,$4,$5,$6,$7,$8,$9,$2,$3,0*
0 Add four circle primitives for the rounded corners*
1,1,$1+$1,$2,$3*
1,1,$1+$1,$4,$5*
1,1,$1+$1,$6,$7*
1,1,$1+$1,$8,$9*
0 Add four rect primitives between the rounded corners*
20,1,$1+$1,$2,$3,$4,$5,0*
20,1,$1+$1,$4,$5,$6,$7,0*
20,1,$1+$1,$6,$7,$8,$9,0*
20,1,$1+$1,$8,$9,$2,$3,0*%
G04 Aperture macros list end*
%TA.AperFunction,ComponentPad*%
%ADD10R,1.800000X1.800000*%
%TD*%
%TA.AperFunction,ComponentPad*%
%ADD11C,1.800000*%
%TD*%
%TA.AperFunction,ComponentPad*%
%ADD12RoundRect,0.412500X-0.412500X-0.412500X0.412500X-0.412500X0.412500X0.412500X-0.412500X0.412500X0*%
%TD*%
%TA.AperFunction,ComponentPad*%
%ADD13C,1.650000*%
%TD*%
%TA.AperFunction,ComponentPad*%
%ADD14C,1.600000*%
%TD*%
%TA.AperFunction,ComponentPad*%
%ADD15R,1.295400X1.295400*%
%TD*%
%TA.AperFunction,ComponentPad*%
%ADD16C,1.295400*%
%TD*%
%TA.AperFunction,ComponentPad*%
%ADD17RoundRect,0.250000X-0.550000X-0.550000X0.550000X-0.550000X0.550000X0.550000X-0.550000X0.550000X0*%
%TD*%
%TA.AperFunction,ComponentPad*%
%ADD18RoundRect,0.250000X0.550000X0.550000X-0.550000X0.550000X-0.550000X-0.550000X0.550000X-0.550000X0*%
%TD*%
%TA.AperFunction,ComponentPad*%
%ADD19C,2.000000*%
%TD*%
%TA.AperFunction,ComponentPad*%
%ADD20R,1.700000X1.700000*%
%TD*%
%TA.AperFunction,ComponentPad*%
%ADD21C,1.700000*%
%TD*%
%TA.AperFunction,ViaPad*%
%ADD22C,0.600000*%
%TD*%
%TA.AperFunction,Conductor*%
%ADD23C,0.200000*%
%TD*%
G04 APERTURE END LIST*
D10*
%TO.P,D2LED3,1,K*%
%TO.N,Net-(D1LED1-K)*%
X169250000Y-99470000D03*
D11*
%TO.P,D2LED3,2,A*%
%TO.N,Net-(D2LED3-A)*%
X166710000Y-99470000D03*
%TD*%
D12*
%TO.P,RV1,1,1*%
%TO.N,Net-(U1-DIS)*%
X115170000Y-109880000D03*
D13*
%TO.P,RV1,2,2*%
X117710000Y-109880000D03*
%TO.P,RV1,3,3*%
%TO.N,TR*%
X120250000Y-109880000D03*
%TD*%
D10*
%TO.P,D2LED1,1,K*%
%TO.N,Net-(D1LED1-K)*%
X158790000Y-88920000D03*
D11*
%TO.P,D2LED1,2,A*%
%TO.N,Net-(D2LED1-A)*%
X156250000Y-88920000D03*
%TD*%
D10*
%TO.P,D2LED9,1,K*%
%TO.N,Net-(D1LED1-K)*%
X151410000Y-135680000D03*
D11*
%TO.P,D2LED9,2,A*%
%TO.N,Net-(D2LED9-A)*%
X153950000Y-135680000D03*
%TD*%
D10*
%TO.P,D1LED1,1,K*%
%TO.N,Net-(D1LED1-K)*%
X153990000Y-83230000D03*
D11*
%TO.P,D1LED1,2,A*%
%TO.N,Net-(D1LED1-A)*%
X151450000Y-83230000D03*
%TD*%
D10*
%TO.P,D2LED2,1,K*%
%TO.N,Net-(D1LED1-K)*%
X164040000Y-94070000D03*
D11*
%TO.P,D2LED2,2,A*%
%TO.N,Net-(D2LED2-A)*%
X161500000Y-94070000D03*
%TD*%
D10*
%TO.P,D2LED8,1,K*%
%TO.N,Net-(D1LED1-K)*%
X159420000Y-130120000D03*
D11*
%TO.P,D2LED8,2,A*%
%TO.N,Net-(D2LED8-A)*%
X156880000Y-130120000D03*
%TD*%
D14*
%TO.P,R1,1*%
%TO.N,+5V*%
X107150000Y-103050000D03*
%TO.P,R1,2*%
%TO.N,Net-(U1-DIS)*%
X114770000Y-103050000D03*
%TD*%
%TO.P,R2,1*%
%TO.N,Net-(D1LED1-K)*%
X146630000Y-120520000D03*
%TO.P,R2,2*%
%TO.N,GND*%
X139010000Y-120520000D03*
%TD*%
D10*
%TO.P,D2LED6,1,K*%
%TO.N,Net-(D1LED1-K)*%
X169930000Y-119650000D03*
D11*
%TO.P,D2LED6,2,A*%
%TO.N,Net-(D2LED6-A)*%
X167390000Y-119650000D03*
%TD*%
D15*
%TO.P,U2,1,Q5*%
%TO.N,Net-(D2LED5-A)*%
X146810000Y-115780000D03*
D16*
%TO.P,U2,2,Q1*%
%TO.N,Net-(D2LED1-A)*%
X146810000Y-113240000D03*
%TO.P,U2,3,Q0*%
%TO.N,Net-(D1LED1-A)*%
X146810000Y-110700000D03*
%TO.P,U2,4,Q2*%
%TO.N,Net-(D2LED2-A)*%
X146810000Y-108160000D03*
%TO.P,U2,5,Q6*%
%TO.N,Net-(D2LED6-A)*%
X146810000Y-105620000D03*
%TO.P,U2,6,Q7*%
%TO.N,Net-(D2LED7-A)*%
X146810000Y-103080000D03*
%TO.P,U2,7,Q3*%
%TO.N,Net-(D2LED3-A)*%
X146810000Y-100540000D03*
%TO.P,U2,8,VSS*%
%TO.N,GND*%
X146810000Y-98000000D03*
%TO.P,U2,9,Q8*%
%TO.N,Net-(D2LED8-A)*%
X139190000Y-98000000D03*
%TO.P,U2,10,Q4*%
%TO.N,Net-(D2LED4-A)*%
X139190000Y-100540000D03*
%TO.P,U2,11,Q9*%
%TO.N,Net-(D2LED9-A)*%
X139190000Y-103080000D03*
%TO.P,U2,12,Cout*%
%TO.N,unconnected-(U2-Cout-Pad12)*%
X139190000Y-105620000D03*
%TO.P,U2,13,CKEN*%
%TO.N,GND*%
X139190000Y-108160000D03*
%TO.P,U2,14,CLK*%
%TO.N,out*%
X139190000Y-110700000D03*
%TO.P,U2,15,Reset*%
%TO.N,GND*%
X139190000Y-113240000D03*
%TO.P,U2,16,VDD*%
%TO.N,+5V*%
X139190000Y-115780000D03*
%TD*%
D17*
%TO.P,C1,1*%
%TO.N,TR*%
X122004888Y-101360000D03*
D14*
%TO.P,C1,2*%
%TO.N,GND*%
X124004888Y-101360000D03*
%TD*%
D18*
%TO.P,U1,1,GND*%
%TO.N,GND*%
X134760000Y-114250000D03*
D14*
%TO.P,U1,2,TR*%
%TO.N,TR*%
X134760000Y-111710000D03*
%TO.P,U1,3,Q*%
%TO.N,out*%
X134760000Y-109170000D03*
%TO.P,U1,4,R*%
%TO.N,+5V*%
X134760000Y-106630000D03*
%TO.P,U1,5,CV*%
%TO.N,Net-(U1-CV)*%
X127140000Y-106630000D03*
%TO.P,U1,6,THR*%
%TO.N,TR*%
X127140000Y-109170000D03*
%TO.P,U1,7,DIS*%
%TO.N,Net-(U1-DIS)*%
X127140000Y-111710000D03*
%TO.P,U1,8,VCC*%
%TO.N,+5V*%
X127140000Y-114250000D03*
%TD*%
D10*
%TO.P,D2LED4,1,K*%
%TO.N,Net-(D1LED1-K)*%
X174610000Y-104640000D03*
D11*
%TO.P,D2LED4,2,A*%
%TO.N,Net-(D2LED4-A)*%
X172070000Y-104640000D03*
%TD*%
D19*
%TO.P,C2,1*%
%TO.N,Net-(U1-CV)*%
X128990000Y-100070000D03*
%TO.P,C2,2*%
%TO.N,GND*%
X133990000Y-100070000D03*
%TD*%
D10*
%TO.P,D2LED5,1,K*%
%TO.N,Net-(D1LED1-K)*%
X174730000Y-115020000D03*
D11*
%TO.P,D2LED5,2,A*%
%TO.N,Net-(D2LED5-A)*%
X172190000Y-115020000D03*
%TD*%
D10*
%TO.P,D2LED7,1,K*%
%TO.N,Net-(D1LED1-K)*%
X164630000Y-124870000D03*
D11*
%TO.P,D2LED7,2,A*%
%TO.N,Net-(D2LED7-A)*%
X162090000Y-124870000D03*
%TD*%
D20*
%TO.P,J2,1,Pin_1*%
%TO.N,+5V*%
X106480000Y-108880000D03*
D21*
%TO.P,J2,2,Pin_2*%
%TO.N,GND*%
X106480000Y-111420000D03*
%TD*%
D22*
%TO.N,GND*%
X131290000Y-112220000D03*
%TO.N,Net-(D1LED1-A)*%
X150720000Y-110570000D03*
%TO.N,Net-(D2LED1-A)*%
X156020000Y-113250000D03*
%TO.N,Net-(D2LED2-A)*%
X161280000Y-107970000D03*
%TO.N,Net-(D2LED4-A)*%
X164210000Y-102120000D03*
X164210000Y-104400000D03*
%TO.N,Net-(D2LED6-A)*%
X166490000Y-105720000D03*
%TO.N,Net-(D2LED7-A)*%
X162570000Y-103260000D03*
%TO.N,Net-(D2LED8-A)*%
X155140000Y-99110000D03*
%TO.N,Net-(D2LED9-A)*%
X153550000Y-104630000D03*
%TD*%
D23*
%TO.N,GND*%
X119064888Y-106300000D02*
X111600000Y-106300000D01*
X124004888Y-101360000D02*
X119064888Y-106300000D01*
X133990000Y-100070000D02*
X132689000Y-98769000D01*
X134760000Y-114250000D02*
X138180000Y-114250000D01*
X139190000Y-108160000D02*
X133990000Y-102960000D01*
X134760000Y-116270000D02*
X134760000Y-114250000D01*
X144050000Y-100760000D02*
X146810000Y-98000000D01*
X132689000Y-98769000D02*
X126595888Y-98769000D01*
X139190000Y-113240000D02*
X140138700Y-112291300D01*
X140138700Y-109108700D02*
X139190000Y-108160000D01*
X126595888Y-98769000D02*
X124004888Y-101360000D01*
X111600000Y-106300000D02*
X106480000Y-111420000D01*
X138180000Y-114250000D02*
X139190000Y-113240000D01*
X139010000Y-120520000D02*
X134760000Y-116270000D01*
X133990000Y-102960000D02*
X133990000Y-100070000D01*
X140138700Y-112291300D02*
X140138700Y-109108700D01*
X144050000Y-103300000D02*
X144050000Y-100760000D01*
X139190000Y-108160000D02*
X144050000Y-103300000D01*
%TO.N,Net-(D1LED1-A)*%
X150720000Y-110570000D02*
X151450000Y-109840000D01*
X151450000Y-109840000D02*
X151450000Y-83230000D01*
%TO.N,Net-(D2LED1-A)*%
X156020000Y-113250000D02*
X156250000Y-113020000D01*
X156250000Y-113020000D02*
X156250000Y-88920000D01*
%TO.N,Net-(D2LED2-A)*%
X161500000Y-107750000D02*
X161500000Y-94070000D01*
X161280000Y-107970000D02*
X161500000Y-107750000D01*
%TO.N,Net-(D2LED4-A)*%
X164210000Y-102120000D02*
X164210000Y-104400000D01*
%TO.N,Net-(D2LED6-A)*%
X167390000Y-106620000D02*
X167390000Y-119650000D01*
X166490000Y-105720000D02*
X167390000Y-106620000D01*
%TO.N,Net-(D2LED7-A)*%
X163100000Y-103790000D02*
X163100000Y-123860000D01*
X162570000Y-103260000D02*
X163100000Y-103790000D01*
X163100000Y-123860000D02*
X162090000Y-124870000D01*
%TO.N,Net-(D2LED8-A)*%
X155140000Y-99110000D02*
X155140000Y-128380000D01*
X155140000Y-128380000D02*
X156880000Y-130120000D01*
%TO.N,Net-(D2LED9-A)*%
X153950000Y-105030000D02*
X153950000Y-135680000D01*
X153550000Y-104630000D02*
X153950000Y-105030000D01*
%TO.N,out*%
X137660000Y-109170000D02*
X139190000Y-110700000D01*
X134760000Y-109170000D02*
X137660000Y-109170000D01*
%TD*%
%TA.AperFunction,Conductor*%
%TO.N,GND*%
G36*
X155595702Y-82854107D02*
G01*
X155602177Y-82860136D01*
X163062642Y-90320500D01*
X165235463Y-92493291D01*
X165268948Y-92554614D01*
X165263964Y-92624306D01*
X165222093Y-92680240D01*
X165156629Y-92704657D01*
X165104450Y-92697155D01*
X165047485Y-92675909D01*
X165047483Y-92675908D01*
X164987883Y-92669501D01*
X164987881Y-92669500D01*
X164987873Y-92669500D01*
X164987864Y-92669500D01*
X163092129Y-92669500D01*
X163092123Y-92669501D01*
X163032516Y-92675908D01*
X162897671Y-92726202D01*
X162897664Y-92726206D01*
X162782455Y-92812452D01*
X162782452Y-92812455D01*
X162696206Y-92927664D01*
X162696203Y-92927669D01*
X162666398Y-93007581D01*
X162624526Y-93063514D01*
X162559062Y-93087931D01*
X162490789Y-93073079D01*
X162462535Y-93051928D01*
X162412363Y-93001756D01*
X162412358Y-93001752D01*
X162234025Y-92872187D01*
X162234024Y-92872186D01*
X162234022Y-92872185D01*
X162116791Y-92812452D01*
X162037606Y-92772104D01*
X162037603Y-92772103D01*
X161827952Y-92703985D01*
X161678031Y-92680240D01*
X161610222Y-92669500D01*
X161389778Y-92669500D01*
X161321969Y-92680240D01*
X161172047Y-92703985D01*
X160962396Y-92772103D01*
X160962393Y-92772104D01*
X160765974Y-92872187D01*
X160587641Y-93001752D01*
X160587636Y-93001756D01*
X160431756Y-93157636D01*
X160431752Y-93157641D01*
X160302187Y-93335974D01*
X160202104Y-93532393D01*
X160202103Y-93532396D01*
X160133985Y-93742047D01*
X160099500Y-93959778D01*
X160099500Y-94180221D01*
X160133985Y-94397952D01*
X160202103Y-94607603D01*
X160202104Y-94607606D01*
X160302187Y-94804025D01*
X160431752Y-94982358D01*
X160431756Y-94982363D01*
X160587636Y-95138243D01*
X160587641Y-95138247D01*
X160765976Y-95267814D01*
X160831794Y-95301350D01*
X160882591Y-95349324D01*
X160899500Y-95411835D01*
X160899500Y-107195208D01*
X160879815Y-107262247D01*
X160844392Y-107298310D01*
X160769707Y-107348213D01*
X160658213Y-107459707D01*
X160658210Y-107459711D01*
X160570609Y-107590814D01*
X160570602Y-107590827D01*
X160510264Y-107736498D01*
X160510261Y-107736510D01*
X160479500Y-107891153D01*
X160479500Y-108048846D01*
X160510261Y-108203489D01*
X160510264Y-108203501D01*
X160570602Y-108349172D01*
X160570609Y-108349185D01*
X160658210Y-108480288D01*
X160658213Y-108480292D01*
X160769707Y-108591786D01*
X160769711Y-108591789D01*
X160900814Y-108679390D01*
X160900827Y-108679397D01*
X161046498Y-108739735D01*
X161046503Y-108739737D01*
X161201153Y-108770499D01*
X161201156Y-108770500D01*
X161201158Y-108770500D01*
X161358844Y-108770500D01*
X161358845Y-108770499D01*
X161513497Y-108739737D01*
X161659179Y-108679394D01*
X161790289Y-108591789D01*
X161901789Y-108480289D01*
X161989394Y-108349179D01*
X162049737Y-108203497D01*
X162080500Y-108048842D01*
X162080500Y-107920026D01*
X162084725Y-107887932D01*
X162098241Y-107837490D01*
X162100501Y-107829057D01*
X162100501Y-107670943D01*
X162100501Y-107663348D01*
X162100500Y-107663330D01*
X162100500Y-104117560D01*
X162108151Y-104091501D01*
X162112348Y-104064665D01*
X162117850Y-104058469D01*
X162120185Y-104050521D01*
X162140709Y-104032736D01*
X162158749Y-104012428D01*
X162166727Y-104010191D01*
X162172989Y-104004766D01*
X162199871Y-104000900D01*
X162226026Y-103993569D01*
X162236254Y-103995669D01*
X162242147Y-103994822D01*
X162260896Y-103999022D01*
X162266515Y-104000747D01*
X162336503Y-104029737D01*
X162405872Y-104043535D01*
X162411896Y-104045385D01*
X162436000Y-104061298D01*
X162461602Y-104074690D01*
X162464804Y-104080313D01*
X162470205Y-104083879D01*
X162481883Y-104110306D01*
X162496176Y-104135406D01*
X162497322Y-104145245D01*
X162498446Y-104147787D01*
X162497972Y-104150816D01*
X162499500Y-104163923D01*
X162499500Y-123371715D01*
X162479815Y-123438754D01*
X162427011Y-123484509D01*
X162357853Y-123494453D01*
X162356103Y-123494188D01*
X162200222Y-123469500D01*
X161979778Y-123469500D01*
X161930443Y-123477314D01*
X161762047Y-123503985D01*
X161552396Y-123572103D01*
X161552393Y-123572104D01*
X161355974Y-123672187D01*
X161177641Y-123801752D01*
X161177636Y-123801756D01*
X161021756Y-123957636D01*
X161021752Y-123957641D01*
X160892187Y-124135974D01*
X160792104Y-124332393D01*
X160792103Y-124332396D01*
X160723985Y-124542047D01*
X160689500Y-124759778D01*
X160689500Y-124980221D01*
X160723985Y-125197952D01*
X160792103Y-125407603D01*
X160792104Y-125407606D01*
X160892187Y-125604025D01*
X161021752Y-125782358D01*
X161021756Y-125782363D01*
X161177636Y-125938243D01*
X161177641Y-125938247D01*
X161279606Y-126012328D01*
X161355978Y-126067815D01*
X161484375Y-126133237D01*
X161552393Y-126167895D01*
X161552396Y-126167896D01*
X161657221Y-126201955D01*
X161762049Y-126236015D01*
X161979778Y-126270500D01*
X161979779Y-126270500D01*
X162200221Y-126270500D01*
X162200222Y-126270500D01*
X162417951Y-126236015D01*
X162627606Y-126167895D01*
X162824022Y-126067815D01*
X163002365Y-125938242D01*
X163052536Y-125888070D01*
X163113857Y-125854586D01*
X163183548Y-125859570D01*
X163239482Y-125901441D01*
X163256398Y-125932419D01*
X163286202Y-126012328D01*
X163286206Y-126012335D01*
X163372452Y-126127544D01*
X163372455Y-126127547D01*
X163487664Y-126213793D01*
X163487671Y-126213797D01*
X163622517Y-126264091D01*
X163622516Y-126264091D01*
X163629444Y-126264835D01*
X163682127Y-126270500D01*
X165577872Y-126270499D01*
X165637483Y-126264091D01*
X165772331Y-126213796D01*
X165887546Y-126127546D01*
X165973796Y-126012331D01*
X166024091Y-125877483D01*
X166030500Y-125817873D01*
X166030499Y-123922128D01*
X166024091Y-123862517D01*
X166001429Y-123801758D01*
X165973797Y-123727671D01*
X165973793Y-123727664D01*
X165887547Y-123612455D01*
X165887544Y-123612452D01*
X165772335Y-123526206D01*
X165772328Y-123526202D01*
X165637482Y-123475908D01*
X165637483Y-123475908D01*
X165577883Y-123469501D01*
X165577881Y-123469500D01*
X165577873Y-123469500D01*
X165577865Y-123469500D01*
X163824500Y-123469500D01*
X163757461Y-123449815D01*
X163711706Y-123397011D01*
X163700500Y-123345500D01*
X163700500Y-105240992D01*
X163720185Y-105173953D01*
X163772989Y-105128198D01*
X163842147Y-105118254D01*
X163871950Y-105126430D01*
X163976503Y-105169737D01*
X164131153Y-105200499D01*
X164131156Y-105200500D01*
X164131158Y-105200500D01*
X164288844Y-105200500D01*
X164288845Y-105200499D01*
X164443497Y-105169737D01*
X164589179Y-105109394D01*
X164720289Y-105021789D01*
X164831789Y-104910289D01*
X164919394Y-104779179D01*
X164979737Y-104633497D01*
X165010500Y-104478842D01*
X165010500Y-104321158D01*
X165010500Y-104321155D01*
X165010499Y-104321153D01*
X164997384Y-104255220D01*
X164979737Y-104166503D01*
X164977991Y-104162287D01*
X164919397Y-104020827D01*
X164919390Y-104020814D01*
X164831398Y-103889125D01*
X164810520Y-103822447D01*
X164810500Y-103820234D01*
X164810500Y-102699765D01*
X164830185Y-102632726D01*
X164831398Y-102630874D01*
X164885030Y-102550609D01*
X164919394Y-102499179D01*
X164921874Y-102493193D01*
X164979735Y-102353501D01*
X164979737Y-102353497D01*
X164995048Y-102276520D01*
X165010500Y-102198845D01*
X165010500Y-102041155D01*
X165010499Y-102041153D01*
X164979738Y-101886510D01*
X164979737Y-101886503D01*
X164968358Y-101859031D01*
X164919397Y-101740827D01*
X164919390Y-101740814D01*
X164831789Y-101609711D01*
X164831786Y-101609707D01*
X164720292Y-101498213D01*
X164720288Y-101498210D01*
X164589185Y-101410609D01*
X164589172Y-101410602D01*
X164443501Y-101350264D01*
X164443489Y-101350261D01*
X164288845Y-101319500D01*
X164288842Y-101319500D01*
X164131158Y-101319500D01*
X164131155Y-101319500D01*
X163976510Y-101350261D01*
X163976498Y-101350264D01*
X163830827Y-101410602D01*
X163830814Y-101410609D01*
X163699711Y-101498210D01*
X163699707Y-101498213D01*
X163588213Y-101609707D01*
X163588210Y-101609711D01*
X163500609Y-101740814D01*
X163500602Y-101740827D01*
X163440264Y-101886498D01*
X163440261Y-101886510D01*
X163409500Y-102041153D01*
X163409500Y-102198845D01*
X163440261Y-102353489D01*
X163440264Y-102353501D01*
X163500602Y-102499172D01*
X163500609Y-102499185D01*
X163588602Y-102630874D01*
X163609480Y-102697551D01*
X163609500Y-102699765D01*
X163609500Y-103123698D01*
X163589815Y-103190737D01*
X163537011Y-103236492D01*
X163467853Y-103246436D01*
X163404297Y-103217411D01*
X163366523Y-103158633D01*
X163363883Y-103147889D01*
X163339738Y-103026510D01*
X163339737Y-103026503D01*
X163324466Y-102989635D01*
X163279397Y-102880827D01*
X163279390Y-102880814D01*
X163191789Y-102749711D01*
X163191786Y-102749707D01*
X163080292Y-102638213D01*
X163080288Y-102638210D01*
X162949185Y-102550609D01*
X162949172Y-102550602D01*
X162803501Y-102490264D01*
X162803489Y-102490261D01*
X162648845Y-102459500D01*
X162648842Y-102459500D01*
X162491158Y-102459500D01*
X162491155Y-102459500D01*
X162336510Y-102490261D01*
X162336498Y-102490264D01*
X162271952Y-102517000D01*
X162202482Y-102524469D01*
X162140003Y-102493193D01*
X162104352Y-102433104D01*
X162100500Y-102402439D01*
X162100500Y-99359778D01*
X165309500Y-99359778D01*
X165309500Y-99580221D01*
X165343985Y-99797952D01*
X165412103Y-100007603D01*
X165412104Y-100007606D01*
X165443897Y-100070001D01*
X165504068Y-100188092D01*
X165512187Y-100204025D01*
X165641752Y-100382358D01*
X165641756Y-100382363D01*
X165797636Y-100538243D01*
X165797641Y-100538247D01*
X165945941Y-100645992D01*
X165975978Y-100667815D01*
X166104375Y-100733237D01*
X166172393Y-100767895D01*
X166172396Y-100767896D01*
X166277221Y-100801955D01*
X166382049Y-100836015D01*
X166599778Y-100870500D01*
X166599779Y-100870500D01*
X166820221Y-100870500D01*
X166820222Y-100870500D01*
X167037951Y-100836015D01*
X167247606Y-100767895D01*
X167444022Y-100667815D01*
X167622365Y-100538242D01*
X167672536Y-100488070D01*
X167733857Y-100454586D01*
X167803548Y-100459570D01*
X167859482Y-100501441D01*
X167876398Y-100532419D01*
X167906202Y-100612328D01*
X167906206Y-100612335D01*
X167992452Y-100727544D01*
X167992455Y-100727547D01*
X168107664Y-100813793D01*
X168107671Y-100813797D01*
X168242517Y-100864091D01*
X168242516Y-100864091D01*
X168249444Y-100864835D01*
X168302127Y-100870500D01*
X170197872Y-100870499D01*
X170257483Y-100864091D01*
X170392331Y-100813796D01*
X170507546Y-100727546D01*
X170593796Y-100612331D01*
X170644091Y-100477483D01*
X170650500Y-100417873D01*
X170650499Y-98522128D01*
X170644091Y-98462517D01*
X170635975Y-98440758D01*
X170593797Y-98327671D01*
X170593793Y-98327664D01*
X170507547Y-98212455D01*
X170507544Y-98212452D01*
X170392335Y-98126206D01*
X170392328Y-98126202D01*
X170257482Y-98075908D01*
X170257483Y-98075908D01*
X170197883Y-98069501D01*
X170197881Y-98069500D01*
X170197873Y-98069500D01*
X170197864Y-98069500D01*
X168302129Y-98069500D01*
X168302123Y-98069501D01*
X168242516Y-98075908D01*
X168107671Y-98126202D01*
X168107664Y-98126206D01*
X167992455Y-98212452D01*
X167992452Y-98212455D01*
X167906206Y-98327664D01*
X167906203Y-98327669D01*
X167876398Y-98407581D01*
X167834526Y-98463514D01*
X167769062Y-98487931D01*
X167700789Y-98473079D01*
X167672535Y-98451928D01*
X167622363Y-98401756D01*
X167622358Y-98401752D01*
X167444025Y-98272187D01*
X167444024Y-98272186D01*
X167444022Y-98272185D01*
X167326791Y-98212452D01*
X167247606Y-98172104D01*
X167247603Y-98172103D01*
X167037952Y-98103985D01*
X166929086Y-98086742D01*
X166820222Y-98069500D01*
X166599778Y-98069500D01*
X166527201Y-98080995D01*
X166382047Y-98103985D01*
X166172396Y-98172103D01*
X166172393Y-98172104D01*
X165975974Y-98272187D01*
X165797641Y-98401752D01*
X165797636Y-98401756D01*
X165641756Y-98557636D01*
X165641752Y-98557641D01*
X165512187Y-98735974D01*
X165412104Y-98932393D01*
X165412103Y-98932396D01*
X165343985Y-99142047D01*
X165309500Y-99359778D01*
X162100500Y-99359778D01*
X162100500Y-95411835D01*
X162120185Y-95344796D01*
X162168206Y-95301350D01*
X162168547Y-95301175D01*
X162234022Y-95267815D01*
X162412365Y-95138242D01*
X162462536Y-95088070D01*
X162523857Y-95054586D01*
X162593548Y-95059570D01*
X162649482Y-95101441D01*
X162666398Y-95132419D01*
X162696202Y-95212328D01*
X162696206Y-95212335D01*
X162782452Y-95327544D01*
X162782455Y-95327547D01*
X162897664Y-95413793D01*
X162897671Y-95413797D01*
X163032517Y-95464091D01*
X163032516Y-95464091D01*
X163039444Y-95464835D01*
X163092127Y-95470500D01*
X164987872Y-95470499D01*
X165047483Y-95464091D01*
X165182331Y-95413796D01*
X165297546Y-95327546D01*
X165383796Y-95212331D01*
X165434091Y-95077483D01*
X165440500Y-95017873D01*
X165440499Y-93122128D01*
X165434091Y-93062517D01*
X165413601Y-93007581D01*
X165412841Y-93005542D01*
X165407857Y-92935850D01*
X165441342Y-92874527D01*
X165502666Y-92841043D01*
X165572357Y-92846027D01*
X165616703Y-92874526D01*
X165815259Y-93073079D01*
X166219500Y-93477315D01*
X166218882Y-93477932D01*
X166218884Y-93477934D01*
X166219502Y-93477317D01*
X175805692Y-103063377D01*
X175839177Y-103124700D01*
X175834193Y-103194392D01*
X175792322Y-103250326D01*
X175726858Y-103274743D01*
X175674678Y-103267241D01*
X175617482Y-103245908D01*
X175617483Y-103245908D01*
X175557883Y-103239501D01*
X175557881Y-103239500D01*
X175557873Y-103239500D01*
X175557864Y-103239500D01*
X173662129Y-103239500D01*
X173662123Y-103239501D01*
X173602516Y-103245908D01*
X173467671Y-103296202D01*
X173467664Y-103296206D01*
X173352455Y-103382452D01*
X173352452Y-103382455D01*
X173266206Y-103497664D01*
X173266203Y-103497669D01*
X173236398Y-103577581D01*
X173194526Y-103633514D01*
X173129062Y-103657931D01*
X173060789Y-103643079D01*
X173032535Y-103621928D01*
X172982363Y-103571756D01*
X172982358Y-103571752D01*
X172804025Y-103442187D01*
X172804024Y-103442186D01*
X172804022Y-103442185D01*
X172686791Y-103382452D01*
X172607606Y-103342104D01*
X172607603Y-103342103D01*
X172397952Y-103273985D01*
X172248574Y-103250326D01*
X172180222Y-103239500D01*
X171959778Y-103239500D01*
X171915986Y-103246436D01*
X171742047Y-103273985D01*
X171532396Y-103342103D01*
X171532393Y-103342104D01*
X171335974Y-103442187D01*
X171157641Y-103571752D01*
X171157636Y-103571756D01*
X171001756Y-103727636D01*
X171001752Y-103727641D01*
X170872187Y-103905974D01*
X170772104Y-104102393D01*
X170772103Y-104102396D01*
X170703985Y-104312047D01*
X170669500Y-104529778D01*
X170669500Y-104750221D01*
X170703985Y-104967952D01*
X170772103Y-105177603D01*
X170772104Y-105177606D01*
X170840122Y-105311096D01*
X170865816Y-105361523D01*
X170872187Y-105374025D01*
X171001752Y-105552358D01*
X171001756Y-105552363D01*
X171157636Y-105708243D01*
X171157641Y-105708247D01*
X171282336Y-105798842D01*
X171335978Y-105837815D01*
X171464375Y-105903237D01*
X171532393Y-105937895D01*
X171532396Y-105937896D01*
X171637221Y-105971955D01*
X171742049Y-106006015D01*
X171959778Y-106040500D01*
X171959779Y-106040500D01*
X172180221Y-106040500D01*
X172180222Y-106040500D01*
X172397951Y-106006015D01*
X172607606Y-105937895D01*
X172804022Y-105837815D01*
X172982365Y-105708242D01*
X173032536Y-105658070D01*
X173093857Y-105624586D01*
X173163548Y-105629570D01*
X173219482Y-105671441D01*
X173236398Y-105702419D01*
X173266202Y-105782328D01*
X173266206Y-105782335D01*
X173352452Y-105897544D01*
X173352455Y-105897547D01*
X173467664Y-105983793D01*
X173467671Y-105983797D01*
X173602517Y-106034091D01*
X173602516Y-106034091D01*
X173609444Y-106034835D01*
X173662127Y-106040500D01*
X175557872Y-106040499D01*
X175617483Y-106034091D01*
X175752331Y-105983796D01*
X175867546Y-105897546D01*
X175953796Y-105782331D01*
X176004091Y-105647483D01*
X176010500Y-105587873D01*
X176010499Y-103692128D01*
X176004091Y-103632517D01*
X175982754Y-103575311D01*
X175977771Y-103505622D01*
X176011256Y-103444299D01*
X176072579Y-103410814D01*
X176142270Y-103415798D01*
X176186618Y-103444298D01*
X179574782Y-106832416D01*
X182369989Y-109627585D01*
X182474504Y-109732098D01*
X182507989Y-109793421D01*
X182503005Y-109863113D01*
X182474505Y-109907461D01*
X176342181Y-116039870D01*
X176280858Y-116073355D01*
X176211166Y-116068371D01*
X176155232Y-116026500D01*
X176130815Y-115961036D01*
X176130499Y-115952216D01*
X176130499Y-114072128D01*
X176124091Y-114012517D01*
X176121061Y-114004394D01*
X176073797Y-113877671D01*
X176073793Y-113877664D01*
X175987547Y-113762455D01*
X175987544Y-113762452D01*
X175872335Y-113676206D01*
X175872328Y-113676202D01*
X175737482Y-113625908D01*
X175737483Y-113625908D01*
X175677883Y-113619501D01*
X175677881Y-113619500D01*
X175677873Y-113619500D01*
X175677864Y-113619500D01*
X173782129Y-113619500D01*
X173782123Y-113619501D01*
X173722516Y-113625908D01*
X173587671Y-113676202D01*
X173587664Y-113676206D01*
X173472455Y-113762452D01*
X173472452Y-113762455D01*
X173386206Y-113877664D01*
X173386203Y-113877669D01*
X173356398Y-113957581D01*
X173314526Y-114013514D01*
X173249062Y-114037931D01*
X173180789Y-114023079D01*
X173152535Y-114001928D01*
X173102363Y-113951756D01*
X173102358Y-113951752D01*
X172924025Y-113822187D01*
X172924024Y-113822186D01*
X172924022Y-113822185D01*
X172806791Y-113762452D01*
X172727606Y-113722104D01*
X172727603Y-113722103D01*
X172517952Y-113653985D01*
X172361370Y-113629185D01*
X172300222Y-113619500D01*
X172079778Y-113619500D01*
X172018630Y-113629185D01*
X171862047Y-113653985D01*
X171652396Y-113722103D01*
X171652393Y-113722104D01*
X171455974Y-113822187D01*
X171277641Y-113951752D01*
X171277636Y-113951756D01*
X171121756Y-114107636D01*
X171121752Y-114107641D01*
X170992187Y-114285974D01*
X170892104Y-114482393D01*
X170892103Y-114482396D01*
X170823985Y-114692047D01*
X170789500Y-114909778D01*
X170789500Y-115130221D01*
X170823985Y-115347952D01*
X170892103Y-115557603D01*
X170892104Y-115557606D01*
X170992187Y-115754025D01*
X171121752Y-115932358D01*
X171121756Y-115932363D01*
X171277636Y-116088243D01*
X171277641Y-116088247D01*
X171379606Y-116162328D01*
X171455978Y-116217815D01*
X171584375Y-116283237D01*
X171652393Y-116317895D01*
X171652396Y-116317896D01*
X171757221Y-116351955D01*
X171862049Y-116386015D01*
X172079778Y-116420500D01*
X172079779Y-116420500D01*
X172300221Y-116420500D01*
X172300222Y-116420500D01*
X172517951Y-116386015D01*
X172727606Y-116317895D01*
X172924022Y-116217815D01*
X173102365Y-116088242D01*
X173152536Y-116038070D01*
X173213857Y-116004586D01*
X173283548Y-116009570D01*
X173339482Y-116051441D01*
X173356398Y-116082419D01*
X173386202Y-116162328D01*
X173386206Y-116162335D01*
X173472452Y-116277544D01*
X173472455Y-116277547D01*
X173587664Y-116363793D01*
X173587671Y-116363797D01*
X173722517Y-116414091D01*
X173722516Y-116414091D01*
X173729444Y-116414835D01*
X173782127Y-116420500D01*
X175662198Y-116420499D01*
X175729237Y-116440184D01*
X175774992Y-116492987D01*
X175784936Y-116562146D01*
X175755911Y-116625702D01*
X175749880Y-116632180D01*
X171488894Y-120893225D01*
X171427571Y-120926710D01*
X171357879Y-120921726D01*
X171301945Y-120879855D01*
X171277528Y-120814391D01*
X171285030Y-120762211D01*
X171324091Y-120657483D01*
X171330500Y-120597873D01*
X171330499Y-118702128D01*
X171324091Y-118642517D01*
X171303601Y-118587581D01*
X171273797Y-118507671D01*
X171273793Y-118507664D01*
X171187547Y-118392455D01*
X171187544Y-118392452D01*
X171072335Y-118306206D01*
X171072328Y-118306202D01*
X170937482Y-118255908D01*
X170937483Y-118255908D01*
X170877883Y-118249501D01*
X170877881Y-118249500D01*
X170877873Y-118249500D01*
X170877864Y-118249500D01*
X168982129Y-118249500D01*
X168982123Y-118249501D01*
X168922516Y-118255908D01*
X168787671Y-118306202D01*
X168787664Y-118306206D01*
X168672455Y-118392452D01*
X168672452Y-118392455D01*
X168586206Y-118507664D01*
X168586203Y-118507669D01*
X168556398Y-118587581D01*
X168514526Y-118643514D01*
X168449062Y-118667931D01*
X168380789Y-118653079D01*
X168352535Y-118631928D01*
X168302363Y-118581756D01*
X168302358Y-118581752D01*
X168124023Y-118452185D01*
X168058204Y-118418648D01*
X168007409Y-118370674D01*
X167990500Y-118308164D01*
X167990500Y-106540945D01*
X167990498Y-106540936D01*
X167985060Y-106520638D01*
X167985023Y-106520500D01*
X167949577Y-106388215D01*
X167920639Y-106338095D01*
X167870520Y-106251284D01*
X167758716Y-106139480D01*
X167758715Y-106139479D01*
X167754385Y-106135149D01*
X167754374Y-106135139D01*
X167324574Y-105705339D01*
X167291089Y-105644016D01*
X167290638Y-105641849D01*
X167272595Y-105551147D01*
X167259737Y-105486503D01*
X167216326Y-105381698D01*
X167199397Y-105340827D01*
X167199390Y-105340814D01*
X167111789Y-105209711D01*
X167111786Y-105209707D01*
X167000292Y-105098213D01*
X167000288Y-105098210D01*
X166869185Y-105010609D01*
X166869172Y-105010602D01*
X166723501Y-104950264D01*
X166723489Y-104950261D01*
X166568845Y-104919500D01*
X166568842Y-104919500D01*
X166411158Y-104919500D01*
X166411155Y-104919500D01*
X166256510Y-104950261D01*
X166256498Y-104950264D01*
X166110827Y-105010602D01*
X166110814Y-105010609D01*
X165979711Y-105098210D01*
X165979707Y-105098213D01*
X165868213Y-105209707D01*
X165868210Y-105209711D01*
X165780609Y-105340814D01*
X165780602Y-105340827D01*
X165720264Y-105486498D01*
X165720261Y-105486510D01*
X165689500Y-105641153D01*
X165689500Y-105798846D01*
X165720261Y-105953489D01*
X165720264Y-105953501D01*
X165780602Y-106099172D01*
X165780609Y-106099185D01*
X165868210Y-106230288D01*
X165868213Y-106230292D01*
X165979707Y-106341786D01*
X165979711Y-106341789D01*
X166110814Y-106429390D01*
X166110827Y-106429397D01*
X166256498Y-106489735D01*
X166256503Y-106489737D01*
X166321147Y-106502595D01*
X166411849Y-106520638D01*
X166473760Y-106553023D01*
X166475339Y-106554574D01*
X166753181Y-106832416D01*
X166786666Y-106893739D01*
X166789500Y-106920097D01*
X166789500Y-118308164D01*
X166769815Y-118375203D01*
X166721796Y-118418648D01*
X166655976Y-118452185D01*
X166477641Y-118581752D01*
X166477636Y-118581756D01*
X166321756Y-118737636D01*
X166321752Y-118737641D01*
X166192187Y-118915974D01*
X166092104Y-119112393D01*
X166092103Y-119112396D01*
X166023985Y-119322047D01*
X165989500Y-119539778D01*
X165989500Y-119760221D01*
X166023985Y-119977952D01*
X166092103Y-120187603D01*
X166092104Y-120187606D01*
X166136326Y-120274394D01*
X166182801Y-120365606D01*
X166192187Y-120384025D01*
X166321752Y-120562358D01*
X166321756Y-120562363D01*
X166477636Y-120718243D01*
X166477641Y-120718247D01*
X166623773Y-120824417D01*
X166655978Y-120847815D01*
X166784375Y-120913237D01*
X166852393Y-120947895D01*
X166852396Y-120947896D01*
X166957221Y-120981955D01*
X167062049Y-121016015D01*
X167279778Y-121050500D01*
X167279779Y-121050500D01*
X167500221Y-121050500D01*
X167500222Y-121050500D01*
X167717951Y-121016015D01*
X167927606Y-120947895D01*
X168124022Y-120847815D01*
X168302365Y-120718242D01*
X168352536Y-120668070D01*
X168413857Y-120634586D01*
X168483548Y-120639570D01*
X168539482Y-120681441D01*
X168556398Y-120712419D01*
X168586202Y-120792328D01*
X168586206Y-120792335D01*
X168672452Y-120907544D01*
X168672455Y-120907547D01*
X168787664Y-120993793D01*
X168787671Y-120993797D01*
X168922517Y-121044091D01*
X168922516Y-121044091D01*
X168929444Y-121044835D01*
X168982127Y-121050500D01*
X170877872Y-121050499D01*
X170937483Y-121044091D01*
X171042219Y-121005026D01*
X171111909Y-121000043D01*
X171173232Y-121033528D01*
X171206717Y-121094851D01*
X171201733Y-121164543D01*
X171173233Y-121208890D01*
X166337684Y-126044508D01*
X166337682Y-126044508D01*
X166337683Y-126044509D01*
X160929306Y-131452960D01*
X160929303Y-131452961D01*
X160752971Y-131629297D01*
X160752971Y-131629298D01*
X150728332Y-141654076D01*
X150667009Y-141687561D01*
X150597317Y-141682577D01*
X150541383Y-141640706D01*
X150516966Y-141575242D01*
X150516650Y-141566713D01*
X150505479Y-137204817D01*
X150524992Y-137137727D01*
X150577679Y-137091837D01*
X150629479Y-137080499D01*
X152357871Y-137080499D01*
X152357872Y-137080499D01*
X152417483Y-137074091D01*
X152552331Y-137023796D01*
X152667546Y-136937546D01*
X152753796Y-136822331D01*
X152781429Y-136748243D01*
X152783601Y-136742420D01*
X152825471Y-136686486D01*
X152890936Y-136662068D01*
X152959209Y-136676919D01*
X152987464Y-136698071D01*
X153037636Y-136748243D01*
X153037641Y-136748247D01*
X153139603Y-136822326D01*
X153215978Y-136877815D01*
X153344375Y-136943237D01*
X153412393Y-136977895D01*
X153412396Y-136977896D01*
X153517221Y-137011955D01*
X153622049Y-137046015D01*
X153839778Y-137080500D01*
X153839779Y-137080500D01*
X154060221Y-137080500D01*
X154060222Y-137080500D01*
X154277951Y-137046015D01*
X154487606Y-136977895D01*
X154684022Y-136877815D01*
X154862365Y-136748242D01*
X155018242Y-136592365D01*
X155147815Y-136414022D01*
X155247895Y-136217606D01*
X155316015Y-136007951D01*
X155350500Y-135790222D01*
X155350500Y-135569778D01*
X155316015Y-135352049D01*
X155247895Y-135142394D01*
X155247895Y-135142393D01*
X155213237Y-135074375D01*
X155147815Y-134945978D01*
X155089501Y-134865715D01*
X155018247Y-134767641D01*
X155018243Y-134767636D01*
X154862363Y-134611756D01*
X154862358Y-134611752D01*
X154684023Y-134482185D01*
X154618204Y-134448648D01*
X154567409Y-134400674D01*
X154550500Y-134338164D01*
X154550500Y-128939098D01*
X154556738Y-128917853D01*
X154558317Y-128895768D01*
X154566390Y-128884983D01*
X154570185Y-128872059D01*
X154586917Y-128857560D01*
X154600187Y-128839833D01*
X154612809Y-128835124D01*
X154622989Y-128826304D01*
X154644902Y-128823153D01*
X154665650Y-128815414D01*
X154678813Y-128818277D01*
X154692147Y-128816360D01*
X154712287Y-128825558D01*
X154733924Y-128830264D01*
X154751654Y-128843536D01*
X154755703Y-128845385D01*
X154762172Y-128851409D01*
X154762175Y-128851411D01*
X154771284Y-128860520D01*
X154771286Y-128860521D01*
X154778355Y-128867590D01*
X155506561Y-129595796D01*
X155540046Y-129657119D01*
X155536811Y-129721794D01*
X155513985Y-129792045D01*
X155479500Y-130009778D01*
X155479500Y-130230221D01*
X155513985Y-130447952D01*
X155582103Y-130657603D01*
X155582104Y-130657606D01*
X155682187Y-130854025D01*
X155811752Y-131032358D01*
X155811756Y-131032363D01*
X155967636Y-131188243D01*
X155967641Y-131188247D01*
X156069616Y-131262335D01*
X156145978Y-131317815D01*
X156274375Y-131383237D01*
X156342393Y-131417895D01*
X156342396Y-131417896D01*
X156434015Y-131447664D01*
X156552049Y-131486015D01*
X156769778Y-131520500D01*
X156769779Y-131520500D01*
X156990221Y-131520500D01*
X156990222Y-131520500D01*
X157207951Y-131486015D01*
X157417606Y-131417895D01*
X157614022Y-131317815D01*
X157792365Y-131188242D01*
X157842536Y-131138070D01*
X157903857Y-131104586D01*
X157973548Y-131109570D01*
X158029482Y-131151441D01*
X158046398Y-131182419D01*
X158076202Y-131262328D01*
X158076206Y-131262335D01*
X158162452Y-131377544D01*
X158162455Y-131377547D01*
X158277664Y-131463793D01*
X158277671Y-131463797D01*
X158412517Y-131514091D01*
X158412516Y-131514091D01*
X158419444Y-131514835D01*
X158472127Y-131520500D01*
X160367872Y-131520499D01*
X160427483Y-131514091D01*
X160562331Y-131463796D01*
X160677546Y-131377546D01*
X160763796Y-131262331D01*
X160814091Y-131127483D01*
X160820500Y-131067873D01*
X160820499Y-129172128D01*
X160814091Y-129112517D01*
X160793601Y-129057581D01*
X160763797Y-128977671D01*
X160763793Y-128977664D01*
X160677547Y-128862455D01*
X160677544Y-128862452D01*
X160562335Y-128776206D01*
X160562328Y-128776202D01*
X160427482Y-128725908D01*
X160427483Y-128725908D01*
X160367883Y-128719501D01*
X160367881Y-128719500D01*
X160367873Y-128719500D01*
X160367864Y-128719500D01*
X158472129Y-128719500D01*
X158472123Y-128719501D01*
X158412516Y-128725908D01*
X158277671Y-128776202D01*
X158277664Y-128776206D01*
X158162455Y-128862452D01*
X158162452Y-128862455D01*
X158076206Y-128977664D01*
X158076203Y-128977669D01*
X158046398Y-129057581D01*
X158004526Y-129113514D01*
X157939062Y-129137931D01*
X157870789Y-129123079D01*
X157842535Y-129101928D01*
X157792363Y-129051756D01*
X157792358Y-129051752D01*
X157614025Y-128922187D01*
X157614024Y-128922186D01*
X157614022Y-128922185D01*
X157541010Y-128884983D01*
X157417606Y-128822104D01*
X157417603Y-128822103D01*
X157207952Y-128753985D01*
X157099086Y-128736742D01*
X156990222Y-128719500D01*
X156769778Y-128719500D01*
X156729320Y-128725908D01*
X156552045Y-128753985D01*
X156481794Y-128776811D01*
X156411953Y-128778806D01*
X156355796Y-128746561D01*
X155776819Y-128167583D01*
X155743334Y-128106260D01*
X155740500Y-128079902D01*
X155740500Y-114161681D01*
X155760185Y-114094642D01*
X155812989Y-114048887D01*
X155882147Y-114038943D01*
X155888692Y-114040064D01*
X155941155Y-114050500D01*
X155941158Y-114050500D01*
X156098844Y-114050500D01*
X156098845Y-114050499D01*
X156253497Y-114019737D01*
X156399179Y-113959394D01*
X156530289Y-113871789D01*
X156641789Y-113760289D01*
X156729394Y-113629179D01*
X156730749Y-113625909D01*
X156789735Y-113483501D01*
X156789737Y-113483497D01*
X156820500Y-113328842D01*
X156820500Y-113227343D01*
X156824725Y-113195250D01*
X156826623Y-113188168D01*
X156850500Y-113099057D01*
X156850500Y-112940943D01*
X156850500Y-90261835D01*
X156870185Y-90194796D01*
X156918206Y-90151350D01*
X156918547Y-90151175D01*
X156984022Y-90117815D01*
X157162365Y-89988242D01*
X157212536Y-89938070D01*
X157273857Y-89904586D01*
X157343548Y-89909570D01*
X157399482Y-89951441D01*
X157416398Y-89982419D01*
X157446202Y-90062328D01*
X157446206Y-90062335D01*
X157532452Y-90177544D01*
X157532455Y-90177547D01*
X157647664Y-90263793D01*
X157647671Y-90263797D01*
X157782517Y-90314091D01*
X157782516Y-90314091D01*
X157789444Y-90314835D01*
X157842127Y-90320500D01*
X159737872Y-90320499D01*
X159797483Y-90314091D01*
X159932331Y-90263796D01*
X160047546Y-90177546D01*
X160133796Y-90062331D01*
X160184091Y-89927483D01*
X160190500Y-89867873D01*
X160190499Y-87972128D01*
X160184091Y-87912517D01*
X160163601Y-87857581D01*
X160133797Y-87777671D01*
X160133793Y-87777664D01*
X160047547Y-87662455D01*
X160047544Y-87662452D01*
X159932335Y-87576206D01*
X159932328Y-87576202D01*
X159797482Y-87525908D01*
X159797483Y-87525908D01*
X159737883Y-87519501D01*
X159737881Y-87519500D01*
X159737873Y-87519500D01*
X159737864Y-87519500D01*
X157842129Y-87519500D01*
X157842123Y-87519501D01*
X157782516Y-87525908D01*
X157647671Y-87576202D01*
X157647664Y-87576206D01*
X157532455Y-87662452D01*
X157532452Y-87662455D01*
X157446206Y-87777664D01*
X157446203Y-87777669D01*
X157416398Y-87857581D01*
X157374526Y-87913514D01*
X157309062Y-87937931D01*
X157240789Y-87923079D01*
X157212535Y-87901928D01*
X157162363Y-87851756D01*
X157162358Y-87851752D01*
X156984025Y-87722187D01*
X156984024Y-87722186D01*
X156984022Y-87722185D01*
X156866791Y-87662452D01*
X156787606Y-87622104D01*
X156787603Y-87622103D01*
X156577952Y-87553985D01*
X156469086Y-87536742D01*
X156360222Y-87519500D01*
X156139778Y-87519500D01*
X156067201Y-87530995D01*
X155922047Y-87553985D01*
X155712396Y-87622103D01*
X155712393Y-87622104D01*
X155515974Y-87722187D01*
X155337641Y-87851752D01*
X155337636Y-87851756D01*
X155181756Y-88007636D01*
X155181752Y-88007641D01*
X155052187Y-88185974D01*
X154952104Y-88382393D01*
X154952103Y-88382396D01*
X154883985Y-88592047D01*
X154849500Y-88809778D01*
X154849500Y-89030221D01*
X154883985Y-89247952D01*
X154952103Y-89457603D01*
X154952104Y-89457606D01*
X155052187Y-89654025D01*
X155181752Y-89832358D01*
X155181756Y-89832363D01*
X155337636Y-89988243D01*
X155337641Y-89988247D01*
X155515976Y-90117814D01*
X155581794Y-90151350D01*
X155632591Y-90199324D01*
X155649500Y-90261835D01*
X155649500Y-98269007D01*
X155629815Y-98336046D01*
X155577011Y-98381801D01*
X155507853Y-98391745D01*
X155478048Y-98383569D01*
X155437732Y-98366870D01*
X155373497Y-98340263D01*
X155373492Y-98340262D01*
X155373489Y-98340261D01*
X155218845Y-98309500D01*
X155218842Y-98309500D01*
X155061158Y-98309500D01*
X155061155Y-98309500D01*
X154906510Y-98340261D01*
X154906498Y-98340264D01*
X154760827Y-98400602D01*
X154760814Y-98400609D01*
X154629711Y-98488210D01*
X154629707Y-98488213D01*
X154518213Y-98599707D01*
X154518210Y-98599711D01*
X154430609Y-98730814D01*
X154430602Y-98730827D01*
X154370264Y-98876498D01*
X154370261Y-98876510D01*
X154339500Y-99031153D01*
X154339500Y-99188846D01*
X154370261Y-99343489D01*
X154370264Y-99343501D01*
X154430602Y-99489172D01*
X154430609Y-99489185D01*
X154518602Y-99620874D01*
X154539480Y-99687551D01*
X154539500Y-99689765D01*
X154539500Y-104303667D01*
X154519815Y-104370706D01*
X154467011Y-104416461D01*
X154397853Y-104426405D01*
X154334297Y-104397380D01*
X154300939Y-104351119D01*
X154259397Y-104250827D01*
X154259390Y-104250814D01*
X154171789Y-104119711D01*
X154171786Y-104119707D01*
X154060292Y-104008213D01*
X154060288Y-104008210D01*
X153929185Y-103920609D01*
X153929172Y-103920602D01*
X153783501Y-103860264D01*
X153783489Y-103860261D01*
X153628845Y-103829500D01*
X153628842Y-103829500D01*
X153471158Y-103829500D01*
X153471155Y-103829500D01*
X153316510Y-103860261D01*
X153316498Y-103860264D01*
X153170827Y-103920602D01*
X153170814Y-103920609D01*
X153039711Y-104008210D01*
X153039707Y-104008213D01*
X152928213Y-104119707D01*
X152928210Y-104119711D01*
X152840609Y-104250814D01*
X152840602Y-104250827D01*
X152780264Y-104396498D01*
X152780261Y-104396510D01*
X152749500Y-104551153D01*
X152749500Y-104708846D01*
X152780261Y-104863489D01*
X152780264Y-104863501D01*
X152840602Y-105009172D01*
X152840609Y-105009185D01*
X152928210Y-105140288D01*
X152928213Y-105140292D01*
X153039707Y-105251786D01*
X153039711Y-105251789D01*
X153170814Y-105339390D01*
X153170827Y-105339397D01*
X153272952Y-105381698D01*
X153327356Y-105425538D01*
X153349421Y-105491833D01*
X153349500Y-105496259D01*
X153349500Y-134338164D01*
X153329815Y-134405203D01*
X153281796Y-134448648D01*
X153215976Y-134482185D01*
X153037641Y-134611752D01*
X153037636Y-134611756D01*
X152987463Y-134661929D01*
X152926140Y-134695413D01*
X152856448Y-134690428D01*
X152800515Y-134648557D01*
X152783601Y-134617580D01*
X152753797Y-134537671D01*
X152753793Y-134537664D01*
X152667547Y-134422455D01*
X152667544Y-134422452D01*
X152552335Y-134336206D01*
X152552328Y-134336202D01*
X152417482Y-134285908D01*
X152417483Y-134285908D01*
X152357883Y-134279501D01*
X152357881Y-134279500D01*
X152357873Y-134279500D01*
X152357865Y-134279500D01*
X150621671Y-134279500D01*
X150554632Y-134259815D01*
X150508877Y-134207011D01*
X150497671Y-134155818D01*
X150494810Y-133038593D01*
X150494809Y-133038585D01*
X150490658Y-131417896D01*
X150469534Y-123169205D01*
X150469534Y-123104108D01*
X150469371Y-123103503D01*
X150469370Y-123102871D01*
X150469365Y-123102835D01*
X150469364Y-123102831D01*
X150469364Y-123102826D01*
X150452273Y-123039689D01*
X150435426Y-122976814D01*
X150435110Y-122976267D01*
X150434943Y-122975650D01*
X150434934Y-122975626D01*
X150402080Y-122919057D01*
X150402080Y-122919056D01*
X150402078Y-122919054D01*
X150402025Y-122918962D01*
X150369534Y-122862686D01*
X150369078Y-122862230D01*
X150368749Y-122861663D01*
X150322424Y-122815576D01*
X150322420Y-122815572D01*
X150276348Y-122769500D01*
X150275795Y-122769181D01*
X150275333Y-122768721D01*
X150275326Y-122768716D01*
X150218740Y-122736239D01*
X150218737Y-122736238D01*
X150218657Y-122736192D01*
X150162220Y-122703608D01*
X150161598Y-122703441D01*
X150161035Y-122703118D01*
X150161026Y-122703115D01*
X150161025Y-122703115D01*
X150098102Y-122686427D01*
X150097768Y-122686338D01*
X150034926Y-122669500D01*
X150034274Y-122669500D01*
X150033644Y-122669333D01*
X150033643Y-122669333D01*
X149968338Y-122669500D01*
X103894500Y-122669500D01*
X103827461Y-122649815D01*
X103781706Y-122597011D01*
X103770500Y-122545500D01*
X103770500Y-120417682D01*
X137710000Y-120417682D01*
X137710000Y-120622317D01*
X137742009Y-120824417D01*
X137805244Y-121019031D01*
X137898141Y-121201350D01*
X137898147Y-121201359D01*
X137930523Y-121245921D01*
X137930524Y-121245922D01*
X138610000Y-120566446D01*
X138610000Y-120572661D01*
X138637259Y-120674394D01*
X138689920Y-120765606D01*
X138764394Y-120840080D01*
X138855606Y-120892741D01*
X138957339Y-120920000D01*
X138963553Y-120920000D01*
X138284076Y-121599474D01*
X138328650Y-121631859D01*
X138510968Y-121724755D01*
X138705582Y-121787990D01*
X138907683Y-121820000D01*
X139112317Y-121820000D01*
X139314417Y-121787990D01*
X139509031Y-121724755D01*
X139691349Y-121631859D01*
X139735921Y-121599474D01*
X139056447Y-120920000D01*
X139062661Y-120920000D01*
X139164394Y-120892741D01*
X139255606Y-120840080D01*
X139330080Y-120765606D01*
X139382741Y-120674394D01*
X139410000Y-120572661D01*
X139410000Y-120566448D01*
X140089474Y-121245922D01*
X140089474Y-121245921D01*
X140121859Y-121201349D01*
X140214755Y-121019031D01*
X140277990Y-120824417D01*
X140310000Y-120622317D01*
X140310000Y-120417682D01*
X140309995Y-120417648D01*
X145329500Y-120417648D01*
X145329500Y-120622351D01*
X145361522Y-120824534D01*
X145424781Y-121019223D01*
X145440718Y-121050500D01*
X145517585Y-121201359D01*
X145517715Y-121201613D01*
X145638028Y-121367213D01*
X145782786Y-121511971D01*
X145903226Y-121599474D01*
X145948390Y-121632287D01*
X146064607Y-121691503D01*
X146130776Y-121725218D01*
X146130778Y-121725218D01*
X146130781Y-121725220D01*
X146235137Y-121759127D01*
X146325465Y-121788477D01*
X146426557Y-121804488D01*
X146527648Y-121820500D01*
X146527649Y-121820500D01*
X146732351Y-121820500D01*
X146732352Y-121820500D01*
X146934534Y-121788477D01*
X147129219Y-121725220D01*
X147311610Y-121632287D01*
X147404590Y-121564732D01*
X147477213Y-121511971D01*
X147477215Y-121511968D01*
X147477219Y-121511966D01*
X147621966Y-121367219D01*
X147621968Y-121367215D01*
X147621971Y-121367213D01*
X147674732Y-121294590D01*
X147742287Y-121201610D01*
X147835220Y-121019219D01*
X147898477Y-120824534D01*
X147930500Y-120622352D01*
X147930500Y-120417648D01*
X147922257Y-120365606D01*
X147898477Y-120215465D01*
X147867458Y-120120000D01*
X147835220Y-120020781D01*
X147835218Y-120020778D01*
X147835218Y-120020776D01*
X147742419Y-119838650D01*
X147742287Y-119838390D01*
X147710092Y-119794077D01*
X147621971Y-119672786D01*
X147477213Y-119528028D01*
X147311613Y-119407715D01*
X147311612Y-119407714D01*
X147311610Y-119407713D01*
X147254653Y-119378691D01*
X147129223Y-119314781D01*
X146934534Y-119251522D01*
X146759995Y-119223878D01*
X146732352Y-119219500D01*
X146527648Y-119219500D01*
X146503329Y-119223351D01*
X146325465Y-119251522D01*
X146130776Y-119314781D01*
X145948386Y-119407715D01*
X145782786Y-119528028D01*
X145638028Y-119672786D01*
X145517715Y-119838386D01*
X145424781Y-120020776D01*
X145361522Y-120215465D01*
X145329500Y-120417648D01*
X140309995Y-120417648D01*
X140277990Y-120215582D01*
X140214755Y-120020968D01*
X140121859Y-119838650D01*
X140089474Y-119794077D01*
X140089474Y-119794076D01*
X139410000Y-120473551D01*
X139410000Y-120467339D01*
X139382741Y-120365606D01*
X139330080Y-120274394D01*
X139255606Y-120199920D01*
X139164394Y-120147259D01*
X139062661Y-120120000D01*
X139056446Y-120120000D01*
X139735922Y-119440524D01*
X139735921Y-119440523D01*
X139691359Y-119408147D01*
X139691350Y-119408141D01*
X139509031Y-119315244D01*
X139314417Y-119252009D01*
X139112317Y-119220000D01*
X138907683Y-119220000D01*
X138705582Y-119252009D01*
X138510968Y-119315244D01*
X138328644Y-119408143D01*
X138284077Y-119440523D01*
X138284077Y-119440524D01*
X138963554Y-120120000D01*
X138957339Y-120120000D01*
X138855606Y-120147259D01*
X138764394Y-120199920D01*
X138689920Y-120274394D01*
X138637259Y-120365606D01*
X138610000Y-120467339D01*
X138610000Y-120473553D01*
X137930524Y-119794077D01*
X137930523Y-119794077D01*
X137898143Y-119838644D01*
X137805244Y-120020968D01*
X137742009Y-120215582D01*
X137710000Y-120417682D01*
X103770500Y-120417682D01*
X103770500Y-115689635D01*
X138041800Y-115689635D01*
X138041800Y-115870364D01*
X138068362Y-116038072D01*
X138070073Y-116048871D01*
X138125922Y-116220756D01*
X138198805Y-116363797D01*
X138207974Y-116381791D01*
X138314196Y-116527996D01*
X138442003Y-116655803D01*
X138578817Y-116755202D01*
X138588212Y-116762028D01*
X138749244Y-116844078D01*
X138921129Y-116899927D01*
X139099635Y-116928200D01*
X139099636Y-116928200D01*
X139280364Y-116928200D01*
X139280365Y-116928200D01*
X139458871Y-116899927D01*
X139630756Y-116844078D01*
X139791788Y-116762028D01*
X139873879Y-116702385D01*
X139937996Y-116655803D01*
X139937998Y-116655800D01*
X139938002Y-116655798D01*
X140065798Y-116528002D01*
X140065800Y-116527998D01*
X140065803Y-116527996D01*
X140143903Y-116420499D01*
X140172028Y-116381788D01*
X140254078Y-116220756D01*
X140309927Y-116048871D01*
X140338200Y-115870365D01*
X140338200Y-115689635D01*
X140309927Y-115511129D01*
X140254078Y-115339244D01*
X140172028Y-115178212D01*
X140165202Y-115168817D01*
X140065803Y-115032003D01*
X139937996Y-114904196D01*
X139791791Y-114797974D01*
X139791790Y-114797973D01*
X139791788Y-114797972D01*
X139630756Y-114715922D01*
X139458871Y-114660073D01*
X139458869Y-114660072D01*
X139458867Y-114660072D01*
X139292659Y-114633747D01*
X139292658Y-114633747D01*
X139280365Y-114631800D01*
X139099635Y-114631800D01*
X139087342Y-114633747D01*
X139087340Y-114633747D01*
X138921132Y-114660072D01*
X138749241Y-114715923D01*
X138588208Y-114797974D01*
X138442003Y-114904196D01*
X138314196Y-115032003D01*
X138207974Y-115178208D01*
X138125923Y-115339241D01*
X138070072Y-115511132D01*
X138041800Y-115689635D01*
X103770500Y-115689635D01*
X103770500Y-107982135D01*
X105129500Y-107982135D01*
X105129500Y-109777870D01*
X105129501Y-109777876D01*
X105135908Y-109837483D01*
X105186202Y-109972328D01*
X105186206Y-109972335D01*
X105272452Y-110087544D01*
X105272455Y-110087547D01*
X105387664Y-110173793D01*
X105387671Y-110173797D01*
X105432157Y-110190389D01*
X105522517Y-110224091D01*
X105582127Y-110230500D01*
X105592685Y-110230499D01*
X105659723Y-110250179D01*
X105680372Y-110266818D01*
X106350591Y-110937037D01*
X106287007Y-110954075D01*
X106172993Y-111019901D01*
X106079901Y-111112993D01*
X106014075Y-111227007D01*
X105997037Y-111290591D01*
X105364728Y-110658282D01*
X105364727Y-110658282D01*
X105325380Y-110712439D01*
X105228904Y-110901782D01*
X105163242Y-111103869D01*
X105163242Y-111103872D01*
X105130000Y-111313753D01*
X105130000Y-111526246D01*
X105163242Y-111736127D01*
X105163242Y-111736130D01*
X105228904Y-111938217D01*
X105325375Y-112127550D01*
X105364728Y-112181716D01*
X105997037Y-111549408D01*
X106014075Y-111612993D01*
X106079901Y-111727007D01*
X106172993Y-111820099D01*
X106287007Y-111885925D01*
X106350590Y-111902962D01*
X105718282Y-112535269D01*
X105718282Y-112535270D01*
X105772449Y-112574624D01*
X105961782Y-112671095D01*
X106163870Y-112736757D01*
X106373754Y-112770000D01*
X106586246Y-112770000D01*
X106796127Y-112736757D01*
X106796130Y-112736757D01*
X106998217Y-112671095D01*
X107187554Y-112574622D01*
X107241716Y-112535270D01*
X107241717Y-112535270D01*
X106609408Y-111902962D01*
X106672993Y-111885925D01*
X106787007Y-111820099D01*
X106880099Y-111727007D01*
X106945925Y-111612993D01*
X106962962Y-111549408D01*
X107595270Y-112181717D01*
X107595270Y-112181716D01*
X107634622Y-112127554D01*
X107731095Y-111938217D01*
X107796757Y-111736130D01*
X107796757Y-111736127D01*
X107830000Y-111526246D01*
X107830000Y-111313753D01*
X107796757Y-111103872D01*
X107796757Y-111103869D01*
X107731095Y-110901782D01*
X107634624Y-110712449D01*
X107595270Y-110658282D01*
X107595269Y-110658282D01*
X106962962Y-111290590D01*
X106945925Y-111227007D01*
X106880099Y-111112993D01*
X106787007Y-111019901D01*
X106672993Y-110954075D01*
X106609409Y-110937037D01*
X107279627Y-110266818D01*
X107340950Y-110233333D01*
X107367307Y-110230499D01*
X107377872Y-110230499D01*
X107437483Y-110224091D01*
X107572331Y-110173796D01*
X107687546Y-110087546D01*
X107773796Y-109972331D01*
X107824091Y-109837483D01*
X107830500Y-109777873D01*
X107830500Y-109403590D01*
X113844500Y-109403590D01*
X113844500Y-110356409D01*
X113850772Y-110436109D01*
X113898128Y-110612840D01*
X113900446Y-110621492D01*
X113987576Y-110792494D01*
X114033778Y-110849549D01*
X114108354Y-110941645D01*
X114182930Y-111002034D01*
X114257506Y-111062424D01*
X114428508Y-111149554D01*
X114613889Y-111199227D01*
X114693598Y-111205500D01*
X114693606Y-111205500D01*
X115646394Y-111205500D01*
X115646402Y-111205500D01*
X115726111Y-111199227D01*
X115911492Y-111149554D01*
X116082494Y-111062424D01*
X116231645Y-110941645D01*
X116352424Y-110792494D01*
X116418080Y-110663636D01*
X116466054Y-110612840D01*
X116533875Y-110596045D01*
X116600010Y-110618582D01*
X116628879Y-110647041D01*
X116698965Y-110743505D01*
X116846495Y-110891035D01*
X117015286Y-111013670D01*
X117103116Y-111058421D01*
X117201179Y-111108387D01*
X117201181Y-111108387D01*
X117201184Y-111108389D01*
X117300799Y-111140756D01*
X117399610Y-111172862D01*
X117605676Y-111205500D01*
X117605681Y-111205500D01*
X117814324Y-111205500D01*
X118020389Y-111172862D01*
X118092123Y-111149554D01*
X118218816Y-111108389D01*
X118404714Y-111013670D01*
X118573505Y-110891035D01*
X118721035Y-110743505D01*
X118843670Y-110574714D01*
X118869515Y-110523990D01*
X118917489Y-110473194D01*
X118985310Y-110456398D01*
X119051445Y-110478935D01*
X119090485Y-110523990D01*
X119116328Y-110574712D01*
X119177046Y-110658282D01*
X119238965Y-110743505D01*
X119386495Y-110891035D01*
X119555286Y-111013670D01*
X119643116Y-111058421D01*
X119741179Y-111108387D01*
X119741181Y-111108387D01*
X119741184Y-111108389D01*
X119840799Y-111140756D01*
X119939610Y-111172862D01*
X120145676Y-111205500D01*
X120145681Y-111205500D01*
X120354324Y-111205500D01*
X120560389Y-111172862D01*
X120632123Y-111149554D01*
X120758816Y-111108389D01*
X120944714Y-111013670D01*
X121113505Y-110891035D01*
X121261035Y-110743505D01*
X121383670Y-110574714D01*
X121478389Y-110388816D01*
X121542862Y-110190389D01*
X121552888Y-110127087D01*
X121575500Y-109984324D01*
X121575500Y-109775675D01*
X121542862Y-109569610D01*
X121478387Y-109371179D01*
X121383669Y-109185285D01*
X121352241Y-109142028D01*
X121261035Y-109016495D01*
X121113505Y-108868965D01*
X120944714Y-108746330D01*
X120758820Y-108651612D01*
X120560389Y-108587137D01*
X120354324Y-108554500D01*
X120354319Y-108554500D01*
X120145681Y-108554500D01*
X120145676Y-108554500D01*
X119939610Y-108587137D01*
X119741179Y-108651612D01*
X119555285Y-108746330D01*
X119386493Y-108868966D01*
X119238966Y-109016493D01*
X119116330Y-109185285D01*
X119090485Y-109236010D01*
X119042510Y-109286806D01*
X118974690Y-109303601D01*
X118908555Y-109281064D01*
X118869515Y-109236010D01*
X118843669Y-109185285D01*
X118812241Y-109142028D01*
X118721035Y-109016495D01*
X118573505Y-108868965D01*
X118404714Y-108746330D01*
X118218820Y-108651612D01*
X118020389Y-108587137D01*
X117814324Y-108554500D01*
X117814319Y-108554500D01*
X117605681Y-108554500D01*
X117605676Y-108554500D01*
X117399610Y-108587137D01*
X117201179Y-108651612D01*
X117015285Y-108746330D01*
X116846493Y-108868966D01*
X116698966Y-109016493D01*
X116628883Y-109112954D01*
X116573552Y-109155619D01*
X116503939Y-109161598D01*
X116442144Y-109128992D01*
X116418080Y-109096363D01*
X116352425Y-108967507D01*
X116231645Y-108818354D01*
X116134559Y-108739737D01*
X116082494Y-108697576D01*
X115911492Y-108610446D01*
X115911491Y-108610445D01*
X115911490Y-108610445D01*
X115726109Y-108560772D01*
X115646409Y-108554500D01*
X115646402Y-108554500D01*
X114693598Y-108554500D01*
X114693590Y-108554500D01*
X114613890Y-108560772D01*
X114428509Y-108610445D01*
X114257507Y-108697575D01*
X114108354Y-108818354D01*
X113987575Y-108967507D01*
X113900445Y-109138509D01*
X113850772Y-109323890D01*
X113844500Y-109403590D01*
X107830500Y-109403590D01*
X107830499Y-108868966D01*
X107830499Y-107982129D01*
X107830498Y-107982123D01*
X107830497Y-107982116D01*
X107824091Y-107922517D01*
X107822504Y-107918263D01*
X107773797Y-107787671D01*
X107773793Y-107787664D01*
X107687547Y-107672455D01*
X107687544Y-107672452D01*
X107572335Y-107586206D01*
X107572328Y-107586202D01*
X107437482Y-107535908D01*
X107437483Y-107535908D01*
X107377883Y-107529501D01*
X107377881Y-107529500D01*
X107377873Y-107529500D01*
X107377864Y-107529500D01*
X105582129Y-107529500D01*
X105582123Y-107529501D01*
X105522516Y-107535908D01*
X105387671Y-107586202D01*
X105387664Y-107586206D01*
X105272455Y-107672452D01*
X105272452Y-107672455D01*
X105186206Y-107787664D01*
X105186202Y-107787671D01*
X105135908Y-107922517D01*
X105131609Y-107962511D01*
X105129501Y-107982123D01*
X105129500Y-107982135D01*
X103770500Y-107982135D01*
X103770500Y-106527648D01*
X125839500Y-106527648D01*
X125839500Y-106732351D01*
X125871522Y-106934534D01*
X125934781Y-107129223D01*
X125968403Y-107195208D01*
X126020936Y-107298310D01*
X126027715Y-107311613D01*
X126148028Y-107477213D01*
X126292786Y-107621971D01*
X126426674Y-107719244D01*
X126458390Y-107742287D01*
X126547447Y-107787664D01*
X126551080Y-107789515D01*
X126601876Y-107837490D01*
X126618671Y-107905311D01*
X126596134Y-107971446D01*
X126551080Y-108010485D01*
X126458386Y-108057715D01*
X126292786Y-108178028D01*
X126148028Y-108322786D01*
X126027715Y-108488386D01*
X125934781Y-108670776D01*
X125871522Y-108865465D01*
X125839500Y-109067648D01*
X125839500Y-109272351D01*
X125871522Y-109474534D01*
X125934781Y-109669223D01*
X125990147Y-109777883D01*
X126020514Y-109837482D01*
X126027715Y-109851613D01*
X126148028Y-110017213D01*
X126292786Y-110161971D01*
X126447749Y-110274556D01*
X126458390Y-110282287D01*
X126549840Y-110328883D01*
X126551080Y-110329515D01*
X126601876Y-110377490D01*
X126618671Y-110445311D01*
X126596134Y-110511446D01*
X126551080Y-110550485D01*
X126458386Y-110597715D01*
X126292786Y-110718028D01*
X126148028Y-110862786D01*
X126027715Y-111028386D01*
X125934781Y-111210776D01*
X125871522Y-111405465D01*
X125839500Y-111607648D01*
X125839500Y-111812351D01*
X125871522Y-112014534D01*
X125934781Y-112209223D01*
X126027715Y-112391613D01*
X126148028Y-112557213D01*
X126292786Y-112701971D01*
X126426674Y-112799244D01*
X126458390Y-112822287D01*
X126549840Y-112868883D01*
X126551080Y-112869515D01*
X126601876Y-112917490D01*
X126618671Y-112985311D01*
X126596134Y-113051446D01*
X126551080Y-113090485D01*
X126458386Y-113137715D01*
X126292786Y-113258028D01*
X126148028Y-113402786D01*
X126027715Y-113568386D01*
X125934781Y-113750776D01*
X125871522Y-113945465D01*
X125839500Y-114147648D01*
X125839500Y-114352351D01*
X125871522Y-114554534D01*
X125934781Y-114749223D01*
X126027715Y-114931613D01*
X126148028Y-115097213D01*
X126292786Y-115241971D01*
X126426674Y-115339244D01*
X126458390Y-115362287D01*
X126574607Y-115421503D01*
X126640776Y-115455218D01*
X126640778Y-115455218D01*
X126640781Y-115455220D01*
X126730459Y-115484358D01*
X126835465Y-115518477D01*
X126936557Y-115534488D01*
X127037648Y-115550500D01*
X127037649Y-115550500D01*
X127242351Y-115550500D01*
X127242352Y-115550500D01*
X127444534Y-115518477D01*
X127639219Y-115455220D01*
X127821610Y-115362287D01*
X127914590Y-115294732D01*
X127987213Y-115241971D01*
X127987215Y-115241968D01*
X127987219Y-115241966D01*
X128131966Y-115097219D01*
X128131968Y-115097215D01*
X128131971Y-115097213D01*
X128184732Y-115024590D01*
X128252287Y-114931610D01*
X128345220Y-114749219D01*
X128408477Y-114554534D01*
X128410077Y-114544430D01*
X128428322Y-114429240D01*
X128440500Y-114352351D01*
X128440500Y-114147648D01*
X128408477Y-113945465D01*
X128368421Y-113822187D01*
X128345220Y-113750781D01*
X128345218Y-113750778D01*
X128345218Y-113750776D01*
X128295900Y-113653985D01*
X128252287Y-113568390D01*
X128236966Y-113547302D01*
X128131971Y-113402786D01*
X127987213Y-113258028D01*
X127821614Y-113137715D01*
X127815006Y-113134348D01*
X127728917Y-113090483D01*
X127678123Y-113042511D01*
X127661328Y-112974690D01*
X127683865Y-112908555D01*
X127728917Y-112869516D01*
X127821610Y-112822287D01*
X127853330Y-112799241D01*
X127987213Y-112701971D01*
X127987215Y-112701968D01*
X127987219Y-112701966D01*
X128131966Y-112557219D01*
X128131968Y-112557215D01*
X128131971Y-112557213D01*
X128184732Y-112484590D01*
X128252287Y-112391610D01*
X128345220Y-112209219D01*
X128408477Y-112014534D01*
X128440500Y-111812352D01*
X128440500Y-111607648D01*
X128408477Y-111405466D01*
X128345220Y-111210781D01*
X128345218Y-111210778D01*
X128345218Y-111210776D01*
X128295394Y-111112993D01*
X128252287Y-111028390D01*
X128241592Y-111013669D01*
X128131971Y-110862786D01*
X127987213Y-110718028D01*
X127821614Y-110597715D01*
X127776468Y-110574712D01*
X127728917Y-110550483D01*
X127678123Y-110502511D01*
X127661328Y-110434690D01*
X127683865Y-110368555D01*
X127728917Y-110329516D01*
X127821610Y-110282287D01*
X127888990Y-110233333D01*
X127987213Y-110161971D01*
X127987215Y-110161968D01*
X127987219Y-110161966D01*
X128131966Y-110017219D01*
X128131968Y-110017215D01*
X128131971Y-110017213D01*
X128211709Y-109907461D01*
X128252287Y-109851610D01*
X128345220Y-109669219D01*
X128408477Y-109474534D01*
X128440500Y-109272352D01*
X128440500Y-109067648D01*
X128415213Y-108907996D01*
X128408477Y-108865465D01*
X128367625Y-108739737D01*
X128345220Y-108670781D01*
X128345218Y-108670778D01*
X128345218Y-108670776D01*
X128309444Y-108600566D01*
X128252287Y-108488390D01*
X128240525Y-108472201D01*
X128131971Y-108322786D01*
X127987213Y-108178028D01*
X127821614Y-108057715D01*
X127815006Y-108054348D01*
X127728917Y-108010483D01*
X127678123Y-107962511D01*
X127661328Y-107894690D01*
X127683865Y-107828555D01*
X127728917Y-107789516D01*
X127821610Y-107742287D01*
X127853330Y-107719241D01*
X127987213Y-107621971D01*
X127987215Y-107621968D01*
X127987219Y-107621966D01*
X128131966Y-107477219D01*
X128131968Y-107477215D01*
X128131971Y-107477213D01*
X128184732Y-107404590D01*
X128252287Y-107311610D01*
X128345220Y-107129219D01*
X128408477Y-106934534D01*
X128440500Y-106732352D01*
X128440500Y-106527648D01*
X133459500Y-106527648D01*
X133459500Y-106732351D01*
X133491522Y-106934534D01*
X133554781Y-107129223D01*
X133588403Y-107195208D01*
X133640936Y-107298310D01*
X133647715Y-107311613D01*
X133768028Y-107477213D01*
X133912786Y-107621971D01*
X134046674Y-107719244D01*
X134078390Y-107742287D01*
X134167447Y-107787664D01*
X134171080Y-107789515D01*
X134221876Y-107837490D01*
X134238671Y-107905311D01*
X134216134Y-107971446D01*
X134171080Y-108010485D01*
X134078386Y-108057715D01*
X133912786Y-108178028D01*
X133768028Y-108322786D01*
X133647715Y-108488386D01*
X133554781Y-108670776D01*
X133491522Y-108865465D01*
X133459500Y-109067648D01*
X133459500Y-109272351D01*
X133491522Y-109474534D01*
X133554781Y-109669223D01*
X133610147Y-109777883D01*
X133640514Y-109837482D01*
X133647715Y-109851613D01*
X133768028Y-110017213D01*
X133912786Y-110161971D01*
X134067749Y-110274556D01*
X134078390Y-110282287D01*
X134169840Y-110328883D01*
X134171080Y-110329515D01*
X134221876Y-110377490D01*
X134238671Y-110445311D01*
X134216134Y-110511446D01*
X134171080Y-110550485D01*
X134078386Y-110597715D01*
X133912786Y-110718028D01*
X133768028Y-110862786D01*
X133647715Y-111028386D01*
X133554781Y-111210776D01*
X133491522Y-111405465D01*
X133459500Y-111607648D01*
X133459500Y-111812351D01*
X133491522Y-112014534D01*
X133554781Y-112209223D01*
X133647715Y-112391613D01*
X133768028Y-112557213D01*
X133912782Y-112701967D01*
X133912787Y-112701971D01*
X134006948Y-112770383D01*
X134049614Y-112825713D01*
X134055593Y-112895326D01*
X134022988Y-112957121D01*
X133973068Y-112988407D01*
X133890878Y-113015642D01*
X133890875Y-113015643D01*
X133741654Y-113107684D01*
X133617684Y-113231654D01*
X133525643Y-113380875D01*
X133525641Y-113380880D01*
X133470494Y-113547302D01*
X133470493Y-113547309D01*
X133460000Y-113650013D01*
X133460000Y-114000000D01*
X134444314Y-114000000D01*
X134439920Y-114004394D01*
X134387259Y-114095606D01*
X134360000Y-114197339D01*
X134360000Y-114302661D01*
X134387259Y-114404394D01*
X134439920Y-114495606D01*
X134444314Y-114500000D01*
X133460001Y-114500000D01*
X133460001Y-114849986D01*
X133470494Y-114952697D01*
X133525641Y-115119119D01*
X133525643Y-115119124D01*
X133617684Y-115268345D01*
X133741654Y-115392315D01*
X133890875Y-115484356D01*
X133890880Y-115484358D01*
X134057302Y-115539505D01*
X134057309Y-115539506D01*
X134160019Y-115549999D01*
X134509999Y-115549999D01*
X134510000Y-115549998D01*
X134510000Y-114565686D01*
X134514394Y-114570080D01*
X134605606Y-114622741D01*
X134707339Y-114650000D01*
X134812661Y-114650000D01*
X134914394Y-114622741D01*
X135005606Y-114570080D01*
X135010000Y-114565686D01*
X135010000Y-115549999D01*
X135359972Y-115549999D01*
X135359986Y-115549998D01*
X135462697Y-115539505D01*
X135629119Y-115484358D01*
X135629124Y-115484356D01*
X135778345Y-115392315D01*
X135902315Y-115268345D01*
X135994356Y-115119124D01*
X135994358Y-115119119D01*
X136049505Y-114952697D01*
X136049506Y-114952690D01*
X136059999Y-114849986D01*
X136060000Y-114849973D01*
X136060000Y-114500000D01*
X135075686Y-114500000D01*
X135080080Y-114495606D01*
X135132741Y-114404394D01*
X135160000Y-114302661D01*
X135160000Y-114197339D01*
X135132741Y-114095606D01*
X135080080Y-114004394D01*
X135075686Y-114000000D01*
X136059999Y-114000000D01*
X136059999Y-113650028D01*
X136059998Y-113650013D01*
X136049505Y-113547302D01*
X135994358Y-113380880D01*
X135994356Y-113380875D01*
X135902315Y-113231654D01*
X135820329Y-113149668D01*
X138042300Y-113149668D01*
X138042300Y-113330331D01*
X138070559Y-113508750D01*
X138126386Y-113680566D01*
X138208401Y-113841529D01*
X138219558Y-113856886D01*
X138219559Y-113856886D01*
X138796300Y-113280145D01*
X138796300Y-113291832D01*
X138823130Y-113391962D01*
X138874962Y-113481737D01*
X138948263Y-113555038D01*
X139038038Y-113606870D01*
X139138168Y-113633700D01*
X139149853Y-113633700D01*
X138573112Y-114210438D01*
X138573112Y-114210439D01*
X138588477Y-114221602D01*
X138749433Y-114303613D01*
X138921249Y-114359440D01*
X139087340Y-114385747D01*
X139292659Y-114385747D01*
X139458750Y-114359440D01*
X139630566Y-114303613D01*
X139791528Y-114221599D01*
X139791532Y-114221597D01*
X139806886Y-114210440D01*
X139806887Y-114210439D01*
X139230148Y-113633700D01*
X139241832Y-113633700D01*
X139341962Y-113606870D01*
X139431737Y-113555038D01*
X139505038Y-113481737D01*
X139556870Y-113391962D01*
X139583700Y-113291832D01*
X139583700Y-113280147D01*
X140160440Y-113856887D01*
X140160440Y-113856886D01*
X140171597Y-113841532D01*
X140171599Y-113841528D01*
X140253613Y-113680566D01*
X140309440Y-113508750D01*
X140337700Y-113330331D01*
X140337700Y-113149668D01*
X140337695Y-113149635D01*
X145661800Y-113149635D01*
X145661800Y-113330364D01*
X145690053Y-113508750D01*
X145690073Y-113508871D01*
X145745922Y-113680756D01*
X145827840Y-113841529D01*
X145827974Y-113841791D01*
X145934196Y-113987996D01*
X146062003Y-114115803D01*
X146174230Y-114197339D01*
X146208212Y-114222028D01*
X146369244Y-114304078D01*
X146541129Y-114359927D01*
X146701502Y-114385327D01*
X146764634Y-114415256D01*
X146801566Y-114474567D01*
X146800568Y-114544430D01*
X146761959Y-114602663D01*
X146697995Y-114630777D01*
X146682102Y-114631800D01*
X146114429Y-114631800D01*
X146114423Y-114631801D01*
X146054816Y-114638208D01*
X145919971Y-114688502D01*
X145919964Y-114688506D01*
X145804755Y-114774752D01*
X145804752Y-114774755D01*
X145718506Y-114889964D01*
X145718502Y-114889971D01*
X145668208Y-115024817D01*
X145661801Y-115084416D01*
X145661801Y-115084423D01*
X145661800Y-115084435D01*
X145661800Y-116475570D01*
X145661801Y-116475576D01*
X145668208Y-116535183D01*
X145718502Y-116670028D01*
X145718506Y-116670035D01*
X145804752Y-116785244D01*
X145804755Y-116785247D01*
X145919964Y-116871493D01*
X145919971Y-116871497D01*
X146054817Y-116921791D01*
X146054816Y-116921791D01*
X146061744Y-116922535D01*
X146114427Y-116928200D01*
X147505572Y-116928199D01*
X147565183Y-116921791D01*
X147700031Y-116871496D01*
X147815246Y-116785246D01*
X147901496Y-116670031D01*
X147951791Y-116535183D01*
X147958200Y-116475573D01*
X147958199Y-115084428D01*
X147952999Y-115036057D01*
X147951791Y-115024816D01*
X147901497Y-114889971D01*
X147901493Y-114889964D01*
X147815247Y-114774755D01*
X147815244Y-114774752D01*
X147700035Y-114688506D01*
X147700028Y-114688502D01*
X147565182Y-114638208D01*
X147565183Y-114638208D01*
X147505583Y-114631801D01*
X147505581Y-114631800D01*
X147505573Y-114631800D01*
X147505565Y-114631800D01*
X146937898Y-114631800D01*
X146870859Y-114612115D01*
X146825104Y-114559311D01*
X146815160Y-114490153D01*
X146844185Y-114426597D01*
X146902963Y-114388823D01*
X146918490Y-114385329D01*
X147078871Y-114359927D01*
X147250756Y-114304078D01*
X147411788Y-114222028D01*
X147514164Y-114147648D01*
X147557996Y-114115803D01*
X147557998Y-114115800D01*
X147558002Y-114115798D01*
X147685798Y-113988002D01*
X147685800Y-113987998D01*
X147685803Y-113987996D01*
X147732385Y-113923879D01*
X147792028Y-113841788D01*
X147874078Y-113680756D01*
X147929927Y-113508871D01*
X147958200Y-113330365D01*
X147958200Y-113149635D01*
X147929927Y-112971129D01*
X147874078Y-112799244D01*
X147792028Y-112638212D01*
X147745829Y-112574624D01*
X147685803Y-112492003D01*
X147557996Y-112364196D01*
X147411791Y-112257974D01*
X147411790Y-112257973D01*
X147411788Y-112257972D01*
X147250756Y-112175922D01*
X147078871Y-112120073D01*
X147078869Y-112120072D01*
X147078867Y-112120072D01*
X146965420Y-112102103D01*
X146900365Y-112091800D01*
X146719635Y-112091800D01*
X146705745Y-112094000D01*
X146541132Y-112120072D01*
X146369241Y-112175923D01*
X146208208Y-112257974D01*
X146062003Y-112364196D01*
X145934196Y-112492003D01*
X145827974Y-112638208D01*
X145745923Y-112799241D01*
X145690072Y-112971132D01*
X145661800Y-113149635D01*
X140337695Y-113149635D01*
X140309440Y-112971249D01*
X140253613Y-112799433D01*
X140171602Y-112638477D01*
X140160439Y-112623112D01*
X139583700Y-113199851D01*
X139583700Y-113188168D01*
X139556870Y-113088038D01*
X139505038Y-112998263D01*
X139431737Y-112924962D01*
X139341962Y-112873130D01*
X139241832Y-112846300D01*
X139230147Y-112846300D01*
X139806886Y-112269559D01*
X139806886Y-112269558D01*
X139791529Y-112258401D01*
X139630566Y-112176386D01*
X139458750Y-112120559D01*
X139458752Y-112120559D01*
X139292658Y-112094252D01*
X139087341Y-112094252D01*
X138921248Y-112120559D01*
X138749433Y-112176386D01*
X138588476Y-112258397D01*
X138588472Y-112258400D01*
X138573112Y-112269558D01*
X138573112Y-112269559D01*
X139149854Y-112846300D01*
X139138168Y-112846300D01*
X139038038Y-112873130D01*
X138948263Y-112924962D01*
X138874962Y-112998263D01*
X138823130Y-113088038D01*
X138796300Y-113188168D01*
X138796300Y-113199853D01*
X138219559Y-112623112D01*
X138219558Y-112623112D01*
X138208400Y-112638472D01*
X138208397Y-112638476D01*
X138126386Y-112799433D01*
X138070559Y-112971249D01*
X138042300Y-113149668D01*
X135820329Y-113149668D01*
X135778345Y-113107684D01*
X135629124Y-113015643D01*
X135629119Y-113015641D01*
X135546931Y-112988407D01*
X135489486Y-112948634D01*
X135462663Y-112884119D01*
X135474978Y-112815343D01*
X135513049Y-112770383D01*
X135607219Y-112701966D01*
X135751966Y-112557219D01*
X135751968Y-112557215D01*
X135751971Y-112557213D01*
X135804732Y-112484590D01*
X135872287Y-112391610D01*
X135965220Y-112209219D01*
X136028477Y-112014534D01*
X136060500Y-111812352D01*
X136060500Y-111607648D01*
X136028477Y-111405466D01*
X135965220Y-111210781D01*
X135965218Y-111210778D01*
X135965218Y-111210776D01*
X135915394Y-111112993D01*
X135872287Y-111028390D01*
X135861592Y-111013669D01*
X135751971Y-110862786D01*
X135607213Y-110718028D01*
X135441614Y-110597715D01*
X135396468Y-110574712D01*
X135348917Y-110550483D01*
X135298123Y-110502511D01*
X135281328Y-110434690D01*
X135303865Y-110368555D01*
X135348917Y-110329516D01*
X135441610Y-110282287D01*
X135508990Y-110233333D01*
X135607213Y-110161971D01*
X135607215Y-110161968D01*
X135607219Y-110161966D01*
X135751966Y-110017219D01*
X135751968Y-110017215D01*
X135751971Y-110017213D01*
X135872284Y-109851614D01*
X135872285Y-109851613D01*
X135872287Y-109851610D01*
X135879117Y-109838204D01*
X135927091Y-109787409D01*
X135989602Y-109770500D01*
X137359903Y-109770500D01*
X137426942Y-109790185D01*
X137447584Y-109806819D01*
X138025645Y-110384880D01*
X138059130Y-110446203D01*
X138060438Y-110491958D01*
X138057352Y-110511446D01*
X138041800Y-110609635D01*
X138041800Y-110609640D01*
X138041800Y-110790364D01*
X138067729Y-110954075D01*
X138070073Y-110968871D01*
X138125922Y-111140756D01*
X138196563Y-111279397D01*
X138207974Y-111301791D01*
X138314196Y-111447996D01*
X138442003Y-111575803D01*
X138578817Y-111675202D01*
X138588212Y-111682028D01*
X138749244Y-111764078D01*
X138921129Y-111819927D01*
X139099635Y-111848200D01*
X139280365Y-111848200D01*
X139458871Y-111819927D01*
X139630756Y-111764078D01*
X139791788Y-111682028D01*
X139894164Y-111607648D01*
X139937996Y-111575803D01*
X139937998Y-111575800D01*
X139938002Y-111575798D01*
X140065798Y-111448002D01*
X140065800Y-111447998D01*
X140065803Y-111447996D01*
X140122107Y-111370499D01*
X140172028Y-111301788D01*
X140254078Y-111140756D01*
X140309927Y-110968871D01*
X140338200Y-110790365D01*
X140338200Y-110609635D01*
X145661800Y-110609635D01*
X145661800Y-110790364D01*
X145687729Y-110954075D01*
X145690073Y-110968871D01*
X145745922Y-111140756D01*
X145816563Y-111279397D01*
X145827974Y-111301791D01*
X145934196Y-111447996D01*
X146062003Y-111575803D01*
X146198817Y-111675202D01*
X146208212Y-111682028D01*
X146369244Y-111764078D01*
X146541129Y-111819927D01*
X146719635Y-111848200D01*
X146900365Y-111848200D01*
X147078871Y-111819927D01*
X147250756Y-111764078D01*
X147411788Y-111682028D01*
X147514164Y-111607648D01*
X147557996Y-111575803D01*
X147557998Y-111575800D01*
X147558002Y-111575798D01*
X147685798Y-111448002D01*
X147685800Y-111447998D01*
X147685803Y-111447996D01*
X147742107Y-111370499D01*
X147792028Y-111301788D01*
X147874078Y-111140756D01*
X147929927Y-110968871D01*
X147958200Y-110790365D01*
X147958200Y-110609635D01*
X147929927Y-110431129D01*
X147874078Y-110259244D01*
X147792028Y-110098212D01*
X147733184Y-110017219D01*
X147685803Y-109952003D01*
X147557996Y-109824196D01*
X147411791Y-109717974D01*
X147411790Y-109717973D01*
X147411788Y-109717972D01*
X147250756Y-109635922D01*
X147078871Y-109580073D01*
X147078869Y-109580072D01*
X147078867Y-109580072D01*
X146965420Y-109562103D01*
X146900365Y-109551800D01*
X146719635Y-109551800D01*
X146705745Y-109554000D01*
X146541132Y-109580072D01*
X146369241Y-109635923D01*
X146208208Y-109717974D01*
X146062003Y-109824196D01*
X145934196Y-109952003D01*
X145827974Y-110098208D01*
X145745923Y-110259241D01*
X145690072Y-110431132D01*
X145661800Y-110609635D01*
X140338200Y-110609635D01*
X140309927Y-110431129D01*
X140254078Y-110259244D01*
X140172028Y-110098212D01*
X140113184Y-110017219D01*
X140065803Y-109952003D01*
X139937996Y-109824196D01*
X139791791Y-109717974D01*
X139791790Y-109717973D01*
X139791788Y-109717972D01*
X139630756Y-109635922D01*
X139458871Y-109580073D01*
X139458869Y-109580072D01*
X139458867Y-109580072D01*
X139283018Y-109552220D01*
X139219883Y-109522291D01*
X139182952Y-109462979D01*
X139183950Y-109393116D01*
X139222560Y-109334884D01*
X139283018Y-109307274D01*
X139458750Y-109279440D01*
X139630566Y-109223613D01*
X139791528Y-109141599D01*
X139791532Y-109141597D01*
X139806886Y-109130440D01*
X139806887Y-109130440D01*
X139230146Y-108553700D01*
X139241832Y-108553700D01*
X139341962Y-108526870D01*
X139431737Y-108475038D01*
X139505038Y-108401737D01*
X139556870Y-108311962D01*
X139583700Y-108211832D01*
X139583700Y-108200147D01*
X140160440Y-108776887D01*
X140160440Y-108776886D01*
X140171597Y-108761532D01*
X140171599Y-108761528D01*
X140253613Y-108600566D01*
X140309440Y-108428750D01*
X140337700Y-108250331D01*
X140337700Y-108069668D01*
X140337695Y-108069635D01*
X145661800Y-108069635D01*
X145661800Y-108250364D01*
X145690053Y-108428750D01*
X145690073Y-108428871D01*
X145745922Y-108600756D01*
X145816736Y-108739737D01*
X145827974Y-108761791D01*
X145934196Y-108907996D01*
X146062003Y-109035803D01*
X146190269Y-109128992D01*
X146208212Y-109142028D01*
X146369244Y-109224078D01*
X146541129Y-109279927D01*
X146719635Y-109308200D01*
X146900365Y-109308200D01*
X147078871Y-109279927D01*
X147250756Y-109224078D01*
X147411788Y-109142028D01*
X147514164Y-109067648D01*
X147557996Y-109035803D01*
X147557998Y-109035800D01*
X147558002Y-109035798D01*
X147685798Y-108908002D01*
X147685800Y-108907998D01*
X147685803Y-108907996D01*
X147750930Y-108818355D01*
X147792028Y-108761788D01*
X147874078Y-108600756D01*
X147929927Y-108428871D01*
X147958200Y-108250365D01*
X147958200Y-108069635D01*
X147929927Y-107891129D01*
X147874078Y-107719244D01*
X147792028Y-107558212D01*
X147775823Y-107535908D01*
X147685803Y-107412003D01*
X147557996Y-107284196D01*
X147411791Y-107177974D01*
X147411790Y-107177973D01*
X147411788Y-107177972D01*
X147250756Y-107095922D01*
X147078871Y-107040073D01*
X147078869Y-107040072D01*
X147078867Y-107040072D01*
X146965420Y-107022103D01*
X146900365Y-107011800D01*
X146719635Y-107011800D01*
X146705745Y-107014000D01*
X146541132Y-107040072D01*
X146369241Y-107095923D01*
X146208208Y-107177974D01*
X146062003Y-107284196D01*
X145934196Y-107412003D01*
X145827974Y-107558208D01*
X145745923Y-107719241D01*
X145690072Y-107891132D01*
X145661800Y-108069635D01*
X140337695Y-108069635D01*
X140309440Y-107891249D01*
X140253613Y-107719433D01*
X140171602Y-107558477D01*
X140160439Y-107543112D01*
X139583700Y-108119851D01*
X139583700Y-108108168D01*
X139556870Y-108008038D01*
X139505038Y-107918263D01*
X139431737Y-107844962D01*
X139341962Y-107793130D01*
X139241832Y-107766300D01*
X139230147Y-107766300D01*
X139806886Y-107189559D01*
X139806886Y-107189558D01*
X139791529Y-107178401D01*
X139630566Y-107096386D01*
X139458750Y-107040559D01*
X139458752Y-107040559D01*
X139292658Y-107014252D01*
X139087341Y-107014252D01*
X138921248Y-107040559D01*
X138749433Y-107096386D01*
X138588476Y-107178397D01*
X138588472Y-107178400D01*
X138573112Y-107189558D01*
X138573112Y-107189559D01*
X139149854Y-107766300D01*
X139138168Y-107766300D01*
X139038038Y-107793130D01*
X138948263Y-107844962D01*
X138874962Y-107918263D01*
X138823130Y-108008038D01*
X138796300Y-108108168D01*
X138796300Y-108119853D01*
X138219559Y-107543112D01*
X138219558Y-107543112D01*
X138208400Y-107558472D01*
X138208397Y-107558476D01*
X138126386Y-107719433D01*
X138070559Y-107891249D01*
X138042300Y-108069668D01*
X138042300Y-108250331D01*
X138070559Y-108428750D01*
X138070559Y-108428751D01*
X138084677Y-108472201D01*
X138086672Y-108542042D01*
X138050591Y-108601875D01*
X137987890Y-108632703D01*
X137918476Y-108624738D01*
X137904749Y-108617908D01*
X137891785Y-108610423D01*
X137739057Y-108569499D01*
X137580943Y-108569499D01*
X137573347Y-108569499D01*
X137573331Y-108569500D01*
X135989602Y-108569500D01*
X135922563Y-108549815D01*
X135879117Y-108501795D01*
X135872284Y-108488385D01*
X135751971Y-108322786D01*
X135607213Y-108178028D01*
X135441614Y-108057715D01*
X135435006Y-108054348D01*
X135348917Y-108010483D01*
X135298123Y-107962511D01*
X135281328Y-107894690D01*
X135303865Y-107828555D01*
X135348917Y-107789516D01*
X135441610Y-107742287D01*
X135473330Y-107719241D01*
X135607213Y-107621971D01*
X135607215Y-107621968D01*
X135607219Y-107621966D01*
X135751966Y-107477219D01*
X135751968Y-107477215D01*
X135751971Y-107477213D01*
X135804732Y-107404590D01*
X135872287Y-107311610D01*
X135965220Y-107129219D01*
X136028477Y-106934534D01*
X136060500Y-106732352D01*
X136060500Y-106527648D01*
X136038416Y-106388215D01*
X136028477Y-106325465D01*
X135968046Y-106139480D01*
X135965220Y-106130781D01*
X135965218Y-106130778D01*
X135965218Y-106130776D01*
X135901648Y-106006015D01*
X135872287Y-105948390D01*
X135835346Y-105897544D01*
X135751971Y-105782786D01*
X135607213Y-105638028D01*
X135458020Y-105529635D01*
X138041800Y-105529635D01*
X138041800Y-105710364D01*
X138055813Y-105798842D01*
X138070073Y-105888871D01*
X138119340Y-106040500D01*
X138125923Y-106060758D01*
X138207974Y-106221791D01*
X138314196Y-106367996D01*
X138442003Y-106495803D01*
X138578817Y-106595202D01*
X138588212Y-106602028D01*
X138749244Y-106684078D01*
X138921129Y-106739927D01*
X139099635Y-106768200D01*
X139280365Y-106768200D01*
X139458871Y-106739927D01*
X139630756Y-106684078D01*
X139791788Y-106602028D01*
X139894164Y-106527648D01*
X139937996Y-106495803D01*
X139937998Y-106495800D01*
X139938002Y-106495798D01*
X140065798Y-106368002D01*
X140065800Y-106367998D01*
X140065803Y-106367996D01*
X140150598Y-106251284D01*
X140172028Y-106221788D01*
X140254078Y-106060756D01*
X140309927Y-105888871D01*
X140338200Y-105710365D01*
X140338200Y-105529635D01*
X145661800Y-105529635D01*
X145661800Y-105710364D01*
X145675813Y-105798842D01*
X145690073Y-105888871D01*
X145739340Y-106040500D01*
X145745923Y-106060758D01*
X145827974Y-106221791D01*
X145934196Y-106367996D01*
X146062003Y-106495803D01*
X146198817Y-106595202D01*
X146208212Y-106602028D01*
X146369244Y-106684078D01*
X146541129Y-106739927D01*
X146719635Y-106768200D01*
X146900365Y-106768200D01*
X147078871Y-106739927D01*
X147250756Y-106684078D01*
X147411788Y-106602028D01*
X147514164Y-106527648D01*
X147557996Y-106495803D01*
X147557998Y-106495800D01*
X147558002Y-106495798D01*
X147685798Y-106368002D01*
X147685800Y-106367998D01*
X147685803Y-106367996D01*
X147770598Y-106251284D01*
X147792028Y-106221788D01*
X147874078Y-106060756D01*
X147929927Y-105888871D01*
X147958200Y-105710365D01*
X147958200Y-105529635D01*
X147929927Y-105351129D01*
X147874078Y-105179244D01*
X147792028Y-105018212D01*
X147785202Y-105008817D01*
X147685803Y-104872003D01*
X147557996Y-104744196D01*
X147411791Y-104637974D01*
X147411790Y-104637973D01*
X147411788Y-104637972D01*
X147250756Y-104555922D01*
X147078871Y-104500073D01*
X147078869Y-104500072D01*
X147078867Y-104500072D01*
X146944838Y-104478844D01*
X146900365Y-104471800D01*
X146719635Y-104471800D01*
X146705745Y-104474000D01*
X146541132Y-104500072D01*
X146369241Y-104555923D01*
X146208208Y-104637974D01*
X146062003Y-104744196D01*
X145934196Y-104872003D01*
X145827974Y-105018208D01*
X145745923Y-105179241D01*
X145745922Y-105179243D01*
X145745922Y-105179244D01*
X145736024Y-105209707D01*
X145690072Y-105351132D01*
X145661800Y-105529635D01*
X140338200Y-105529635D01*
X140309927Y-105351129D01*
X140254078Y-105179244D01*
X140172028Y-105018212D01*
X140165202Y-105008817D01*
X140065803Y-104872003D01*
X139937996Y-104744196D01*
X139791791Y-104637974D01*
X139791790Y-104637973D01*
X139791788Y-104637972D01*
X139630756Y-104555922D01*
X139458871Y-104500073D01*
X139458869Y-104500072D01*
X139458867Y-104500072D01*
X139324838Y-104478844D01*
X139280365Y-104471800D01*
X139099635Y-104471800D01*
X139085745Y-104474000D01*
X138921132Y-104500072D01*
X138749241Y-104555923D01*
X138588208Y-104637974D01*
X138442003Y-104744196D01*
X138314196Y-104872003D01*
X138207974Y-105018208D01*
X138125923Y-105179241D01*
X138125922Y-105179243D01*
X138125922Y-105179244D01*
X138116024Y-105209707D01*
X138070072Y-105351132D01*
X138041800Y-105529635D01*
X135458020Y-105529635D01*
X135441613Y-105517715D01*
X135441612Y-105517714D01*
X135441610Y-105517713D01*
X135380347Y-105486498D01*
X135259223Y-105424781D01*
X135064534Y-105361522D01*
X134889995Y-105333878D01*
X134862352Y-105329500D01*
X134657648Y-105329500D01*
X134633329Y-105333351D01*
X134455465Y-105361522D01*
X134260776Y-105424781D01*
X134078386Y-105517715D01*
X133912786Y-105638028D01*
X133768028Y-105782786D01*
X133647715Y-105948386D01*
X133554781Y-106130776D01*
X133491522Y-106325465D01*
X133459500Y-106527648D01*
X128440500Y-106527648D01*
X128418416Y-106388215D01*
X128408477Y-106325465D01*
X128348046Y-106139480D01*
X128345220Y-106130781D01*
X128345218Y-106130778D01*
X128345218Y-106130776D01*
X128281648Y-106006015D01*
X128252287Y-105948390D01*
X128215346Y-105897544D01*
X128131971Y-105782786D01*
X127987213Y-105638028D01*
X127821613Y-105517715D01*
X127821612Y-105517714D01*
X127821610Y-105517713D01*
X127760347Y-105486498D01*
X127639223Y-105424781D01*
X127444534Y-105361522D01*
X127269995Y-105333878D01*
X127242352Y-105329500D01*
X127037648Y-105329500D01*
X127013329Y-105333351D01*
X126835465Y-105361522D01*
X126640776Y-105424781D01*
X126458386Y-105517715D01*
X126292786Y-105638028D01*
X126148028Y-105782786D01*
X126027715Y-105948386D01*
X125934781Y-106130776D01*
X125871522Y-106325465D01*
X125839500Y-106527648D01*
X103770500Y-106527648D01*
X103770500Y-102947648D01*
X105849500Y-102947648D01*
X105849500Y-103152351D01*
X105881522Y-103354534D01*
X105944781Y-103549223D01*
X106008691Y-103674653D01*
X106035688Y-103727636D01*
X106037715Y-103731613D01*
X106158028Y-103897213D01*
X106302786Y-104041971D01*
X106448432Y-104147787D01*
X106468390Y-104162287D01*
X106542263Y-104199927D01*
X106650776Y-104255218D01*
X106650778Y-104255218D01*
X106650781Y-104255220D01*
X106755137Y-104289127D01*
X106845465Y-104318477D01*
X106946557Y-104334488D01*
X107047648Y-104350500D01*
X107047649Y-104350500D01*
X107252351Y-104350500D01*
X107252352Y-104350500D01*
X107454534Y-104318477D01*
X107649219Y-104255220D01*
X107831610Y-104162287D01*
X107939530Y-104083879D01*
X107997213Y-104041971D01*
X107997215Y-104041968D01*
X107997219Y-104041966D01*
X108141966Y-103897219D01*
X108141968Y-103897215D01*
X108141971Y-103897213D01*
X108197898Y-103820234D01*
X108262287Y-103731610D01*
X108355220Y-103549219D01*
X108418477Y-103354534D01*
X108450500Y-103152352D01*
X108450500Y-102947648D01*
X113469500Y-102947648D01*
X113469500Y-103152351D01*
X113501522Y-103354534D01*
X113564781Y-103549223D01*
X113628691Y-103674653D01*
X113655688Y-103727636D01*
X113657715Y-103731613D01*
X113778028Y-103897213D01*
X113922786Y-104041971D01*
X114068432Y-104147787D01*
X114088390Y-104162287D01*
X114162263Y-104199927D01*
X114270776Y-104255218D01*
X114270778Y-104255218D01*
X114270781Y-104255220D01*
X114375137Y-104289127D01*
X114465465Y-104318477D01*
X114566557Y-104334488D01*
X114667648Y-104350500D01*
X114667649Y-104350500D01*
X114872351Y-104350500D01*
X114872352Y-104350500D01*
X115074534Y-104318477D01*
X115269219Y-104255220D01*
X115451610Y-104162287D01*
X115559530Y-104083879D01*
X115617213Y-104041971D01*
X115617215Y-104041968D01*
X115617219Y-104041966D01*
X115761966Y-103897219D01*
X115761968Y-103897215D01*
X115761971Y-103897213D01*
X115817898Y-103820234D01*
X115882287Y-103731610D01*
X115975220Y-103549219D01*
X116038477Y-103354534D01*
X116070500Y-103152352D01*
X116070500Y-102989635D01*
X138041800Y-102989635D01*
X138041800Y-103170365D01*
X138045027Y-103190737D01*
X138063833Y-103309478D01*
X138070073Y-103348871D01*
X138125922Y-103520756D01*
X138195816Y-103657931D01*
X138207974Y-103681791D01*
X138314196Y-103827996D01*
X138442003Y-103955803D01*
X138565305Y-104045385D01*
X138588212Y-104062028D01*
X138749244Y-104144078D01*
X138921129Y-104199927D01*
X139099635Y-104228200D01*
X139280365Y-104228200D01*
X139458871Y-104199927D01*
X139630756Y-104144078D01*
X139791788Y-104062028D01*
X139884290Y-103994822D01*
X139937996Y-103955803D01*
X139937998Y-103955800D01*
X139938002Y-103955798D01*
X140065798Y-103828002D01*
X140065800Y-103827998D01*
X140065803Y-103827996D01*
X140138714Y-103727641D01*
X140172028Y-103681788D01*
X140254078Y-103520756D01*
X140309927Y-103348871D01*
X140338200Y-103170365D01*
X140338200Y-102989635D01*
X145661800Y-102989635D01*
X145661800Y-103170365D01*
X145665027Y-103190737D01*
X145683833Y-103309478D01*
X145690073Y-103348871D01*
X145745922Y-103520756D01*
X145815816Y-103657931D01*
X145827974Y-103681791D01*
X145934196Y-103827996D01*
X146062003Y-103955803D01*
X146185305Y-104045385D01*
X146208212Y-104062028D01*
X146369244Y-104144078D01*
X146541129Y-104199927D01*
X146719635Y-104228200D01*
X146900365Y-104228200D01*
X147078871Y-104199927D01*
X147250756Y-104144078D01*
X147411788Y-104062028D01*
X147504290Y-103994822D01*
X147557996Y-103955803D01*
X147557998Y-103955800D01*
X147558002Y-103955798D01*
X147685798Y-103828002D01*
X147685800Y-103827998D01*
X147685803Y-103827996D01*
X147758714Y-103727641D01*
X147792028Y-103681788D01*
X147874078Y-103520756D01*
X147929927Y-103348871D01*
X147958200Y-103170365D01*
X147958200Y-102989635D01*
X147929927Y-102811129D01*
X147874078Y-102639244D01*
X147792028Y-102478212D01*
X147778433Y-102459500D01*
X147685803Y-102332003D01*
X147557996Y-102204196D01*
X147411791Y-102097974D01*
X147411790Y-102097973D01*
X147411788Y-102097972D01*
X147250756Y-102015922D01*
X147078871Y-101960073D01*
X147078869Y-101960072D01*
X147078867Y-101960072D01*
X146937710Y-101937715D01*
X146900365Y-101931800D01*
X146719635Y-101931800D01*
X146705745Y-101934000D01*
X146541132Y-101960072D01*
X146369241Y-102015923D01*
X146208208Y-102097974D01*
X146062003Y-102204196D01*
X145934196Y-102332003D01*
X145827974Y-102478208D01*
X145745923Y-102639241D01*
X145745922Y-102639243D01*
X145745922Y-102639244D01*
X145726977Y-102697551D01*
X145690072Y-102811132D01*
X145668450Y-102947648D01*
X145661800Y-102989635D01*
X140338200Y-102989635D01*
X140309927Y-102811129D01*
X140254078Y-102639244D01*
X140172028Y-102478212D01*
X140158433Y-102459500D01*
X140065803Y-102332003D01*
X139937996Y-102204196D01*
X139791791Y-102097974D01*
X139791790Y-102097973D01*
X139791788Y-102097972D01*
X139630756Y-102015922D01*
X139458871Y-101960073D01*
X139458869Y-101960072D01*
X139458867Y-101960072D01*
X139317710Y-101937715D01*
X139280365Y-101931800D01*
X139099635Y-101931800D01*
X139085745Y-101934000D01*
X138921132Y-101960072D01*
X138749241Y-102015923D01*
X138588208Y-102097974D01*
X138442003Y-102204196D01*
X138314196Y-102332003D01*
X138207974Y-102478208D01*
X138125923Y-102639241D01*
X138125922Y-102639243D01*
X138125922Y-102639244D01*
X138106977Y-102697551D01*
X138070072Y-102811132D01*
X138048450Y-102947648D01*
X138041800Y-102989635D01*
X116070500Y-102989635D01*
X116070500Y-102947648D01*
X116059916Y-102880827D01*
X116038477Y-102745465D01*
X116003627Y-102638210D01*
X115975220Y-102550781D01*
X115975218Y-102550778D01*
X115975218Y-102550776D01*
X115918506Y-102439474D01*
X115882287Y-102368390D01*
X115855847Y-102331998D01*
X115761971Y-102202786D01*
X115617213Y-102058028D01*
X115451613Y-101937715D01*
X115451612Y-101937714D01*
X115451610Y-101937713D01*
X115351119Y-101886510D01*
X115269223Y-101844781D01*
X115074534Y-101781522D01*
X114899995Y-101753878D01*
X114872352Y-101749500D01*
X114667648Y-101749500D01*
X114643329Y-101753351D01*
X114465465Y-101781522D01*
X114270776Y-101844781D01*
X114088386Y-101937715D01*
X113922786Y-102058028D01*
X113778028Y-102202786D01*
X113657715Y-102368386D01*
X113564781Y-102550776D01*
X113501522Y-102745465D01*
X113469500Y-102947648D01*
X108450500Y-102947648D01*
X108439916Y-102880827D01*
X108418477Y-102745465D01*
X108383627Y-102638210D01*
X108355220Y-102550781D01*
X108355218Y-102550778D01*
X108355218Y-102550776D01*
X108298506Y-102439474D01*
X108262287Y-102368390D01*
X108235847Y-102331998D01*
X108141971Y-102202786D01*
X107997213Y-102058028D01*
X107831613Y-101937715D01*
X107831612Y-101937714D01*
X107831610Y-101937713D01*
X107731119Y-101886510D01*
X107649223Y-101844781D01*
X107454534Y-101781522D01*
X107279995Y-101753878D01*
X107252352Y-101749500D01*
X107047648Y-101749500D01*
X107023329Y-101753351D01*
X106845465Y-101781522D01*
X106650776Y-101844781D01*
X106468386Y-101937715D01*
X106302786Y-102058028D01*
X106158028Y-102202786D01*
X106037715Y-102368386D01*
X105944781Y-102550776D01*
X105881522Y-102745465D01*
X105849500Y-102947648D01*
X103770500Y-102947648D01*
X103770500Y-100759983D01*
X120704388Y-100759983D01*
X120704388Y-101960001D01*
X120704389Y-101960018D01*
X120714888Y-102062796D01*
X120714889Y-102062799D01*
X120759970Y-102198842D01*
X120770074Y-102229334D01*
X120862176Y-102378656D01*
X120986232Y-102502712D01*
X121135554Y-102594814D01*
X121302091Y-102649999D01*
X121404879Y-102660500D01*
X122604896Y-102660499D01*
X122707685Y-102649999D01*
X122874222Y-102594814D01*
X123023544Y-102502712D01*
X123092767Y-102433489D01*
X123154090Y-102400004D01*
X123223782Y-102404988D01*
X123253334Y-102420853D01*
X123323534Y-102471857D01*
X123505856Y-102564755D01*
X123700470Y-102627990D01*
X123902571Y-102660000D01*
X124107205Y-102660000D01*
X124309305Y-102627990D01*
X124503919Y-102564755D01*
X124686237Y-102471859D01*
X124730809Y-102439474D01*
X124051335Y-101760000D01*
X124057549Y-101760000D01*
X124159282Y-101732741D01*
X124250494Y-101680080D01*
X124324968Y-101605606D01*
X124377629Y-101514394D01*
X124404888Y-101412661D01*
X124404888Y-101406448D01*
X125084362Y-102085922D01*
X125084362Y-102085921D01*
X125116747Y-102041349D01*
X125209643Y-101859031D01*
X125272878Y-101664417D01*
X125304888Y-101462316D01*
X125304888Y-101257682D01*
X125272878Y-101055582D01*
X125209643Y-100860968D01*
X125116747Y-100678650D01*
X125084362Y-100634077D01*
X125084362Y-100634076D01*
X124404888Y-101313551D01*
X124404888Y-101307339D01*
X124377629Y-101205606D01*
X124324968Y-101114394D01*
X124250494Y-101039920D01*
X124159282Y-100987259D01*
X124057549Y-100960000D01*
X124051334Y-100960000D01*
X124730810Y-100280524D01*
X124730809Y-100280523D01*
X124686247Y-100248147D01*
X124686238Y-100248141D01*
X124503919Y-100155244D01*
X124309305Y-100092009D01*
X124167242Y-100069509D01*
X124107205Y-100060000D01*
X123902571Y-100060000D01*
X123700470Y-100092009D01*
X123505856Y-100155244D01*
X123323539Y-100248139D01*
X123253332Y-100299148D01*
X123187525Y-100322627D01*
X123119471Y-100306801D01*
X123092766Y-100286510D01*
X123023545Y-100217289D01*
X123023544Y-100217288D01*
X122922954Y-100155244D01*
X122874224Y-100125187D01*
X122874219Y-100125185D01*
X122872750Y-100124698D01*
X122707685Y-100070001D01*
X122707683Y-100070000D01*
X122604898Y-100059500D01*
X121404886Y-100059500D01*
X121404869Y-100059501D01*
X121302091Y-100070000D01*
X121302088Y-100070001D01*
X121135556Y-100125185D01*
X121135551Y-100125187D01*
X120986230Y-100217289D01*
X120862177Y-100341342D01*
X120770075Y-100490663D01*
X120770073Y-100490668D01*
X120754308Y-100538244D01*
X120714889Y-100657203D01*
X120714889Y-100657204D01*
X120714888Y-100657204D01*
X120704388Y-100759983D01*
X103770500Y-100759983D01*
X103770500Y-99951902D01*
X127489500Y-99951902D01*
X127489500Y-100188097D01*
X127526446Y-100421368D01*
X127599433Y-100645996D01*
X127706519Y-100856163D01*
X127706657Y-100856433D01*
X127845483Y-101047510D01*
X128012490Y-101214517D01*
X128203567Y-101353343D01*
X128302991Y-101404002D01*
X128414003Y-101460566D01*
X128414005Y-101460566D01*
X128414008Y-101460568D01*
X128515187Y-101493443D01*
X128638631Y-101533553D01*
X128871903Y-101570500D01*
X128871908Y-101570500D01*
X129108097Y-101570500D01*
X129341368Y-101533553D01*
X129400333Y-101514394D01*
X129565992Y-101460568D01*
X129776433Y-101353343D01*
X129967510Y-101214517D01*
X130134517Y-101047510D01*
X130273343Y-100856433D01*
X130380568Y-100645992D01*
X130453553Y-100421368D01*
X130454108Y-100417864D01*
X130490500Y-100188097D01*
X130490500Y-99951947D01*
X132490000Y-99951947D01*
X132490000Y-100188052D01*
X132526934Y-100421247D01*
X132599897Y-100645802D01*
X132707087Y-100856174D01*
X132767338Y-100939104D01*
X132767340Y-100939105D01*
X133507037Y-100199408D01*
X133524075Y-100262993D01*
X133589901Y-100377007D01*
X133682993Y-100470099D01*
X133797007Y-100535925D01*
X133860590Y-100552962D01*
X133120893Y-101292658D01*
X133203828Y-101352914D01*
X133414197Y-101460102D01*
X133638752Y-101533065D01*
X133638751Y-101533065D01*
X133871948Y-101570000D01*
X134108052Y-101570000D01*
X134341247Y-101533065D01*
X134565802Y-101460102D01*
X134776163Y-101352918D01*
X134776169Y-101352914D01*
X134859104Y-101292658D01*
X134859105Y-101292658D01*
X134119408Y-100552962D01*
X134182993Y-100535925D01*
X134297007Y-100470099D01*
X134390099Y-100377007D01*
X134455925Y-100262993D01*
X134472962Y-100199409D01*
X135212658Y-100939105D01*
X135212658Y-100939104D01*
X135272914Y-100856169D01*
X135272918Y-100856163D01*
X135380102Y-100645802D01*
X135443841Y-100449635D01*
X138041800Y-100449635D01*
X138041800Y-100630365D01*
X138070073Y-100808871D01*
X138125922Y-100980756D01*
X138207004Y-101139889D01*
X138207974Y-101141791D01*
X138314196Y-101287996D01*
X138442003Y-101415803D01*
X138555429Y-101498210D01*
X138588212Y-101522028D01*
X138749244Y-101604078D01*
X138921129Y-101659927D01*
X139099635Y-101688200D01*
X139280365Y-101688200D01*
X139458871Y-101659927D01*
X139630756Y-101604078D01*
X139791788Y-101522028D01*
X139892174Y-101449094D01*
X139937996Y-101415803D01*
X139937998Y-101415800D01*
X139938002Y-101415798D01*
X140065798Y-101288002D01*
X140065800Y-101287998D01*
X140065803Y-101287996D01*
X140160454Y-101157718D01*
X140172028Y-101141788D01*
X140254078Y-100980756D01*
X140309927Y-100808871D01*
X140338200Y-100630365D01*
X140338200Y-100449635D01*
X145661800Y-100449635D01*
X145661800Y-100630365D01*
X145690073Y-100808871D01*
X145745922Y-100980756D01*
X145827004Y-101139889D01*
X145827974Y-101141791D01*
X145934196Y-101287996D01*
X146062003Y-101415803D01*
X146175429Y-101498210D01*
X146208212Y-101522028D01*
X146369244Y-101604078D01*
X146541129Y-101659927D01*
X146719635Y-101688200D01*
X146900365Y-101688200D01*
X147078871Y-101659927D01*
X147250756Y-101604078D01*
X147411788Y-101522028D01*
X147512174Y-101449094D01*
X147557996Y-101415803D01*
X147557998Y-101415800D01*
X147558002Y-101415798D01*
X147685798Y-101288002D01*
X147685800Y-101287998D01*
X147685803Y-101287996D01*
X147780454Y-101157718D01*
X147792028Y-101141788D01*
X147874078Y-100980756D01*
X147929927Y-100808871D01*
X147958200Y-100630365D01*
X147958200Y-100449635D01*
X147929927Y-100271129D01*
X147874078Y-100099244D01*
X147792028Y-99938212D01*
X147785202Y-99928817D01*
X147685803Y-99792003D01*
X147557996Y-99664196D01*
X147411791Y-99557974D01*
X147411790Y-99557973D01*
X147411788Y-99557972D01*
X147250756Y-99475922D01*
X147078871Y-99420073D01*
X147078869Y-99420072D01*
X147078867Y-99420072D01*
X146912659Y-99393747D01*
X146912658Y-99393747D01*
X146900365Y-99391800D01*
X146719635Y-99391800D01*
X146707342Y-99393747D01*
X146707340Y-99393747D01*
X146541132Y-99420072D01*
X146369241Y-99475923D01*
X146208208Y-99557974D01*
X146062003Y-99664196D01*
X145934196Y-99792003D01*
X145827974Y-99938208D01*
X145745923Y-100099241D01*
X145690072Y-100271132D01*
X145666832Y-100417864D01*
X145661800Y-100449635D01*
X140338200Y-100449635D01*
X140309927Y-100271129D01*
X140254078Y-100099244D01*
X140172028Y-99938212D01*
X140165202Y-99928817D01*
X140065803Y-99792003D01*
X139937996Y-99664196D01*
X139791791Y-99557974D01*
X139791790Y-99557973D01*
X139791788Y-99557972D01*
X139630756Y-99475922D01*
X139458871Y-99420073D01*
X139458869Y-99420072D01*
X139458867Y-99420072D01*
X139345420Y-99402103D01*
X139280365Y-99391800D01*
X139099635Y-99391800D01*
X139085745Y-99394000D01*
X138921132Y-99420072D01*
X138749241Y-99475923D01*
X138588208Y-99557974D01*
X138442003Y-99664196D01*
X138314196Y-99792003D01*
X138207974Y-99938208D01*
X138125923Y-100099241D01*
X138070072Y-100271132D01*
X138046832Y-100417864D01*
X138041800Y-100449635D01*
X135443841Y-100449635D01*
X135453065Y-100421247D01*
X135490000Y-100188052D01*
X135490000Y-99951947D01*
X135453065Y-99718752D01*
X135380102Y-99494197D01*
X135272914Y-99283828D01*
X135212658Y-99200894D01*
X135212658Y-99200893D01*
X134472962Y-99940590D01*
X134455925Y-99877007D01*
X134390099Y-99762993D01*
X134297007Y-99669901D01*
X134182993Y-99604075D01*
X134119409Y-99587037D01*
X134859105Y-98847340D01*
X134859104Y-98847338D01*
X134776174Y-98787087D01*
X134565802Y-98679897D01*
X134341247Y-98606934D01*
X134341248Y-98606934D01*
X134108052Y-98570000D01*
X133871948Y-98570000D01*
X133638752Y-98606934D01*
X133414197Y-98679897D01*
X133203830Y-98787084D01*
X133120894Y-98847340D01*
X133860591Y-99587037D01*
X133797007Y-99604075D01*
X133682993Y-99669901D01*
X133589901Y-99762993D01*
X133524075Y-99877007D01*
X133507037Y-99940591D01*
X132767340Y-99200894D01*
X132707084Y-99283830D01*
X132599897Y-99494197D01*
X132526934Y-99718752D01*
X132490000Y-99951947D01*
X130490500Y-99951947D01*
X130490500Y-99951902D01*
X130453553Y-99718631D01*
X130380566Y-99494003D01*
X130273477Y-99283830D01*
X130273343Y-99283567D01*
X130134517Y-99092490D01*
X129967510Y-98925483D01*
X129776433Y-98786657D01*
X129565996Y-98679433D01*
X129341368Y-98606446D01*
X129108097Y-98569500D01*
X129108092Y-98569500D01*
X128871908Y-98569500D01*
X128871903Y-98569500D01*
X128638631Y-98606446D01*
X128414003Y-98679433D01*
X128203566Y-98786657D01*
X128120047Y-98847338D01*
X128012490Y-98925483D01*
X128012488Y-98925485D01*
X128012487Y-98925485D01*
X127845485Y-99092487D01*
X127845485Y-99092488D01*
X127845483Y-99092490D01*
X127806606Y-99146000D01*
X127706657Y-99283566D01*
X127599433Y-99494003D01*
X127526446Y-99718631D01*
X127489500Y-99951902D01*
X103770500Y-99951902D01*
X103770500Y-97094500D01*
X103790185Y-97027461D01*
X103842989Y-96981706D01*
X103894500Y-96970500D01*
X126554108Y-96970500D01*
X138296338Y-96970500D01*
X138363377Y-96990185D01*
X138409132Y-97042989D01*
X138419076Y-97112147D01*
X138390051Y-97175703D01*
X138384019Y-97182181D01*
X138314200Y-97251999D01*
X138314196Y-97252003D01*
X138207974Y-97398208D01*
X138125923Y-97559241D01*
X138070072Y-97731132D01*
X138041800Y-97909635D01*
X138041800Y-98090364D01*
X138070053Y-98268750D01*
X138070073Y-98268871D01*
X138125922Y-98440756D01*
X138207840Y-98601529D01*
X138207974Y-98601791D01*
X138314196Y-98747996D01*
X138442003Y-98875803D01*
X138572260Y-98970438D01*
X138588212Y-98982028D01*
X138749244Y-99064078D01*
X138921129Y-99119927D01*
X139099635Y-99148200D01*
X139280365Y-99148200D01*
X139458871Y-99119927D01*
X139630756Y-99064078D01*
X139791788Y-98982028D01*
X139873879Y-98922385D01*
X139937996Y-98875803D01*
X139937998Y-98875800D01*
X139938002Y-98875798D01*
X140065798Y-98748002D01*
X140065800Y-98747998D01*
X140065803Y-98747996D01*
X140132849Y-98655713D01*
X140172028Y-98601788D01*
X140254078Y-98440756D01*
X140309927Y-98268871D01*
X140338200Y-98090365D01*
X140338200Y-97909635D01*
X140309927Y-97731129D01*
X140254078Y-97559244D01*
X140172028Y-97398212D01*
X140161057Y-97383112D01*
X140065803Y-97252003D01*
X139995981Y-97182181D01*
X139962496Y-97120858D01*
X139967480Y-97051166D01*
X140009352Y-96995233D01*
X140074816Y-96970816D01*
X140083662Y-96970500D01*
X146082691Y-96970500D01*
X146149730Y-96990185D01*
X146170372Y-97006819D01*
X146769854Y-97606300D01*
X146758168Y-97606300D01*
X146658038Y-97633130D01*
X146568263Y-97684962D01*
X146494962Y-97758263D01*
X146443130Y-97848038D01*
X146416300Y-97948168D01*
X146416300Y-97959853D01*
X145839559Y-97383112D01*
X145839558Y-97383112D01*
X145828400Y-97398472D01*
X145828397Y-97398476D01*
X145746386Y-97559433D01*
X145690559Y-97731249D01*
X145662300Y-97909668D01*
X145662300Y-98090331D01*
X145690559Y-98268750D01*
X145746386Y-98440566D01*
X145828401Y-98601529D01*
X145839558Y-98616886D01*
X145839559Y-98616886D01*
X146416300Y-98040145D01*
X146416300Y-98051832D01*
X146443130Y-98151962D01*
X146494962Y-98241737D01*
X146568263Y-98315038D01*
X146658038Y-98366870D01*
X146758168Y-98393700D01*
X146769853Y-98393700D01*
X146193112Y-98970438D01*
X146193112Y-98970439D01*
X146208477Y-98981602D01*
X146369433Y-99063613D01*
X146541249Y-99119440D01*
X146707340Y-99145747D01*
X146912659Y-99145747D01*
X147078750Y-99119440D01*
X147250566Y-99063613D01*
X147411528Y-98981599D01*
X147411532Y-98981597D01*
X147426886Y-98970440D01*
X147426887Y-98970439D01*
X146850148Y-98393700D01*
X146861832Y-98393700D01*
X146961962Y-98366870D01*
X147051737Y-98315038D01*
X147125038Y-98241737D01*
X147176870Y-98151962D01*
X147203700Y-98051832D01*
X147203700Y-98040147D01*
X147780440Y-98616887D01*
X147780440Y-98616886D01*
X147791597Y-98601532D01*
X147791599Y-98601528D01*
X147873613Y-98440566D01*
X147929440Y-98268750D01*
X147957700Y-98090331D01*
X147957700Y-97909668D01*
X147929440Y-97731249D01*
X147873613Y-97559433D01*
X147791602Y-97398477D01*
X147780439Y-97383112D01*
X147203700Y-97959851D01*
X147203700Y-97948168D01*
X147176870Y-97848038D01*
X147125038Y-97758263D01*
X147051737Y-97684962D01*
X146961962Y-97633130D01*
X146861832Y-97606300D01*
X146850147Y-97606300D01*
X147449627Y-97006819D01*
X147510950Y-96973334D01*
X147537308Y-96970500D01*
X150035890Y-96970500D01*
X150035892Y-96970500D01*
X150163186Y-96936392D01*
X150277314Y-96870500D01*
X150370500Y-96777314D01*
X150436392Y-96663186D01*
X150470500Y-96535892D01*
X150470500Y-86429221D01*
X150470500Y-84492829D01*
X150472548Y-84485852D01*
X150471309Y-84478687D01*
X150482261Y-84452775D01*
X150490185Y-84425790D01*
X150495679Y-84421028D01*
X150498511Y-84414330D01*
X150521733Y-84398452D01*
X150542989Y-84380035D01*
X150550186Y-84379000D01*
X150556189Y-84374896D01*
X150584303Y-84374094D01*
X150612147Y-84370091D01*
X150620476Y-84373063D01*
X150626030Y-84372905D01*
X150644278Y-84381556D01*
X150658539Y-84386645D01*
X150663088Y-84389389D01*
X150715978Y-84427815D01*
X150785748Y-84463364D01*
X150789539Y-84465651D01*
X150810281Y-84488254D01*
X150832591Y-84509324D01*
X150833834Y-84513919D01*
X150836780Y-84517130D01*
X150840466Y-84538440D01*
X150849500Y-84571835D01*
X150849500Y-109539903D01*
X150829815Y-109606942D01*
X150813185Y-109627579D01*
X150722793Y-109717972D01*
X150705339Y-109735426D01*
X150644016Y-109768910D01*
X150641850Y-109769361D01*
X150486508Y-109800261D01*
X150486498Y-109800264D01*
X150340827Y-109860602D01*
X150340814Y-109860609D01*
X150209711Y-109948210D01*
X150209707Y-109948213D01*
X150098213Y-110059707D01*
X150098210Y-110059711D01*
X150010609Y-110190814D01*
X150010602Y-110190827D01*
X149950264Y-110336498D01*
X149950261Y-110336510D01*
X149919500Y-110491153D01*
X149919500Y-110648846D01*
X149950261Y-110803489D01*
X149950264Y-110803501D01*
X150010602Y-110949172D01*
X150010609Y-110949185D01*
X150098210Y-111080288D01*
X150098213Y-111080292D01*
X150209707Y-111191786D01*
X150209711Y-111191789D01*
X150340814Y-111279390D01*
X150340827Y-111279397D01*
X150486498Y-111339735D01*
X150486503Y-111339737D01*
X150641153Y-111370499D01*
X150641156Y-111370500D01*
X150641158Y-111370500D01*
X150798844Y-111370500D01*
X150798845Y-111370499D01*
X150953497Y-111339737D01*
X151099179Y-111279394D01*
X151230289Y-111191789D01*
X151341789Y-111080289D01*
X151429394Y-110949179D01*
X151489737Y-110803497D01*
X151517557Y-110663637D01*
X151520638Y-110648150D01*
X151553023Y-110586239D01*
X151554524Y-110584709D01*
X151808506Y-110330727D01*
X151808511Y-110330724D01*
X151818714Y-110320520D01*
X151818716Y-110320520D01*
X151930520Y-110208716D01*
X152000476Y-110087548D01*
X152000477Y-110087547D01*
X152004169Y-110081150D01*
X152009577Y-110071785D01*
X152050501Y-109919057D01*
X152050501Y-109760943D01*
X152050501Y-109753348D01*
X152050500Y-109753330D01*
X152050500Y-84571835D01*
X152070185Y-84504796D01*
X152118206Y-84461350D01*
X152135035Y-84452775D01*
X152184022Y-84427815D01*
X152362365Y-84298242D01*
X152412536Y-84248070D01*
X152473857Y-84214586D01*
X152543548Y-84219570D01*
X152599482Y-84261441D01*
X152616398Y-84292419D01*
X152646202Y-84372328D01*
X152646206Y-84372335D01*
X152732452Y-84487544D01*
X152732455Y-84487547D01*
X152847664Y-84573793D01*
X152847671Y-84573797D01*
X152982517Y-84624091D01*
X152982516Y-84624091D01*
X152989444Y-84624835D01*
X153042127Y-84630500D01*
X154937872Y-84630499D01*
X154997483Y-84624091D01*
X155132331Y-84573796D01*
X155247546Y-84487546D01*
X155333796Y-84372331D01*
X155384091Y-84237483D01*
X155390500Y-84177873D01*
X155390499Y-82947819D01*
X155410184Y-82880781D01*
X155462987Y-82835026D01*
X155532146Y-82825082D01*
X155595702Y-82854107D01*
G37*
%TD.AperFunction*%
%TD*%
M02*
