%TF.GenerationSoftware,KiCad,Pcbnew,9.0.6*%
%TF.CreationDate,2026-07-05T22:22:31+03:00*%
%TF.ProjectId,blinky board,626c696e-6b79-4206-926f-6172642e6b69,rev?*%
%TF.SameCoordinates,Original*%
%TF.FileFunction,Copper,L1,Top*%
%TF.FilePolarity,Positive*%
%FSLAX46Y46*%
G04 Gerber Fmt 4.6, Leading zero omitted, Abs format (unit mm)*
G04 Created by KiCad (PCBNEW 9.0.6) date 2026-07-05 22:22:31*
%MOMM*%
%LPD*%
G01*
G04 APERTURE LIST*
G04 Aperture macros list*
%AMRoundRect*
0 Rectangle with rounded corners*
0 $1 Rounding radius*
0 $2 $3 $4 $5 $6 $7 $8 $9 X,Y pos of 4 corners*
0 Add a 4 corners polygon primitive as box body*
4,1,4,$2,$3,$4,$5,$6,$7,$8,$9,$2,$3,0*
0 Add four circle primitives for the rounded corners*
1,1,$1+$1,$2,$3*
1,1,$1+$1,$4,$5*
1,1,$1+$1,$6,$7*
1,1,$1+$1,$8,$9*
0 Add four rect primitives between the rounded corners*
20,1,$1+$1,$2,$3,$4,$5,0*
20,1,$1+$1,$4,$5,$6,$7,0*
20,1,$1+$1,$6,$7,$8,$9,0*
20,1,$1+$1,$8,$9,$2,$3,0*%
G04 Aperture macros list end*
%TA.AperFunction,ComponentPad*%
%ADD10R,1.800000X1.800000*%
%TD*%
%TA.AperFunction,ComponentPad*%
%ADD11C,1.800000*%
%TD*%
%TA.AperFunction,ComponentPad*%
%ADD12RoundRect,0.412500X-0.412500X-0.412500X0.412500X-0.412500X0.412500X0.412500X-0.412500X0.412500X0*%
%TD*%
%TA.AperFunction,ComponentPad*%
%ADD13C,1.650000*%
%TD*%
%TA.AperFunction,ComponentPad*%
%ADD14C,1.600000*%
%TD*%
%TA.AperFunction,ComponentPad*%
%ADD15R,1.295400X1.295400*%
%TD*%
%TA.AperFunction,ComponentPad*%
%ADD16C,1.295400*%
%TD*%
%TA.AperFunction,ComponentPad*%
%ADD17RoundRect,0.250000X-0.550000X-0.550000X0.550000X-0.550000X0.550000X0.550000X-0.550000X0.550000X0*%
%TD*%
%TA.AperFunction,ComponentPad*%
%ADD18RoundRect,0.250000X0.550000X0.550000X-0.550000X0.550000X-0.550000X-0.550000X0.550000X-0.550000X0*%
%TD*%
%TA.AperFunction,ComponentPad*%
%ADD19C,2.000000*%
%TD*%
%TA.AperFunction,ComponentPad*%
%ADD20R,1.700000X1.700000*%
%TD*%
%TA.AperFunction,ComponentPad*%
%ADD21C,1.700000*%
%TD*%
%TA.AperFunction,ViaPad*%
%ADD22C,0.600000*%
%TD*%
%TA.AperFunction,Conductor*%
%ADD23C,0.200000*%
%TD*%
G04 APERTURE END LIST*
D10*
%TO.P,D2LED3,1,K*%
%TO.N,Net-(D1LED1-K)*%
X169250000Y-99470000D03*
D11*
%TO.P,D2LED3,2,A*%
%TO.N,Net-(D2LED3-A)*%
X166710000Y-99470000D03*
%TD*%
D12*
%TO.P,RV1,1,1*%
%TO.N,Net-(U1-DIS)*%
X115170000Y-109880000D03*
D13*
%TO.P,RV1,2,2*%
X117710000Y-109880000D03*
%TO.P,RV1,3,3*%
%TO.N,TR*%
X120250000Y-109880000D03*
%TD*%
D10*
%TO.P,D2LED1,1,K*%
%TO.N,Net-(D1LED1-K)*%
X158790000Y-88920000D03*
D11*
%TO.P,D2LED1,2,A*%
%TO.N,Net-(D2LED1-A)*%
X156250000Y-88920000D03*
%TD*%
D10*
%TO.P,D2LED9,1,K*%
%TO.N,Net-(D1LED1-K)*%
X151410000Y-135680000D03*
D11*
%TO.P,D2LED9,2,A*%
%TO.N,Net-(D2LED9-A)*%
X153950000Y-135680000D03*
%TD*%
D10*
%TO.P,D1LED1,1,K*%
%TO.N,Net-(D1LED1-K)*%
X153990000Y-83230000D03*
D11*
%TO.P,D1LED1,2,A*%
%TO.N,Net-(D1LED1-A)*%
X151450000Y-83230000D03*
%TD*%
D10*
%TO.P,D2LED2,1,K*%
%TO.N,Net-(D1LED1-K)*%
X164040000Y-94070000D03*
D11*
%TO.P,D2LED2,2,A*%
%TO.N,Net-(D2LED2-A)*%
X161500000Y-94070000D03*
%TD*%
D10*
%TO.P,D2LED8,1,K*%
%TO.N,Net-(D1LED1-K)*%
X159420000Y-130120000D03*
D11*
%TO.P,D2LED8,2,A*%
%TO.N,Net-(D2LED8-A)*%
X156880000Y-130120000D03*
%TD*%
D14*
%TO.P,R1,1*%
%TO.N,+5V*%
X107150000Y-103050000D03*
%TO.P,R1,2*%
%TO.N,Net-(U1-DIS)*%
X114770000Y-103050000D03*
%TD*%
%TO.P,R2,1*%
%TO.N,Net-(D1LED1-K)*%
X146630000Y-120520000D03*
%TO.P,R2,2*%
%TO.N,GND*%
X139010000Y-120520000D03*
%TD*%
D10*
%TO.P,D2LED6,1,K*%
%TO.N,Net-(D1LED1-K)*%
X169930000Y-119650000D03*
D11*
%TO.P,D2LED6,2,A*%
%TO.N,Net-(D2LED6-A)*%
X167390000Y-119650000D03*
%TD*%
D15*
%TO.P,U2,1,Q5*%
%TO.N,Net-(D2LED5-A)*%
X146810000Y-115780000D03*
D16*
%TO.P,U2,2,Q1*%
%TO.N,Net-(D2LED1-A)*%
X146810000Y-113240000D03*
%TO.P,U2,3,Q0*%
%TO.N,Net-(D1LED1-A)*%
X146810000Y-110700000D03*
%TO.P,U2,4,Q2*%
%TO.N,Net-(D2LED2-A)*%
X146810000Y-108160000D03*
%TO.P,U2,5,Q6*%
%TO.N,Net-(D2LED6-A)*%
X146810000Y-105620000D03*
%TO.P,U2,6,Q7*%
%TO.N,Net-(D2LED7-A)*%
X146810000Y-103080000D03*
%TO.P,U2,7,Q3*%
%TO.N,Net-(D2LED3-A)*%
X146810000Y-100540000D03*
%TO.P,U2,8,VSS*%
%TO.N,GND*%
X146810000Y-98000000D03*
%TO.P,U2,9,Q8*%
%TO.N,Net-(D2LED8-A)*%
X139190000Y-98000000D03*
%TO.P,U2,10,Q4*%
%TO.N,Net-(D2LED4-A)*%
X139190000Y-100540000D03*
%TO.P,U2,11,Q9*%
%TO.N,Net-(D2LED9-A)*%
X139190000Y-103080000D03*
%TO.P,U2,12,Cout*%
%TO.N,unconnected-(U2-Cout-Pad12)*%
X139190000Y-105620000D03*
%TO.P,U2,13,CKEN*%
%TO.N,GND*%
X139190000Y-108160000D03*
%TO.P,U2,14,CLK*%
%TO.N,out*%
X139190000Y-110700000D03*
%TO.P,U2,15,Reset*%
%TO.N,GND*%
X139190000Y-113240000D03*
%TO.P,U2,16,VDD*%
%TO.N,+5V*%
X139190000Y-115780000D03*
%TD*%
D17*
%TO.P,C1,1*%
%TO.N,TR*%
X122004888Y-101360000D03*
D14*
%TO.P,C1,2*%
%TO.N,GND*%
X124004888Y-101360000D03*
%TD*%
D18*
%TO.P,U1,1,GND*%
%TO.N,GND*%
X134760000Y-114250000D03*
D14*
%TO.P,U1,2,TR*%
%TO.N,TR*%
X134760000Y-111710000D03*
%TO.P,U1,3,Q*%
%TO.N,out*%
X134760000Y-109170000D03*
%TO.P,U1,4,R*%
%TO.N,+5V*%
X134760000Y-106630000D03*
%TO.P,U1,5,CV*%
%TO.N,Net-(U1-CV)*%
X127140000Y-106630000D03*
%TO.P,U1,6,THR*%
%TO.N,TR*%
X127140000Y-109170000D03*
%TO.P,U1,7,DIS*%
%TO.N,Net-(U1-DIS)*%
X127140000Y-111710000D03*
%TO.P,U1,8,VCC*%
%TO.N,+5V*%
X127140000Y-114250000D03*
%TD*%
D10*
%TO.P,D2LED4,1,K*%
%TO.N,Net-(D1LED1-K)*%
X174610000Y-104640000D03*
D11*
%TO.P,D2LED4,2,A*%
%TO.N,Net-(D2LED4-A)*%
X172070000Y-104640000D03*
%TD*%
D19*
%TO.P,C2,1*%
%TO.N,Net-(U1-CV)*%
X128990000Y-100070000D03*
%TO.P,C2,2*%
%TO.N,GND*%
X133990000Y-100070000D03*
%TD*%
D10*
%TO.P,D2LED5,1,K*%
%TO.N,Net-(D1LED1-K)*%
X174730000Y-115020000D03*
D11*
%TO.P,D2LED5,2,A*%
%TO.N,Net-(D2LED5-A)*%
X172190000Y-115020000D03*
%TD*%
D10*
%TO.P,D2LED7,1,K*%
%TO.N,Net-(D1LED1-K)*%
X164630000Y-124870000D03*
D11*
%TO.P,D2LED7,2,A*%
%TO.N,Net-(D2LED7-A)*%
X162090000Y-124870000D03*
%TD*%
D20*
%TO.P,J2,1,Pin_1*%
%TO.N,+5V*%
X106480000Y-108880000D03*
D21*
%TO.P,J2,2,Pin_2*%
%TO.N,GND*%
X106480000Y-111420000D03*
%TD*%
D22*
%TO.N,GND*%
X131290000Y-112220000D03*
%TO.N,Net-(D1LED1-A)*%
X150720000Y-110570000D03*
%TO.N,Net-(D2LED1-A)*%
X156020000Y-113250000D03*
%TO.N,Net-(D2LED2-A)*%
X161280000Y-107970000D03*
%TO.N,Net-(D2LED4-A)*%
X164210000Y-102120000D03*
X164210000Y-104400000D03*
%TO.N,Net-(D2LED6-A)*%
X166490000Y-105720000D03*
%TO.N,Net-(D2LED7-A)*%
X162570000Y-103260000D03*
%TO.N,Net-(D2LED8-A)*%
X155140000Y-99110000D03*
%TO.N,Net-(D2LED9-A)*%
X153550000Y-104630000D03*
%TD*%
D23*
%TO.N,TR*%
X120250000Y-109880000D02*
X126430000Y-109880000D01*
X122004888Y-108125112D02*
X120250000Y-109880000D01*
X126430000Y-109880000D02*
X127140000Y-109170000D01*
X127140000Y-109170000D02*
X132220000Y-109170000D01*
X122004888Y-101360000D02*
X122004888Y-108125112D01*
X132220000Y-109170000D02*
X134760000Y-111710000D01*
%TO.N,Net-(U1-CV)*%
X127140000Y-101920000D02*
X127140000Y-106630000D01*
X128990000Y-100070000D02*
X127140000Y-101920000D01*
%TO.N,Net-(D1LED1-A)*%
X146810000Y-110700000D02*
X150590000Y-110700000D01*
X150590000Y-110700000D02*
X150720000Y-110570000D01*
%TO.N,Net-(D1LED1-K)*%
X169850000Y-119650000D02*
X164630000Y-124870000D01*
X151410000Y-135680000D02*
X151410000Y-123761928D01*
X169250000Y-99470000D02*
X169440000Y-99470000D01*
X153990000Y-83230000D02*
X158790000Y-88030000D01*
X153790000Y-83070000D02*
X153790000Y-83920000D01*
X159420000Y-130120000D02*
X159420000Y-132670000D01*
X169250000Y-99280000D02*
X169250000Y-99470000D01*
X158790000Y-88920000D02*
X158890000Y-88920000D01*
X174560000Y-115020000D02*
X169930000Y-119650000D01*
X164040000Y-94070000D02*
X169250000Y-99280000D01*
X174610000Y-104640000D02*
X174610000Y-114900000D01*
X158890000Y-88920000D02*
X164040000Y-94070000D01*
X151410000Y-123761928D02*
X148168072Y-120520000D01*
X164630000Y-124870000D02*
X164630000Y-124910000D01*
X169930000Y-119650000D02*
X169850000Y-119650000D01*
X169440000Y-99470000D02*
X174610000Y-104640000D01*
X155090000Y-137000000D02*
X152730000Y-137000000D01*
X158790000Y-88030000D02*
X158790000Y-88920000D01*
X174730000Y-115020000D02*
X174560000Y-115020000D01*
X148168072Y-120520000D02*
X146630000Y-120520000D01*
X164630000Y-124910000D02*
X159420000Y-130120000D01*
X152730000Y-137000000D02*
X151410000Y-135680000D01*
X159420000Y-132670000D02*
X155090000Y-137000000D01*
X174610000Y-114900000D02*
X174730000Y-115020000D01*
%TO.N,Net-(D2LED1-A)*%
X146810000Y-113240000D02*
X156010000Y-113240000D01*
X156010000Y-113240000D02*
X156020000Y-113250000D01*
%TO.N,Net-(D2LED2-A)*%
X161090000Y-108160000D02*
X161280000Y-107970000D01*
X146810000Y-108160000D02*
X161090000Y-108160000D01*
%TO.N,Net-(D2LED3-A)*%
X146810000Y-100540000D02*
X165640000Y-100540000D01*
X165640000Y-100540000D02*
X166710000Y-99470000D01*
%TO.N,Net-(D2LED4-A)*%
X139190000Y-100540000D02*
X140770000Y-102120000D01*
X164210000Y-104400000D02*
X164450000Y-104640000D01*
X140770000Y-102120000D02*
X164210000Y-102120000D01*
X164450000Y-104640000D02*
X172070000Y-104640000D01*
%TO.N,Net-(D2LED5-A)*%
X171430000Y-115780000D02*
X172190000Y-115020000D01*
X146810000Y-115780000D02*
X171430000Y-115780000D01*
%TO.N,Net-(D2LED6-A)*%
X146810000Y-105620000D02*
X166390000Y-105620000D01*
X166390000Y-105620000D02*
X166490000Y-105720000D01*
%TO.N,Net-(D2LED7-A)*%
X146810000Y-103080000D02*
X162390000Y-103080000D01*
X162390000Y-103080000D02*
X162570000Y-103260000D01*
%TO.N,Net-(D2LED8-A)*%
X139190000Y-98000000D02*
X140300000Y-99110000D01*
X140300000Y-99110000D02*
X155140000Y-99110000D01*
%TO.N,Net-(D2LED9-A)*%
X153508700Y-104671300D02*
X153550000Y-104630000D01*
X139190000Y-103080000D02*
X140781300Y-104671300D01*
X140781300Y-104671300D02*
X153508700Y-104671300D01*
%TO.N,+5V*%
X136350000Y-115050000D02*
X138460000Y-115050000D01*
X123510000Y-112080000D02*
X125680000Y-114250000D01*
X106480000Y-108880000D02*
X106480000Y-103720000D01*
X127140000Y-114250000D02*
X131950000Y-114250000D01*
X106480000Y-103720000D02*
X107150000Y-103050000D01*
X125680000Y-114250000D02*
X127140000Y-114250000D01*
X109680000Y-112080000D02*
X123510000Y-112080000D01*
X106480000Y-108880000D02*
X109680000Y-112080000D01*
X135660000Y-106630000D02*
X134760000Y-106630000D01*
X136350000Y-115050000D02*
X136350000Y-107320000D01*
X136350000Y-107320000D02*
X135660000Y-106630000D01*
X134550000Y-116850000D02*
X136350000Y-115050000D01*
X138460000Y-115050000D02*
X139190000Y-115780000D01*
X131950000Y-114250000D02*
X134550000Y-116850000D01*
%TO.N,Net-(U1-DIS)*%
X117710000Y-109880000D02*
X119090000Y-111260000D01*
X114770000Y-109480000D02*
X115170000Y-109880000D01*
X115170000Y-109880000D02*
X117710000Y-109880000D01*
X119090000Y-111260000D02*
X126690000Y-111260000D01*
X126690000Y-111260000D02*
X127140000Y-111710000D01*
X114770000Y-103050000D02*
X114770000Y-109480000D01*
%TD*%
%TA.AperFunction,Conductor*%
%TO.N,GND*%
G36*
X135010000Y-115489403D02*
G01*
X134990315Y-115556442D01*
X134973681Y-115577084D01*
X134637681Y-115913084D01*
X134576358Y-115946569D01*
X134506666Y-115941585D01*
X134462319Y-115913084D01*
X134310915Y-115761680D01*
X134277430Y-115700357D01*
X134282414Y-115630665D01*
X134324286Y-115574732D01*
X134389750Y-115550315D01*
X134398596Y-115549999D01*
X134509999Y-115549999D01*
X134510000Y-115549998D01*
X134510000Y-114565686D01*
X134514394Y-114570080D01*
X134605606Y-114622741D01*
X134707339Y-114650000D01*
X134812661Y-114650000D01*
X134914394Y-114622741D01*
X135005606Y-114570080D01*
X135010000Y-114565686D01*
X135010000Y-115489403D01*
G37*
%TD.AperFunction*%
%TA.AperFunction,Conductor*%
G36*
X131986942Y-109790185D02*
G01*
X132007584Y-109806819D01*
X133465922Y-111265157D01*
X133499407Y-111326480D01*
X133496173Y-111391155D01*
X133491522Y-111405468D01*
X133459500Y-111607648D01*
X133459500Y-111812351D01*
X133491522Y-112014534D01*
X133554781Y-112209223D01*
X133647715Y-112391613D01*
X133768028Y-112557213D01*
X133912782Y-112701967D01*
X133912787Y-112701971D01*
X134006948Y-112770383D01*
X134049614Y-112825713D01*
X134055593Y-112895326D01*
X134022988Y-112957121D01*
X133973068Y-112988407D01*
X133890878Y-113015642D01*
X133890875Y-113015643D01*
X133741654Y-113107684D01*
X133617684Y-113231654D01*
X133525643Y-113380875D01*
X133525641Y-113380880D01*
X133470494Y-113547302D01*
X133470493Y-113547309D01*
X133460000Y-113650013D01*
X133460000Y-114000000D01*
X134444314Y-114000000D01*
X134439920Y-114004394D01*
X134387259Y-114095606D01*
X134360000Y-114197339D01*
X134360000Y-114302661D01*
X134387259Y-114404394D01*
X134439920Y-114495606D01*
X134444314Y-114500000D01*
X133460001Y-114500000D01*
X133460001Y-114611404D01*
X133440316Y-114678443D01*
X133387512Y-114724198D01*
X133318354Y-114734142D01*
X133254798Y-114705117D01*
X133248320Y-114699085D01*
X132437590Y-113888355D01*
X132437588Y-113888352D01*
X132318717Y-113769481D01*
X132318716Y-113769480D01*
X132231904Y-113719360D01*
X132231904Y-113719359D01*
X132231900Y-113719358D01*
X132181785Y-113690423D01*
X132029057Y-113649499D01*
X131870943Y-113649499D01*
X131863347Y-113649499D01*
X131863331Y-113649500D01*
X128369602Y-113649500D01*
X128302563Y-113629815D01*
X128259117Y-113581795D01*
X128252287Y-113568390D01*
X128252285Y-113568387D01*
X128252284Y-113568385D01*
X128131971Y-113402786D01*
X127987213Y-113258028D01*
X127821614Y-113137715D01*
X127815006Y-113134348D01*
X127728917Y-113090483D01*
X127678123Y-113042511D01*
X127661328Y-112974690D01*
X127683865Y-112908555D01*
X127728917Y-112869516D01*
X127821610Y-112822287D01*
X127853330Y-112799241D01*
X127987213Y-112701971D01*
X127987215Y-112701968D01*
X127987219Y-112701966D01*
X128131966Y-112557219D01*
X128131968Y-112557215D01*
X128131971Y-112557213D01*
X128187879Y-112480261D01*
X128252287Y-112391610D01*
X128345220Y-112209219D01*
X128408477Y-112014534D01*
X128440500Y-111812352D01*
X128440500Y-111607648D01*
X128408477Y-111405466D01*
X128345220Y-111210781D01*
X128345218Y-111210778D01*
X128345218Y-111210776D01*
X128309540Y-111140756D01*
X128252287Y-111028390D01*
X128241592Y-111013669D01*
X128131971Y-110862786D01*
X127987213Y-110718028D01*
X127821614Y-110597715D01*
X127815006Y-110594348D01*
X127728917Y-110550483D01*
X127678123Y-110502511D01*
X127661328Y-110434690D01*
X127683865Y-110368555D01*
X127728917Y-110329516D01*
X127821610Y-110282287D01*
X127865803Y-110250179D01*
X127987213Y-110161971D01*
X127987215Y-110161968D01*
X127987219Y-110161966D01*
X128131966Y-110017219D01*
X128131968Y-110017215D01*
X128131971Y-110017213D01*
X128252284Y-109851614D01*
X128252283Y-109851614D01*
X128252287Y-109851610D01*
X128259117Y-109838204D01*
X128307091Y-109787409D01*
X128369602Y-109770500D01*
X131919903Y-109770500D01*
X131986942Y-109790185D01*
G37*
%TD.AperFunction*%
%TA.AperFunction,Conductor*%
G36*
X138363377Y-96990185D02*
G01*
X138409132Y-97042989D01*
X138419076Y-97112147D01*
X138390051Y-97175703D01*
X138384019Y-97182181D01*
X138314200Y-97251999D01*
X138314196Y-97252003D01*
X138207974Y-97398208D01*
X138125923Y-97559241D01*
X138070072Y-97731132D01*
X138041800Y-97909635D01*
X138041800Y-98090364D01*
X138070053Y-98268750D01*
X138070073Y-98268871D01*
X138125922Y-98440756D01*
X138191775Y-98570000D01*
X138207974Y-98601791D01*
X138314196Y-98747996D01*
X138442003Y-98875803D01*
X138578817Y-98975202D01*
X138588212Y-98982028D01*
X138749244Y-99064078D01*
X138921129Y-99119927D01*
X139060800Y-99142049D01*
X139095386Y-99147527D01*
X139158521Y-99177456D01*
X139195452Y-99236768D01*
X139194454Y-99306630D01*
X139155844Y-99364863D01*
X139095386Y-99392473D01*
X138921132Y-99420072D01*
X138749241Y-99475923D01*
X138588208Y-99557974D01*
X138442003Y-99664196D01*
X138314196Y-99792003D01*
X138207974Y-99938208D01*
X138125923Y-100099241D01*
X138070072Y-100271132D01*
X138041800Y-100449635D01*
X138041800Y-100630364D01*
X138067037Y-100789707D01*
X138070073Y-100808871D01*
X138125922Y-100980756D01*
X138207316Y-101140501D01*
X138207974Y-101141791D01*
X138314196Y-101287996D01*
X138442003Y-101415803D01*
X138557638Y-101499815D01*
X138588212Y-101522028D01*
X138749244Y-101604078D01*
X138921129Y-101659927D01*
X139095386Y-101687527D01*
X139158521Y-101717456D01*
X139195452Y-101776768D01*
X139194454Y-101846630D01*
X139155844Y-101904863D01*
X139095386Y-101932473D01*
X138921132Y-101960072D01*
X138749241Y-102015923D01*
X138588208Y-102097974D01*
X138442003Y-102204196D01*
X138314196Y-102332003D01*
X138207974Y-102478208D01*
X138125923Y-102639241D01*
X138070072Y-102811132D01*
X138052750Y-102920499D01*
X138041800Y-102989635D01*
X138041800Y-103170365D01*
X138045606Y-103194392D01*
X138068484Y-103338842D01*
X138070073Y-103348871D01*
X138125922Y-103520756D01*
X138187160Y-103640943D01*
X138207974Y-103681791D01*
X138314196Y-103827996D01*
X138442003Y-103955803D01*
X138566243Y-104046067D01*
X138588212Y-104062028D01*
X138749244Y-104144078D01*
X138921129Y-104199927D01*
X139095386Y-104227527D01*
X139158521Y-104257456D01*
X139195452Y-104316768D01*
X139194454Y-104386630D01*
X139155844Y-104444863D01*
X139095386Y-104472473D01*
X138921132Y-104500072D01*
X138749241Y-104555923D01*
X138588208Y-104637974D01*
X138442003Y-104744196D01*
X138314196Y-104872003D01*
X138207974Y-105018208D01*
X138125923Y-105179241D01*
X138070072Y-105351132D01*
X138041800Y-105529635D01*
X138041800Y-105710364D01*
X138055813Y-105798842D01*
X138070073Y-105888871D01*
X138119340Y-106040500D01*
X138125923Y-106060758D01*
X138207974Y-106221791D01*
X138314196Y-106367996D01*
X138442003Y-106495803D01*
X138578817Y-106595202D01*
X138588212Y-106602028D01*
X138749244Y-106684078D01*
X138921129Y-106739927D01*
X139099635Y-106768200D01*
X139280365Y-106768200D01*
X139458871Y-106739927D01*
X139630756Y-106684078D01*
X139791788Y-106602028D01*
X139894164Y-106527648D01*
X139937996Y-106495803D01*
X139937998Y-106495800D01*
X139938002Y-106495798D01*
X140065798Y-106368002D01*
X140065800Y-106367998D01*
X140065803Y-106367996D01*
X140112385Y-106303879D01*
X140172028Y-106221788D01*
X140254078Y-106060756D01*
X140309927Y-105888871D01*
X140338200Y-105710365D01*
X140338200Y-105529635D01*
X140309927Y-105351129D01*
X140306329Y-105340058D01*
X140304336Y-105270219D01*
X140340418Y-105210387D01*
X140403119Y-105179560D01*
X140472533Y-105187525D01*
X140486250Y-105194350D01*
X140489864Y-105196437D01*
X140549515Y-105230877D01*
X140702243Y-105271801D01*
X140702246Y-105271801D01*
X140867953Y-105271801D01*
X140867969Y-105271800D01*
X145557452Y-105271800D01*
X145624491Y-105291485D01*
X145670246Y-105344289D01*
X145680190Y-105413447D01*
X145679925Y-105415198D01*
X145661800Y-105529635D01*
X145661800Y-105710364D01*
X145675813Y-105798842D01*
X145690073Y-105888871D01*
X145739340Y-106040500D01*
X145745923Y-106060758D01*
X145827974Y-106221791D01*
X145934196Y-106367996D01*
X146062003Y-106495803D01*
X146198817Y-106595202D01*
X146208212Y-106602028D01*
X146369244Y-106684078D01*
X146541129Y-106739927D01*
X146719635Y-106768200D01*
X146900365Y-106768200D01*
X147078871Y-106739927D01*
X147250756Y-106684078D01*
X147411788Y-106602028D01*
X147514164Y-106527648D01*
X147557996Y-106495803D01*
X147557998Y-106495800D01*
X147558002Y-106495798D01*
X147685798Y-106368002D01*
X147755827Y-106271613D01*
X147811156Y-106228949D01*
X147856145Y-106220500D01*
X165807060Y-106220500D01*
X165874099Y-106240185D01*
X165894736Y-106256814D01*
X165963387Y-106325465D01*
X165979712Y-106341790D01*
X166110814Y-106429390D01*
X166110827Y-106429397D01*
X166256498Y-106489735D01*
X166256503Y-106489737D01*
X166411153Y-106520499D01*
X166411156Y-106520500D01*
X166411158Y-106520500D01*
X166568844Y-106520500D01*
X166568845Y-106520499D01*
X166723497Y-106489737D01*
X166869179Y-106429394D01*
X167000289Y-106341789D01*
X167111789Y-106230289D01*
X167199394Y-106099179D01*
X167259737Y-105953497D01*
X167290500Y-105798842D01*
X167290500Y-105641158D01*
X167290500Y-105641155D01*
X167290499Y-105641153D01*
X167272836Y-105552358D01*
X167259737Y-105486503D01*
X167228856Y-105411950D01*
X167221388Y-105342484D01*
X167252663Y-105280004D01*
X167312752Y-105244352D01*
X167343418Y-105240500D01*
X170728164Y-105240500D01*
X170795203Y-105260185D01*
X170838648Y-105308204D01*
X170872185Y-105374023D01*
X171001752Y-105552358D01*
X171001756Y-105552363D01*
X171157636Y-105708243D01*
X171157641Y-105708247D01*
X171282336Y-105798842D01*
X171335978Y-105837815D01*
X171464375Y-105903237D01*
X171532393Y-105937895D01*
X171532396Y-105937896D01*
X171637221Y-105971955D01*
X171742049Y-106006015D01*
X171959778Y-106040500D01*
X171959779Y-106040500D01*
X172180221Y-106040500D01*
X172180222Y-106040500D01*
X172397951Y-106006015D01*
X172607606Y-105937895D01*
X172804022Y-105837815D01*
X172982365Y-105708242D01*
X173032536Y-105658070D01*
X173093857Y-105624586D01*
X173163548Y-105629570D01*
X173219482Y-105671441D01*
X173236398Y-105702419D01*
X173266202Y-105782328D01*
X173266206Y-105782335D01*
X173352452Y-105897544D01*
X173352455Y-105897547D01*
X173467664Y-105983793D01*
X173467671Y-105983797D01*
X173512618Y-106000561D01*
X173602517Y-106034091D01*
X173662127Y-106040500D01*
X173885500Y-106040499D01*
X173952539Y-106060183D01*
X173998294Y-106112987D01*
X174009500Y-106164499D01*
X174009500Y-113495500D01*
X173989815Y-113562539D01*
X173937011Y-113608294D01*
X173885501Y-113619500D01*
X173782130Y-113619500D01*
X173782123Y-113619501D01*
X173722516Y-113625908D01*
X173587671Y-113676202D01*
X173587664Y-113676206D01*
X173472455Y-113762452D01*
X173472452Y-113762455D01*
X173386206Y-113877664D01*
X173386203Y-113877669D01*
X173356398Y-113957581D01*
X173314526Y-114013514D01*
X173249062Y-114037931D01*
X173180789Y-114023079D01*
X173152535Y-114001928D01*
X173102363Y-113951756D01*
X173102358Y-113951752D01*
X172924025Y-113822187D01*
X172924024Y-113822186D01*
X172924022Y-113822185D01*
X172806791Y-113762452D01*
X172727606Y-113722104D01*
X172727603Y-113722103D01*
X172517952Y-113653985D01*
X172361370Y-113629185D01*
X172300222Y-113619500D01*
X172079778Y-113619500D01*
X172018630Y-113629185D01*
X171862047Y-113653985D01*
X171652396Y-113722103D01*
X171652393Y-113722104D01*
X171455974Y-113822187D01*
X171277641Y-113951752D01*
X171277636Y-113951756D01*
X171121756Y-114107636D01*
X171121752Y-114107641D01*
X170992187Y-114285974D01*
X170892104Y-114482393D01*
X170892103Y-114482396D01*
X170823985Y-114692047D01*
X170789500Y-114909778D01*
X170789500Y-115055500D01*
X170769815Y-115122539D01*
X170717011Y-115168294D01*
X170665500Y-115179500D01*
X148079804Y-115179500D01*
X148012765Y-115159815D01*
X147967010Y-115107011D01*
X147956514Y-115068753D01*
X147951791Y-115024816D01*
X147901497Y-114889971D01*
X147901493Y-114889964D01*
X147815247Y-114774755D01*
X147815244Y-114774752D01*
X147700035Y-114688506D01*
X147700028Y-114688502D01*
X147565182Y-114638208D01*
X147565183Y-114638208D01*
X147505583Y-114631801D01*
X147505581Y-114631800D01*
X147505573Y-114631800D01*
X147505565Y-114631800D01*
X146937898Y-114631800D01*
X146870859Y-114612115D01*
X146825104Y-114559311D01*
X146815160Y-114490153D01*
X146844185Y-114426597D01*
X146902963Y-114388823D01*
X146918490Y-114385329D01*
X147078871Y-114359927D01*
X147250756Y-114304078D01*
X147411788Y-114222028D01*
X147493879Y-114162385D01*
X147557996Y-114115803D01*
X147557998Y-114115800D01*
X147558002Y-114115798D01*
X147685798Y-113988002D01*
X147755827Y-113891613D01*
X147811156Y-113848949D01*
X147856145Y-113840500D01*
X155427217Y-113840500D01*
X155494256Y-113860185D01*
X155505882Y-113868647D01*
X155509710Y-113871789D01*
X155640814Y-113959390D01*
X155640827Y-113959397D01*
X155749461Y-114004394D01*
X155786503Y-114019737D01*
X155941153Y-114050499D01*
X155941156Y-114050500D01*
X155941158Y-114050500D01*
X156098844Y-114050500D01*
X156098845Y-114050499D01*
X156253497Y-114019737D01*
X156399179Y-113959394D01*
X156530289Y-113871789D01*
X156641789Y-113760289D01*
X156729394Y-113629179D01*
X156730749Y-113625909D01*
X156754573Y-113568390D01*
X156789737Y-113483497D01*
X156820500Y-113328842D01*
X156820500Y-113171158D01*
X156820500Y-113171155D01*
X156820499Y-113171153D01*
X156803966Y-113088038D01*
X156789737Y-113016503D01*
X156789380Y-113015642D01*
X156729397Y-112870827D01*
X156729390Y-112870814D01*
X156641789Y-112739711D01*
X156641786Y-112739707D01*
X156530292Y-112628213D01*
X156530288Y-112628210D01*
X156399185Y-112540609D01*
X156399172Y-112540602D01*
X156253501Y-112480264D01*
X156253489Y-112480261D01*
X156098845Y-112449500D01*
X156098842Y-112449500D01*
X155941158Y-112449500D01*
X155941155Y-112449500D01*
X155786510Y-112480261D01*
X155786498Y-112480264D01*
X155640827Y-112540602D01*
X155640814Y-112540609D01*
X155524091Y-112618602D01*
X155457413Y-112639480D01*
X155455200Y-112639500D01*
X147856145Y-112639500D01*
X147789106Y-112619815D01*
X147755828Y-112588387D01*
X147685798Y-112491998D01*
X147558002Y-112364202D01*
X147557996Y-112364196D01*
X147411791Y-112257974D01*
X147411790Y-112257973D01*
X147411788Y-112257972D01*
X147250756Y-112175922D01*
X147078871Y-112120073D01*
X147078869Y-112120072D01*
X147078867Y-112120072D01*
X146965420Y-112102103D01*
X146900365Y-112091800D01*
X146719635Y-112091800D01*
X146705745Y-112094000D01*
X146541132Y-112120072D01*
X146369241Y-112175923D01*
X146208208Y-112257974D01*
X146062003Y-112364196D01*
X145934196Y-112492003D01*
X145827974Y-112638208D01*
X145745923Y-112799241D01*
X145690072Y-112971132D01*
X145661800Y-113149635D01*
X145661800Y-113330364D01*
X145690053Y-113508750D01*
X145690073Y-113508871D01*
X145745922Y-113680756D01*
X145827840Y-113841529D01*
X145827974Y-113841791D01*
X145934196Y-113987996D01*
X146062003Y-114115803D01*
X146174230Y-114197339D01*
X146208212Y-114222028D01*
X146369244Y-114304078D01*
X146541129Y-114359927D01*
X146701502Y-114385327D01*
X146764634Y-114415256D01*
X146801566Y-114474567D01*
X146800568Y-114544430D01*
X146761959Y-114602663D01*
X146697995Y-114630777D01*
X146682102Y-114631800D01*
X146114429Y-114631800D01*
X146114423Y-114631801D01*
X146054816Y-114638208D01*
X145919971Y-114688502D01*
X145919964Y-114688506D01*
X145804755Y-114774752D01*
X145804752Y-114774755D01*
X145718506Y-114889964D01*
X145718502Y-114889971D01*
X145668208Y-115024817D01*
X145661801Y-115084416D01*
X145661800Y-115084435D01*
X145661800Y-116475570D01*
X145661801Y-116475576D01*
X145668208Y-116535183D01*
X145718502Y-116670028D01*
X145718506Y-116670035D01*
X145804752Y-116785244D01*
X145804755Y-116785247D01*
X145919964Y-116871493D01*
X145919971Y-116871497D01*
X146054817Y-116921791D01*
X146054816Y-116921791D01*
X146061744Y-116922535D01*
X146114427Y-116928200D01*
X147505572Y-116928199D01*
X147565183Y-116921791D01*
X147700031Y-116871496D01*
X147815246Y-116785246D01*
X147901496Y-116670031D01*
X147951791Y-116535183D01*
X147956515Y-116491241D01*
X147983252Y-116426694D01*
X148040645Y-116386846D01*
X148079804Y-116380500D01*
X171343331Y-116380500D01*
X171343347Y-116380501D01*
X171350943Y-116380501D01*
X171509053Y-116380501D01*
X171509057Y-116380501D01*
X171657735Y-116340662D01*
X171727579Y-116342325D01*
X171727979Y-116342453D01*
X171793665Y-116363796D01*
X171862048Y-116386015D01*
X171904727Y-116392774D01*
X172038383Y-116413943D01*
X172101517Y-116443872D01*
X172138449Y-116503183D01*
X172137451Y-116573046D01*
X172106666Y-116624097D01*
X170517582Y-118213181D01*
X170456259Y-118246666D01*
X170429901Y-118249500D01*
X168982129Y-118249500D01*
X168982123Y-118249501D01*
X168922516Y-118255908D01*
X168787671Y-118306202D01*
X168787664Y-118306206D01*
X168672455Y-118392452D01*
X168672452Y-118392455D01*
X168586206Y-118507664D01*
X168586203Y-118507669D01*
X168556398Y-118587581D01*
X168514526Y-118643514D01*
X168449062Y-118667931D01*
X168380789Y-118653079D01*
X168352535Y-118631928D01*
X168302363Y-118581756D01*
X168302358Y-118581752D01*
X168124025Y-118452187D01*
X168124024Y-118452186D01*
X168124022Y-118452185D01*
X168006791Y-118392452D01*
X167927606Y-118352104D01*
X167927603Y-118352103D01*
X167717952Y-118283985D01*
X167609086Y-118266742D01*
X167500222Y-118249500D01*
X167279778Y-118249500D01*
X167207201Y-118260995D01*
X167062047Y-118283985D01*
X166852396Y-118352103D01*
X166852393Y-118352104D01*
X166655974Y-118452187D01*
X166477641Y-118581752D01*
X166477636Y-118581756D01*
X166321756Y-118737636D01*
X166321752Y-118737641D01*
X166192187Y-118915974D01*
X166092104Y-119112393D01*
X166092103Y-119112396D01*
X166023985Y-119322047D01*
X165989500Y-119539778D01*
X165989500Y-119760221D01*
X166023985Y-119977951D01*
X166092103Y-120187603D01*
X166092104Y-120187606D01*
X166136326Y-120274394D01*
X166182801Y-120365606D01*
X166192187Y-120384025D01*
X166321752Y-120562358D01*
X166321756Y-120562363D01*
X166477636Y-120718243D01*
X166477641Y-120718247D01*
X166623773Y-120824417D01*
X166655978Y-120847815D01*
X166784375Y-120913237D01*
X166852393Y-120947895D01*
X166852396Y-120947896D01*
X166957221Y-120981955D01*
X167062049Y-121016015D01*
X167279778Y-121050500D01*
X167279779Y-121050500D01*
X167300901Y-121050500D01*
X167367940Y-121070185D01*
X167413695Y-121122989D01*
X167423639Y-121192147D01*
X167394614Y-121255703D01*
X167388582Y-121262181D01*
X165217582Y-123433181D01*
X165156259Y-123466666D01*
X165129901Y-123469500D01*
X163682129Y-123469500D01*
X163682123Y-123469501D01*
X163622516Y-123475908D01*
X163487671Y-123526202D01*
X163487664Y-123526206D01*
X163372455Y-123612452D01*
X163372452Y-123612455D01*
X163286206Y-123727664D01*
X163286203Y-123727669D01*
X163256398Y-123807581D01*
X163214526Y-123863514D01*
X163149062Y-123887931D01*
X163080789Y-123873079D01*
X163052535Y-123851928D01*
X163002363Y-123801756D01*
X163002358Y-123801752D01*
X162824025Y-123672187D01*
X162824024Y-123672186D01*
X162824022Y-123672185D01*
X162706791Y-123612452D01*
X162627606Y-123572104D01*
X162627603Y-123572103D01*
X162417952Y-123503985D01*
X162249557Y-123477314D01*
X162200222Y-123469500D01*
X161979778Y-123469500D01*
X161930443Y-123477314D01*
X161762047Y-123503985D01*
X161552396Y-123572103D01*
X161552393Y-123572104D01*
X161355974Y-123672187D01*
X161177641Y-123801752D01*
X161177636Y-123801756D01*
X161021756Y-123957636D01*
X161021752Y-123957641D01*
X160892187Y-124135974D01*
X160792104Y-124332393D01*
X160792103Y-124332396D01*
X160723985Y-124542047D01*
X160689500Y-124759778D01*
X160689500Y-124980221D01*
X160723985Y-125197952D01*
X160792103Y-125407603D01*
X160792104Y-125407606D01*
X160892187Y-125604025D01*
X161021752Y-125782358D01*
X161021756Y-125782363D01*
X161177636Y-125938243D01*
X161177641Y-125938247D01*
X161279606Y-126012328D01*
X161355978Y-126067815D01*
X161484375Y-126133237D01*
X161552393Y-126167895D01*
X161552396Y-126167896D01*
X161657221Y-126201955D01*
X161762049Y-126236015D01*
X161979778Y-126270500D01*
X161979779Y-126270500D01*
X162120902Y-126270500D01*
X162187941Y-126290185D01*
X162233696Y-126342989D01*
X162243640Y-126412147D01*
X162214615Y-126475703D01*
X162208583Y-126482181D01*
X160007582Y-128683181D01*
X159946259Y-128716666D01*
X159919901Y-128719500D01*
X158472129Y-128719500D01*
X158472123Y-128719501D01*
X158412516Y-128725908D01*
X158277671Y-128776202D01*
X158277664Y-128776206D01*
X158162455Y-128862452D01*
X158162452Y-128862455D01*
X158076206Y-128977664D01*
X158076203Y-128977669D01*
X158046398Y-129057581D01*
X158004526Y-129113514D01*
X157939062Y-129137931D01*
X157870789Y-129123079D01*
X157842535Y-129101928D01*
X157792363Y-129051756D01*
X157792358Y-129051752D01*
X157614025Y-128922187D01*
X157614024Y-128922186D01*
X157614022Y-128922185D01*
X157496791Y-128862452D01*
X157417606Y-128822104D01*
X157417603Y-128822103D01*
X157207952Y-128753985D01*
X157099086Y-128736742D01*
X156990222Y-128719500D01*
X156769778Y-128719500D01*
X156697201Y-128730995D01*
X156552047Y-128753985D01*
X156342396Y-128822103D01*
X156342393Y-128822104D01*
X156145974Y-128922187D01*
X155967641Y-129051752D01*
X155967636Y-129051756D01*
X155811756Y-129207636D01*
X155811752Y-129207641D01*
X155682187Y-129385974D01*
X155582104Y-129582393D01*
X155582103Y-129582396D01*
X155513985Y-129792047D01*
X155479500Y-130009778D01*
X155479500Y-130230221D01*
X155513985Y-130447952D01*
X155582103Y-130657603D01*
X155582104Y-130657606D01*
X155682187Y-130854025D01*
X155811752Y-131032358D01*
X155811756Y-131032363D01*
X155967636Y-131188243D01*
X155967641Y-131188247D01*
X156069616Y-131262335D01*
X156145978Y-131317815D01*
X156274375Y-131383237D01*
X156342393Y-131417895D01*
X156342396Y-131417896D01*
X156434015Y-131447664D01*
X156552049Y-131486015D01*
X156769778Y-131520500D01*
X156769779Y-131520500D01*
X156990221Y-131520500D01*
X156990222Y-131520500D01*
X157207951Y-131486015D01*
X157417606Y-131417895D01*
X157614022Y-131317815D01*
X157792365Y-131188242D01*
X157842536Y-131138070D01*
X157903857Y-131104586D01*
X157973548Y-131109570D01*
X158029482Y-131151441D01*
X158046398Y-131182419D01*
X158076202Y-131262328D01*
X158076206Y-131262335D01*
X158162452Y-131377544D01*
X158162455Y-131377547D01*
X158277664Y-131463793D01*
X158277671Y-131463797D01*
X158322618Y-131480561D01*
X158412517Y-131514091D01*
X158472127Y-131520500D01*
X158695500Y-131520499D01*
X158762539Y-131540183D01*
X158808294Y-131592987D01*
X158819500Y-131644499D01*
X158819500Y-132369902D01*
X158799815Y-132436941D01*
X158783181Y-132457583D01*
X155562181Y-135678583D01*
X155500858Y-135712068D01*
X155431166Y-135707084D01*
X155375233Y-135665212D01*
X155350816Y-135599748D01*
X155350500Y-135590902D01*
X155350500Y-135569778D01*
X155316015Y-135352049D01*
X155247895Y-135142394D01*
X155247895Y-135142393D01*
X155213237Y-135074375D01*
X155147815Y-134945978D01*
X155089501Y-134865715D01*
X155018247Y-134767641D01*
X155018243Y-134767636D01*
X154862363Y-134611756D01*
X154862358Y-134611752D01*
X154684025Y-134482187D01*
X154684024Y-134482186D01*
X154684022Y-134482185D01*
X154566791Y-134422452D01*
X154487606Y-134382104D01*
X154487603Y-134382103D01*
X154277952Y-134313985D01*
X154169086Y-134296742D01*
X154060222Y-134279500D01*
X153839778Y-134279500D01*
X153767201Y-134290995D01*
X153622047Y-134313985D01*
X153412396Y-134382103D01*
X153412393Y-134382104D01*
X153215974Y-134482187D01*
X153037641Y-134611752D01*
X153037636Y-134611756D01*
X152987463Y-134661929D01*
X152926140Y-134695413D01*
X152856448Y-134690428D01*
X152800515Y-134648557D01*
X152783601Y-134617580D01*
X152753797Y-134537671D01*
X152753793Y-134537664D01*
X152667547Y-134422455D01*
X152667544Y-134422452D01*
X152552335Y-134336206D01*
X152552328Y-134336202D01*
X152417482Y-134285908D01*
X152417483Y-134285908D01*
X152357883Y-134279501D01*
X152357881Y-134279500D01*
X152357873Y-134279500D01*
X152357865Y-134279500D01*
X152134500Y-134279500D01*
X152067461Y-134259815D01*
X152021706Y-134207011D01*
X152010500Y-134155500D01*
X152010500Y-123850988D01*
X152010501Y-123850975D01*
X152010501Y-123682872D01*
X152007638Y-123672187D01*
X151969577Y-123530144D01*
X151934565Y-123469501D01*
X151890524Y-123393218D01*
X151890518Y-123393210D01*
X148655662Y-120158355D01*
X148655660Y-120158352D01*
X148536789Y-120039481D01*
X148536781Y-120039475D01*
X148430217Y-119977951D01*
X148430216Y-119977950D01*
X148430216Y-119977951D01*
X148399857Y-119960423D01*
X148247129Y-119919499D01*
X148089015Y-119919499D01*
X148081419Y-119919499D01*
X148081403Y-119919500D01*
X147859602Y-119919500D01*
X147792563Y-119899815D01*
X147749117Y-119851795D01*
X147742284Y-119838385D01*
X147621971Y-119672786D01*
X147477213Y-119528028D01*
X147311613Y-119407715D01*
X147311612Y-119407714D01*
X147311610Y-119407713D01*
X147254653Y-119378691D01*
X147129223Y-119314781D01*
X146934534Y-119251522D01*
X146759995Y-119223878D01*
X146732352Y-119219500D01*
X146527648Y-119219500D01*
X146503329Y-119223351D01*
X146325465Y-119251522D01*
X146130776Y-119314781D01*
X145948386Y-119407715D01*
X145782786Y-119528028D01*
X145638028Y-119672786D01*
X145517715Y-119838386D01*
X145424781Y-120020776D01*
X145361522Y-120215465D01*
X145329500Y-120417648D01*
X145329500Y-120622351D01*
X145361522Y-120824534D01*
X145424781Y-121019223D01*
X145478945Y-121125523D01*
X145517585Y-121201359D01*
X145517715Y-121201613D01*
X145638028Y-121367213D01*
X145782786Y-121511971D01*
X145903226Y-121599474D01*
X145948390Y-121632287D01*
X146064607Y-121691503D01*
X146130776Y-121725218D01*
X146130778Y-121725218D01*
X146130781Y-121725220D01*
X146235137Y-121759127D01*
X146325465Y-121788477D01*
X146426557Y-121804488D01*
X146527648Y-121820500D01*
X146527649Y-121820500D01*
X146732351Y-121820500D01*
X146732352Y-121820500D01*
X146934534Y-121788477D01*
X147129219Y-121725220D01*
X147311610Y-121632287D01*
X147404590Y-121564732D01*
X147477213Y-121511971D01*
X147477215Y-121511968D01*
X147477219Y-121511966D01*
X147621966Y-121367219D01*
X147621968Y-121367215D01*
X147621971Y-121367213D01*
X147742284Y-121201614D01*
X147742285Y-121201613D01*
X147742287Y-121201610D01*
X147749117Y-121188204D01*
X147759566Y-121177140D01*
X147765889Y-121163297D01*
X147783068Y-121152256D01*
X147797091Y-121137409D01*
X147812772Y-121133167D01*
X147824667Y-121125523D01*
X147859602Y-121120500D01*
X147867975Y-121120500D01*
X147935014Y-121140185D01*
X147955656Y-121156819D01*
X149256655Y-122457819D01*
X149290140Y-122519142D01*
X149285156Y-122588834D01*
X149243284Y-122644767D01*
X149177820Y-122669184D01*
X149168974Y-122669500D01*
X103894500Y-122669500D01*
X103827461Y-122649815D01*
X103781706Y-122597011D01*
X103770500Y-122545500D01*
X103770500Y-120417682D01*
X137710000Y-120417682D01*
X137710000Y-120622317D01*
X137742009Y-120824417D01*
X137805244Y-121019031D01*
X137898141Y-121201350D01*
X137898147Y-121201359D01*
X137930523Y-121245921D01*
X137930524Y-121245922D01*
X138610000Y-120566446D01*
X138610000Y-120572661D01*
X138637259Y-120674394D01*
X138689920Y-120765606D01*
X138764394Y-120840080D01*
X138855606Y-120892741D01*
X138957339Y-120920000D01*
X138963553Y-120920000D01*
X138284076Y-121599474D01*
X138328650Y-121631859D01*
X138510968Y-121724755D01*
X138705582Y-121787990D01*
X138907683Y-121820000D01*
X139112317Y-121820000D01*
X139314417Y-121787990D01*
X139509031Y-121724755D01*
X139691349Y-121631859D01*
X139735921Y-121599474D01*
X139056447Y-120920000D01*
X139062661Y-120920000D01*
X139164394Y-120892741D01*
X139255606Y-120840080D01*
X139330080Y-120765606D01*
X139382741Y-120674394D01*
X139410000Y-120572661D01*
X139410000Y-120566448D01*
X140089474Y-121245922D01*
X140089474Y-121245921D01*
X140121859Y-121201349D01*
X140214755Y-121019031D01*
X140277990Y-120824417D01*
X140310000Y-120622317D01*
X140310000Y-120417682D01*
X140277990Y-120215582D01*
X140214755Y-120020968D01*
X140121859Y-119838650D01*
X140089474Y-119794077D01*
X140089474Y-119794076D01*
X139410000Y-120473551D01*
X139410000Y-120467339D01*
X139382741Y-120365606D01*
X139330080Y-120274394D01*
X139255606Y-120199920D01*
X139164394Y-120147259D01*
X139062661Y-120120000D01*
X139056446Y-120120000D01*
X139735922Y-119440524D01*
X139735921Y-119440523D01*
X139691359Y-119408147D01*
X139691350Y-119408141D01*
X139509031Y-119315244D01*
X139314417Y-119252009D01*
X139112317Y-119220000D01*
X138907683Y-119220000D01*
X138705582Y-119252009D01*
X138510968Y-119315244D01*
X138328644Y-119408143D01*
X138284077Y-119440523D01*
X138284077Y-119440524D01*
X138963554Y-120120000D01*
X138957339Y-120120000D01*
X138855606Y-120147259D01*
X138764394Y-120199920D01*
X138689920Y-120274394D01*
X138637259Y-120365606D01*
X138610000Y-120467339D01*
X138610000Y-120473553D01*
X137930524Y-119794077D01*
X137930523Y-119794077D01*
X137898143Y-119838644D01*
X137805244Y-120020968D01*
X137742009Y-120215582D01*
X137710000Y-120417682D01*
X103770500Y-120417682D01*
X103770500Y-107982135D01*
X105129500Y-107982135D01*
X105129500Y-109777870D01*
X105129501Y-109777876D01*
X105135908Y-109837483D01*
X105186202Y-109972328D01*
X105186206Y-109972335D01*
X105272452Y-110087544D01*
X105272455Y-110087547D01*
X105387664Y-110173793D01*
X105387671Y-110173797D01*
X105399364Y-110178158D01*
X105522517Y-110224091D01*
X105582127Y-110230500D01*
X105592685Y-110230499D01*
X105659723Y-110250179D01*
X105680372Y-110266818D01*
X106350591Y-110937037D01*
X106287007Y-110954075D01*
X106172993Y-111019901D01*
X106079901Y-111112993D01*
X106014075Y-111227007D01*
X105997037Y-111290591D01*
X105364728Y-110658282D01*
X105364727Y-110658282D01*
X105325380Y-110712439D01*
X105228904Y-110901782D01*
X105163242Y-111103869D01*
X105163242Y-111103872D01*
X105130000Y-111313753D01*
X105130000Y-111526246D01*
X105163242Y-111736127D01*
X105163242Y-111736130D01*
X105228904Y-111938217D01*
X105325375Y-112127550D01*
X105364728Y-112181716D01*
X105997037Y-111549408D01*
X106014075Y-111612993D01*
X106079901Y-111727007D01*
X106172993Y-111820099D01*
X106287007Y-111885925D01*
X106350590Y-111902962D01*
X105718282Y-112535269D01*
X105718282Y-112535270D01*
X105772449Y-112574624D01*
X105961782Y-112671095D01*
X106163870Y-112736757D01*
X106373754Y-112770000D01*
X106586246Y-112770000D01*
X106796127Y-112736757D01*
X106796130Y-112736757D01*
X106998217Y-112671095D01*
X107187554Y-112574622D01*
X107241716Y-112535270D01*
X107241717Y-112535270D01*
X106609408Y-111902962D01*
X106672993Y-111885925D01*
X106787007Y-111820099D01*
X106880099Y-111727007D01*
X106945925Y-111612993D01*
X106962962Y-111549408D01*
X107595270Y-112181717D01*
X107595270Y-112181716D01*
X107634622Y-112127554D01*
X107731095Y-111938217D01*
X107796757Y-111736130D01*
X107796757Y-111736127D01*
X107830000Y-111526246D01*
X107830000Y-111378597D01*
X107849685Y-111311558D01*
X107902489Y-111265803D01*
X107971647Y-111255859D01*
X108035203Y-111284884D01*
X108041681Y-111290916D01*
X109195139Y-112444374D01*
X109195149Y-112444385D01*
X109199479Y-112448715D01*
X109199480Y-112448716D01*
X109311284Y-112560520D01*
X109311286Y-112560521D01*
X109311290Y-112560524D01*
X109428529Y-112628211D01*
X109448216Y-112639577D01*
X109560019Y-112669534D01*
X109600942Y-112680500D01*
X109600943Y-112680500D01*
X123209903Y-112680500D01*
X123276942Y-112700185D01*
X123297584Y-112716819D01*
X125195139Y-114614374D01*
X125195149Y-114614385D01*
X125199479Y-114618715D01*
X125199480Y-114618716D01*
X125311284Y-114730520D01*
X125311286Y-114730521D01*
X125311290Y-114730524D01*
X125387900Y-114774754D01*
X125448216Y-114809577D01*
X125560019Y-114839534D01*
X125600942Y-114850500D01*
X125600943Y-114850500D01*
X125910398Y-114850500D01*
X125977437Y-114870185D01*
X126020883Y-114918205D01*
X126027715Y-114931614D01*
X126148028Y-115097213D01*
X126292786Y-115241971D01*
X126426674Y-115339244D01*
X126458390Y-115362287D01*
X126574607Y-115421503D01*
X126640776Y-115455218D01*
X126640778Y-115455218D01*
X126640781Y-115455220D01*
X126745137Y-115489127D01*
X126835465Y-115518477D01*
X126936557Y-115534488D01*
X127037648Y-115550500D01*
X127037649Y-115550500D01*
X127242351Y-115550500D01*
X127242352Y-115550500D01*
X127444534Y-115518477D01*
X127639219Y-115455220D01*
X127821610Y-115362287D01*
X127914590Y-115294732D01*
X127987213Y-115241971D01*
X127987215Y-115241968D01*
X127987219Y-115241966D01*
X128131966Y-115097219D01*
X128131968Y-115097215D01*
X128131971Y-115097213D01*
X128252284Y-114931614D01*
X128252283Y-114931614D01*
X128252287Y-114931610D01*
X128259117Y-114918204D01*
X128307091Y-114867409D01*
X128369602Y-114850500D01*
X131649903Y-114850500D01*
X131716942Y-114870185D01*
X131737584Y-114886819D01*
X134069481Y-117218716D01*
X134181284Y-117330519D01*
X134318215Y-117409577D01*
X134470943Y-117450501D01*
X134470946Y-117450501D01*
X134629054Y-117450501D01*
X134629057Y-117450501D01*
X134781785Y-117409577D01*
X134918716Y-117330519D01*
X136562416Y-115686819D01*
X136623739Y-115653334D01*
X136650097Y-115650500D01*
X137917800Y-115650500D01*
X137984839Y-115670185D01*
X138030594Y-115722989D01*
X138041800Y-115774500D01*
X138041800Y-115870364D01*
X138066529Y-116026500D01*
X138070073Y-116048871D01*
X138125922Y-116220756D01*
X138207316Y-116380501D01*
X138207974Y-116381791D01*
X138314196Y-116527996D01*
X138442003Y-116655803D01*
X138578817Y-116755202D01*
X138588212Y-116762028D01*
X138749244Y-116844078D01*
X138921129Y-116899927D01*
X139099635Y-116928200D01*
X139099636Y-116928200D01*
X139280364Y-116928200D01*
X139280365Y-116928200D01*
X139458871Y-116899927D01*
X139630756Y-116844078D01*
X139791788Y-116762028D01*
X139873879Y-116702385D01*
X139937996Y-116655803D01*
X139937998Y-116655800D01*
X139938002Y-116655798D01*
X140065798Y-116528002D01*
X140065800Y-116527998D01*
X140065803Y-116527996D01*
X140117516Y-116456818D01*
X140172028Y-116381788D01*
X140254078Y-116220756D01*
X140309927Y-116048871D01*
X140338200Y-115870365D01*
X140338200Y-115689635D01*
X140309927Y-115511129D01*
X140254078Y-115339244D01*
X140172028Y-115178212D01*
X140158662Y-115159815D01*
X140065803Y-115032003D01*
X139937996Y-114904196D01*
X139791791Y-114797974D01*
X139791790Y-114797973D01*
X139791788Y-114797972D01*
X139630756Y-114715922D01*
X139458871Y-114660073D01*
X139458869Y-114660072D01*
X139458867Y-114660072D01*
X139283018Y-114632220D01*
X139219883Y-114602291D01*
X139182952Y-114542979D01*
X139183950Y-114473116D01*
X139222560Y-114414884D01*
X139283018Y-114387274D01*
X139458750Y-114359440D01*
X139630566Y-114303613D01*
X139791528Y-114221599D01*
X139791532Y-114221597D01*
X139806886Y-114210440D01*
X139806887Y-114210439D01*
X139230148Y-113633700D01*
X139241832Y-113633700D01*
X139341962Y-113606870D01*
X139431737Y-113555038D01*
X139505038Y-113481737D01*
X139556870Y-113391962D01*
X139583700Y-113291832D01*
X139583700Y-113280147D01*
X140160440Y-113856887D01*
X140160440Y-113856886D01*
X140171597Y-113841532D01*
X140171599Y-113841528D01*
X140253613Y-113680566D01*
X140309440Y-113508750D01*
X140337700Y-113330331D01*
X140337700Y-113149668D01*
X140309440Y-112971249D01*
X140253613Y-112799433D01*
X140171602Y-112638477D01*
X140160439Y-112623112D01*
X140160438Y-112623112D01*
X139583700Y-113199851D01*
X139583700Y-113188168D01*
X139556870Y-113088038D01*
X139505038Y-112998263D01*
X139431737Y-112924962D01*
X139341962Y-112873130D01*
X139241832Y-112846300D01*
X139230147Y-112846300D01*
X139806886Y-112269559D01*
X139806886Y-112269558D01*
X139791529Y-112258401D01*
X139630566Y-112176386D01*
X139458750Y-112120559D01*
X139458752Y-112120559D01*
X139292658Y-112094252D01*
X139087341Y-112094252D01*
X138921248Y-112120559D01*
X138749433Y-112176386D01*
X138588476Y-112258397D01*
X138588472Y-112258400D01*
X138573112Y-112269558D01*
X138573112Y-112269559D01*
X139149854Y-112846300D01*
X139138168Y-112846300D01*
X139038038Y-112873130D01*
X138948263Y-112924962D01*
X138874962Y-112998263D01*
X138823130Y-113088038D01*
X138796300Y-113188168D01*
X138796300Y-113199853D01*
X138219559Y-112623112D01*
X138219558Y-112623112D01*
X138208400Y-112638472D01*
X138208397Y-112638476D01*
X138126386Y-112799433D01*
X138070559Y-112971249D01*
X138042300Y-113149668D01*
X138042300Y-113330331D01*
X138070559Y-113508750D01*
X138126386Y-113680566D01*
X138208401Y-113841529D01*
X138219558Y-113856886D01*
X138219559Y-113856886D01*
X138796300Y-113280145D01*
X138796300Y-113291832D01*
X138823130Y-113391962D01*
X138874962Y-113481737D01*
X138948263Y-113555038D01*
X139038038Y-113606870D01*
X139138168Y-113633700D01*
X139149853Y-113633700D01*
X138573112Y-114210438D01*
X138573112Y-114210439D01*
X138592416Y-114224464D01*
X138591579Y-114225615D01*
X138609791Y-114246634D01*
X138632373Y-114271601D01*
X138632596Y-114272952D01*
X138633493Y-114273987D01*
X138638284Y-114307312D01*
X138643784Y-114340532D01*
X138643242Y-114341788D01*
X138643437Y-114343145D01*
X138629448Y-114373775D01*
X138616117Y-114404691D01*
X138614980Y-114405455D01*
X138614412Y-114406701D01*
X138586084Y-114424906D01*
X138558156Y-114443706D01*
X138556413Y-114443975D01*
X138555635Y-114444476D01*
X138520713Y-114449496D01*
X138520700Y-114449499D01*
X138380943Y-114449499D01*
X138380939Y-114449499D01*
X138373332Y-114449500D01*
X138373331Y-114449499D01*
X138373331Y-114449500D01*
X137074500Y-114449500D01*
X137007461Y-114429815D01*
X136961706Y-114377011D01*
X136950500Y-114325500D01*
X136950500Y-110609635D01*
X138041800Y-110609635D01*
X138041800Y-110790364D01*
X138067729Y-110954075D01*
X138070073Y-110968871D01*
X138125922Y-111140756D01*
X138202432Y-111290916D01*
X138207974Y-111301791D01*
X138314196Y-111447996D01*
X138442003Y-111575803D01*
X138578817Y-111675202D01*
X138588212Y-111682028D01*
X138749244Y-111764078D01*
X138921129Y-111819927D01*
X139099635Y-111848200D01*
X139280365Y-111848200D01*
X139458871Y-111819927D01*
X139630756Y-111764078D01*
X139791788Y-111682028D01*
X139894164Y-111607648D01*
X139937996Y-111575803D01*
X139937998Y-111575800D01*
X139938002Y-111575798D01*
X140065798Y-111448002D01*
X140065800Y-111447998D01*
X140065803Y-111447996D01*
X140122107Y-111370499D01*
X140172028Y-111301788D01*
X140254078Y-111140756D01*
X140309927Y-110968871D01*
X140338200Y-110790365D01*
X140338200Y-110609635D01*
X145661800Y-110609635D01*
X145661800Y-110790364D01*
X145687729Y-110954075D01*
X145690073Y-110968871D01*
X145745922Y-111140756D01*
X145822432Y-111290916D01*
X145827974Y-111301791D01*
X145934196Y-111447996D01*
X146062003Y-111575803D01*
X146198817Y-111675202D01*
X146208212Y-111682028D01*
X146369244Y-111764078D01*
X146541129Y-111819927D01*
X146719635Y-111848200D01*
X146900365Y-111848200D01*
X147078871Y-111819927D01*
X147250756Y-111764078D01*
X147411788Y-111682028D01*
X147514164Y-111607648D01*
X147557996Y-111575803D01*
X147557998Y-111575800D01*
X147558002Y-111575798D01*
X147685798Y-111448002D01*
X147755827Y-111351613D01*
X147811156Y-111308949D01*
X147856145Y-111300500D01*
X150367111Y-111300500D01*
X150414563Y-111309939D01*
X150460924Y-111329142D01*
X150486503Y-111339737D01*
X150641153Y-111370499D01*
X150641156Y-111370500D01*
X150641158Y-111370500D01*
X150798844Y-111370500D01*
X150798845Y-111370499D01*
X150953497Y-111339737D01*
X151099179Y-111279394D01*
X151230289Y-111191789D01*
X151341789Y-111080289D01*
X151429394Y-110949179D01*
X151489737Y-110803497D01*
X151520500Y-110648842D01*
X151520500Y-110491158D01*
X151520500Y-110491155D01*
X151520499Y-110491153D01*
X151497438Y-110375220D01*
X151489737Y-110336503D01*
X151489735Y-110336498D01*
X151429397Y-110190827D01*
X151429390Y-110190814D01*
X151341789Y-110059711D01*
X151341786Y-110059707D01*
X151230292Y-109948213D01*
X151230288Y-109948210D01*
X151099185Y-109860609D01*
X151099172Y-109860602D01*
X150953501Y-109800264D01*
X150953489Y-109800261D01*
X150798845Y-109769500D01*
X150798842Y-109769500D01*
X150641158Y-109769500D01*
X150641155Y-109769500D01*
X150486510Y-109800261D01*
X150486498Y-109800264D01*
X150340827Y-109860602D01*
X150340814Y-109860609D01*
X150209711Y-109948210D01*
X150209707Y-109948213D01*
X150094740Y-110063181D01*
X150033417Y-110096666D01*
X150007059Y-110099500D01*
X147856145Y-110099500D01*
X147789106Y-110079815D01*
X147755828Y-110048387D01*
X147685798Y-109951998D01*
X147558002Y-109824202D01*
X147557996Y-109824196D01*
X147411791Y-109717974D01*
X147411790Y-109717973D01*
X147411788Y-109717972D01*
X147250756Y-109635922D01*
X147078871Y-109580073D01*
X147078869Y-109580072D01*
X147078867Y-109580072D01*
X146965420Y-109562103D01*
X146900365Y-109551800D01*
X146719635Y-109551800D01*
X146705745Y-109554000D01*
X146541132Y-109580072D01*
X146369241Y-109635923D01*
X146208208Y-109717974D01*
X146062003Y-109824196D01*
X145934196Y-109952003D01*
X145827974Y-110098208D01*
X145745923Y-110259241D01*
X145690072Y-110431132D01*
X145661800Y-110609635D01*
X140338200Y-110609635D01*
X140309927Y-110431129D01*
X140254078Y-110259244D01*
X140172028Y-110098212D01*
X140135827Y-110048385D01*
X140065803Y-109952003D01*
X139937996Y-109824196D01*
X139791791Y-109717974D01*
X139791790Y-109717973D01*
X139791788Y-109717972D01*
X139630756Y-109635922D01*
X139458871Y-109580073D01*
X139458869Y-109580072D01*
X139458867Y-109580072D01*
X139292659Y-109553747D01*
X139292658Y-109553747D01*
X139280365Y-109551800D01*
X139099635Y-109551800D01*
X139087342Y-109553747D01*
X139087340Y-109553747D01*
X138921132Y-109580072D01*
X138749241Y-109635923D01*
X138588208Y-109717974D01*
X138442003Y-109824196D01*
X138314196Y-109952003D01*
X138207974Y-110098208D01*
X138125923Y-110259241D01*
X138070072Y-110431132D01*
X138041800Y-110609635D01*
X136950500Y-110609635D01*
X136950500Y-108069668D01*
X138042300Y-108069668D01*
X138042300Y-108250331D01*
X138070559Y-108428750D01*
X138126386Y-108600566D01*
X138208401Y-108761529D01*
X138219558Y-108776886D01*
X138219559Y-108776886D01*
X138796300Y-108200145D01*
X138796300Y-108211832D01*
X138823130Y-108311962D01*
X138874962Y-108401737D01*
X138948263Y-108475038D01*
X139038038Y-108526870D01*
X139138168Y-108553700D01*
X139149853Y-108553700D01*
X138573112Y-109130438D01*
X138573112Y-109130439D01*
X138588477Y-109141602D01*
X138749433Y-109223613D01*
X138921249Y-109279440D01*
X139087340Y-109305747D01*
X139292659Y-109305747D01*
X139458750Y-109279440D01*
X139630566Y-109223613D01*
X139791528Y-109141599D01*
X139791532Y-109141597D01*
X139806886Y-109130440D01*
X139806887Y-109130439D01*
X139230148Y-108553700D01*
X139241832Y-108553700D01*
X139341962Y-108526870D01*
X139431737Y-108475038D01*
X139505038Y-108401737D01*
X139556870Y-108311962D01*
X139583700Y-108211832D01*
X139583700Y-108200147D01*
X140160440Y-108776887D01*
X140160440Y-108776886D01*
X140171597Y-108761532D01*
X140171599Y-108761528D01*
X140253613Y-108600566D01*
X140309440Y-108428750D01*
X140337700Y-108250331D01*
X140337700Y-108069668D01*
X140337695Y-108069635D01*
X145661800Y-108069635D01*
X145661800Y-108250364D01*
X145690053Y-108428750D01*
X145690073Y-108428871D01*
X145745922Y-108600756D01*
X145827840Y-108761529D01*
X145827974Y-108761791D01*
X145934196Y-108907996D01*
X146062003Y-109035803D01*
X146190269Y-109128992D01*
X146208212Y-109142028D01*
X146369244Y-109224078D01*
X146541129Y-109279927D01*
X146719635Y-109308200D01*
X146900365Y-109308200D01*
X147078871Y-109279927D01*
X147250756Y-109224078D01*
X147411788Y-109142028D01*
X147514164Y-109067648D01*
X147557996Y-109035803D01*
X147557998Y-109035800D01*
X147558002Y-109035798D01*
X147685798Y-108908002D01*
X147755827Y-108811613D01*
X147811156Y-108768949D01*
X147856145Y-108760500D01*
X161003332Y-108760500D01*
X161010939Y-108760500D01*
X161010943Y-108760501D01*
X161138679Y-108760501D01*
X161162869Y-108762883D01*
X161181397Y-108766569D01*
X161201157Y-108770500D01*
X161201158Y-108770500D01*
X161358844Y-108770500D01*
X161358845Y-108770499D01*
X161513497Y-108739737D01*
X161634829Y-108689480D01*
X161659172Y-108679397D01*
X161659172Y-108679396D01*
X161659179Y-108679394D01*
X161790289Y-108591789D01*
X161901789Y-108480289D01*
X161989394Y-108349179D01*
X162049737Y-108203497D01*
X162080500Y-108048842D01*
X162080500Y-107891158D01*
X162080500Y-107891155D01*
X162080499Y-107891153D01*
X162067343Y-107825014D01*
X162049737Y-107736503D01*
X162049735Y-107736498D01*
X161989397Y-107590827D01*
X161989390Y-107590814D01*
X161901789Y-107459711D01*
X161901786Y-107459707D01*
X161790292Y-107348213D01*
X161790288Y-107348210D01*
X161659185Y-107260609D01*
X161659172Y-107260602D01*
X161513501Y-107200264D01*
X161513489Y-107200261D01*
X161358845Y-107169500D01*
X161358842Y-107169500D01*
X161201158Y-107169500D01*
X161201155Y-107169500D01*
X161046510Y-107200261D01*
X161046498Y-107200264D01*
X160900827Y-107260602D01*
X160900814Y-107260609D01*
X160769711Y-107348210D01*
X160769707Y-107348213D01*
X160658212Y-107459708D01*
X160639613Y-107487543D01*
X160628356Y-107504391D01*
X160574746Y-107549195D01*
X160525255Y-107559500D01*
X147856145Y-107559500D01*
X147789106Y-107539815D01*
X147755828Y-107508387D01*
X147685798Y-107411998D01*
X147558002Y-107284202D01*
X147557996Y-107284196D01*
X147411791Y-107177974D01*
X147411790Y-107177973D01*
X147411788Y-107177972D01*
X147250756Y-107095922D01*
X147078871Y-107040073D01*
X147078869Y-107040072D01*
X147078867Y-107040072D01*
X146965420Y-107022103D01*
X146900365Y-107011800D01*
X146719635Y-107011800D01*
X146705745Y-107014000D01*
X146541132Y-107040072D01*
X146369241Y-107095923D01*
X146208208Y-107177974D01*
X146062003Y-107284196D01*
X145934196Y-107412003D01*
X145827974Y-107558208D01*
X145745923Y-107719241D01*
X145690072Y-107891132D01*
X145661800Y-108069635D01*
X140337695Y-108069635D01*
X140309440Y-107891249D01*
X140253613Y-107719433D01*
X140171602Y-107558477D01*
X140160439Y-107543112D01*
X139583700Y-108119851D01*
X139583700Y-108108168D01*
X139556870Y-108008038D01*
X139505038Y-107918263D01*
X139431737Y-107844962D01*
X139341962Y-107793130D01*
X139241832Y-107766300D01*
X139230147Y-107766300D01*
X139806886Y-107189559D01*
X139806886Y-107189558D01*
X139791529Y-107178401D01*
X139630566Y-107096386D01*
X139458750Y-107040559D01*
X139458752Y-107040559D01*
X139292658Y-107014252D01*
X139087341Y-107014252D01*
X138921248Y-107040559D01*
X138749433Y-107096386D01*
X138588476Y-107178397D01*
X138588472Y-107178400D01*
X138573112Y-107189558D01*
X138573112Y-107189559D01*
X139149854Y-107766300D01*
X139138168Y-107766300D01*
X139038038Y-107793130D01*
X138948263Y-107844962D01*
X138874962Y-107918263D01*
X138823130Y-108008038D01*
X138796300Y-108108168D01*
X138796300Y-108119853D01*
X138219559Y-107543112D01*
X138219558Y-107543112D01*
X138208400Y-107558472D01*
X138208397Y-107558476D01*
X138126386Y-107719433D01*
X138070559Y-107891249D01*
X138042300Y-108069668D01*
X136950500Y-108069668D01*
X136950500Y-107240945D01*
X136950500Y-107240943D01*
X136909577Y-107088216D01*
X136909573Y-107088209D01*
X136830524Y-106951290D01*
X136830521Y-106951286D01*
X136830520Y-106951284D01*
X136718716Y-106839480D01*
X136718715Y-106839479D01*
X136714385Y-106835149D01*
X136714374Y-106835139D01*
X136147590Y-106268355D01*
X136147588Y-106268352D01*
X136028715Y-106149479D01*
X135996319Y-106130776D01*
X135984062Y-106123699D01*
X135935848Y-106073134D01*
X135935578Y-106072607D01*
X135919219Y-106040500D01*
X135872287Y-105948390D01*
X135751966Y-105782781D01*
X135607219Y-105638034D01*
X135607213Y-105638028D01*
X135441613Y-105517715D01*
X135441612Y-105517714D01*
X135441610Y-105517713D01*
X135380355Y-105486502D01*
X135259223Y-105424781D01*
X135064534Y-105361522D01*
X134889995Y-105333878D01*
X134862352Y-105329500D01*
X134657648Y-105329500D01*
X134633329Y-105333351D01*
X134455465Y-105361522D01*
X134260776Y-105424781D01*
X134078386Y-105517715D01*
X133912786Y-105638028D01*
X133768028Y-105782786D01*
X133647715Y-105948386D01*
X133554781Y-106130776D01*
X133491522Y-106325465D01*
X133459500Y-106527648D01*
X133459500Y-106732351D01*
X133491522Y-106934534D01*
X133554781Y-107129223D01*
X133647715Y-107311613D01*
X133768028Y-107477213D01*
X133912786Y-107621971D01*
X134046674Y-107719244D01*
X134078390Y-107742287D01*
X134167447Y-107787664D01*
X134171080Y-107789515D01*
X134221876Y-107837490D01*
X134238671Y-107905311D01*
X134216134Y-107971446D01*
X134171080Y-108010485D01*
X134078386Y-108057715D01*
X133912786Y-108178028D01*
X133768028Y-108322786D01*
X133647715Y-108488386D01*
X133554781Y-108670776D01*
X133491522Y-108865465D01*
X133459500Y-109067648D01*
X133459500Y-109260903D01*
X133439815Y-109327942D01*
X133387011Y-109373697D01*
X133317853Y-109383641D01*
X133254297Y-109354616D01*
X133247819Y-109348584D01*
X132707590Y-108808355D01*
X132707588Y-108808352D01*
X132588717Y-108689481D01*
X132588716Y-108689480D01*
X132501904Y-108639360D01*
X132501904Y-108639359D01*
X132501900Y-108639358D01*
X132451785Y-108610423D01*
X132299057Y-108569499D01*
X132140943Y-108569499D01*
X132133347Y-108569499D01*
X132133331Y-108569500D01*
X128369602Y-108569500D01*
X128302563Y-108549815D01*
X128259117Y-108501795D01*
X128255058Y-108493829D01*
X128252287Y-108488390D01*
X128252285Y-108488387D01*
X128252284Y-108488385D01*
X128131971Y-108322786D01*
X127987213Y-108178028D01*
X127821614Y-108057715D01*
X127815006Y-108054348D01*
X127728917Y-108010483D01*
X127678123Y-107962511D01*
X127661328Y-107894690D01*
X127683865Y-107828555D01*
X127728917Y-107789516D01*
X127821610Y-107742287D01*
X127853330Y-107719241D01*
X127987213Y-107621971D01*
X127987215Y-107621968D01*
X127987219Y-107621966D01*
X128131966Y-107477219D01*
X128131968Y-107477215D01*
X128131971Y-107477213D01*
X128184732Y-107404590D01*
X128252287Y-107311610D01*
X128345220Y-107129219D01*
X128408477Y-106934534D01*
X128440500Y-106732352D01*
X128440500Y-106527648D01*
X128408477Y-106325466D01*
X128345220Y-106130781D01*
X128345218Y-106130778D01*
X128345218Y-106130776D01*
X128281648Y-106006015D01*
X128252287Y-105948390D01*
X128215346Y-105897544D01*
X128131971Y-105782786D01*
X127987213Y-105638028D01*
X127821610Y-105517712D01*
X127808200Y-105510879D01*
X127757406Y-105462903D01*
X127740500Y-105400397D01*
X127740500Y-102220096D01*
X127760185Y-102153057D01*
X127776815Y-102132419D01*
X128386437Y-101522796D01*
X128447758Y-101489313D01*
X128512433Y-101492547D01*
X128638632Y-101533553D01*
X128726110Y-101547408D01*
X128871903Y-101570500D01*
X128871908Y-101570500D01*
X129108097Y-101570500D01*
X129341368Y-101533553D01*
X129376847Y-101522025D01*
X129565992Y-101460568D01*
X129776433Y-101353343D01*
X129967510Y-101214517D01*
X130134517Y-101047510D01*
X130273343Y-100856433D01*
X130380568Y-100645992D01*
X130453553Y-100421368D01*
X130454107Y-100417872D01*
X130490500Y-100188097D01*
X130490500Y-99951947D01*
X132490000Y-99951947D01*
X132490000Y-100188052D01*
X132526934Y-100421247D01*
X132599897Y-100645802D01*
X132707087Y-100856174D01*
X132767338Y-100939104D01*
X132767340Y-100939105D01*
X133507037Y-100199408D01*
X133524075Y-100262993D01*
X133589901Y-100377007D01*
X133682993Y-100470099D01*
X133797007Y-100535925D01*
X133860590Y-100552962D01*
X133120893Y-101292658D01*
X133203828Y-101352914D01*
X133414197Y-101460102D01*
X133638752Y-101533065D01*
X133638751Y-101533065D01*
X133871948Y-101570000D01*
X134108052Y-101570000D01*
X134341247Y-101533065D01*
X134565802Y-101460102D01*
X134776163Y-101352918D01*
X134776169Y-101352914D01*
X134859104Y-101292658D01*
X134859105Y-101292658D01*
X134119408Y-100552962D01*
X134182993Y-100535925D01*
X134297007Y-100470099D01*
X134390099Y-100377007D01*
X134455925Y-100262993D01*
X134472962Y-100199409D01*
X135212658Y-100939105D01*
X135212658Y-100939104D01*
X135272914Y-100856169D01*
X135272918Y-100856163D01*
X135380102Y-100645802D01*
X135453065Y-100421247D01*
X135490000Y-100188052D01*
X135490000Y-99951947D01*
X135453065Y-99718752D01*
X135380102Y-99494197D01*
X135272914Y-99283828D01*
X135212658Y-99200894D01*
X135212658Y-99200893D01*
X134472962Y-99940590D01*
X134455925Y-99877007D01*
X134390099Y-99762993D01*
X134297007Y-99669901D01*
X134182993Y-99604075D01*
X134119409Y-99587037D01*
X134859105Y-98847340D01*
X134859104Y-98847338D01*
X134776174Y-98787087D01*
X134565802Y-98679897D01*
X134341247Y-98606934D01*
X134341248Y-98606934D01*
X134108052Y-98570000D01*
X133871948Y-98570000D01*
X133638752Y-98606934D01*
X133414197Y-98679897D01*
X133203830Y-98787084D01*
X133120894Y-98847340D01*
X133860591Y-99587037D01*
X133797007Y-99604075D01*
X133682993Y-99669901D01*
X133589901Y-99762993D01*
X133524075Y-99877007D01*
X133507037Y-99940591D01*
X132767340Y-99200894D01*
X132707084Y-99283830D01*
X132599897Y-99494197D01*
X132526934Y-99718752D01*
X132490000Y-99951947D01*
X130490500Y-99951947D01*
X130490500Y-99951902D01*
X130453553Y-99718631D01*
X130380566Y-99494003D01*
X130273477Y-99283830D01*
X130273343Y-99283567D01*
X130134517Y-99092490D01*
X129967510Y-98925483D01*
X129776433Y-98786657D01*
X129565996Y-98679433D01*
X129341368Y-98606446D01*
X129108097Y-98569500D01*
X129108092Y-98569500D01*
X128871908Y-98569500D01*
X128871903Y-98569500D01*
X128638631Y-98606446D01*
X128414003Y-98679433D01*
X128203566Y-98786657D01*
X128120047Y-98847338D01*
X128012490Y-98925483D01*
X128012488Y-98925485D01*
X128012487Y-98925485D01*
X127845485Y-99092487D01*
X127845485Y-99092488D01*
X127845483Y-99092490D01*
X127825874Y-99119480D01*
X127706657Y-99283566D01*
X127599433Y-99494003D01*
X127526446Y-99718631D01*
X127489500Y-99951902D01*
X127489500Y-100188097D01*
X127526447Y-100421369D01*
X127526447Y-100421372D01*
X127567450Y-100547564D01*
X127569445Y-100617405D01*
X127537200Y-100673563D01*
X126771286Y-101439478D01*
X126659481Y-101551282D01*
X126659480Y-101551284D01*
X126618268Y-101622666D01*
X126580423Y-101688215D01*
X126539499Y-101840943D01*
X126539499Y-101840945D01*
X126539499Y-102009046D01*
X126539500Y-102009059D01*
X126539500Y-105400397D01*
X126519815Y-105467436D01*
X126471800Y-105510879D01*
X126458389Y-105517712D01*
X126292786Y-105638028D01*
X126148028Y-105782786D01*
X126027715Y-105948386D01*
X125934781Y-106130776D01*
X125871522Y-106325465D01*
X125839500Y-106527648D01*
X125839500Y-106732351D01*
X125871522Y-106934534D01*
X125934781Y-107129223D01*
X126027715Y-107311613D01*
X126148028Y-107477213D01*
X126292786Y-107621971D01*
X126426674Y-107719244D01*
X126458390Y-107742287D01*
X126547447Y-107787664D01*
X126551080Y-107789515D01*
X126601876Y-107837490D01*
X126618671Y-107905311D01*
X126596134Y-107971446D01*
X126551080Y-108010485D01*
X126458386Y-108057715D01*
X126292786Y-108178028D01*
X126148028Y-108322786D01*
X126027715Y-108488386D01*
X125934781Y-108670776D01*
X125871522Y-108865465D01*
X125839500Y-109067648D01*
X125839500Y-109155500D01*
X125819815Y-109222539D01*
X125767011Y-109268294D01*
X125715500Y-109279500D01*
X121999097Y-109279500D01*
X121932058Y-109259815D01*
X121886303Y-109207011D01*
X121876359Y-109137853D01*
X121905384Y-109074297D01*
X121911416Y-109067819D01*
X122239499Y-108739735D01*
X122363394Y-108615839D01*
X122363399Y-108615836D01*
X122373602Y-108605632D01*
X122373604Y-108605632D01*
X122485408Y-108493828D01*
X122564465Y-108356896D01*
X122605388Y-108204169D01*
X122605388Y-102772162D01*
X122625073Y-102705123D01*
X122677877Y-102659368D01*
X122703440Y-102650907D01*
X122707676Y-102649999D01*
X122707685Y-102649999D01*
X122874222Y-102594814D01*
X123023544Y-102502712D01*
X123092767Y-102433489D01*
X123154090Y-102400004D01*
X123223782Y-102404988D01*
X123253334Y-102420853D01*
X123323534Y-102471857D01*
X123505856Y-102564755D01*
X123700470Y-102627990D01*
X123902571Y-102660000D01*
X124107205Y-102660000D01*
X124309305Y-102627990D01*
X124503919Y-102564755D01*
X124686237Y-102471859D01*
X124730809Y-102439474D01*
X124051335Y-101760000D01*
X124057549Y-101760000D01*
X124159282Y-101732741D01*
X124250494Y-101680080D01*
X124324968Y-101605606D01*
X124377629Y-101514394D01*
X124404888Y-101412661D01*
X124404888Y-101406448D01*
X125084362Y-102085922D01*
X125084362Y-102085921D01*
X125116747Y-102041349D01*
X125209643Y-101859031D01*
X125272878Y-101664417D01*
X125304888Y-101462316D01*
X125304888Y-101257682D01*
X125272878Y-101055582D01*
X125209643Y-100860968D01*
X125116747Y-100678650D01*
X125084362Y-100634077D01*
X125084362Y-100634076D01*
X124404888Y-101313551D01*
X124404888Y-101307339D01*
X124377629Y-101205606D01*
X124324968Y-101114394D01*
X124250494Y-101039920D01*
X124159282Y-100987259D01*
X124057549Y-100960000D01*
X124051334Y-100960000D01*
X124730810Y-100280524D01*
X124730809Y-100280523D01*
X124686247Y-100248147D01*
X124686238Y-100248141D01*
X124503919Y-100155244D01*
X124309305Y-100092009D01*
X124107205Y-100060000D01*
X123902571Y-100060000D01*
X123700470Y-100092009D01*
X123505856Y-100155244D01*
X123323539Y-100248139D01*
X123253332Y-100299148D01*
X123187525Y-100322627D01*
X123119471Y-100306801D01*
X123092766Y-100286510D01*
X123023545Y-100217289D01*
X123023544Y-100217288D01*
X122922954Y-100155244D01*
X122874224Y-100125187D01*
X122874219Y-100125185D01*
X122872750Y-100124698D01*
X122707685Y-100070001D01*
X122707683Y-100070000D01*
X122604898Y-100059500D01*
X121404886Y-100059500D01*
X121404869Y-100059501D01*
X121302091Y-100070000D01*
X121302088Y-100070001D01*
X121135556Y-100125185D01*
X121135551Y-100125187D01*
X120986230Y-100217289D01*
X120862177Y-100341342D01*
X120770075Y-100490663D01*
X120770073Y-100490668D01*
X120754309Y-100538242D01*
X120714889Y-100657203D01*
X120714889Y-100657204D01*
X120714888Y-100657204D01*
X120704388Y-100759983D01*
X120704388Y-101960001D01*
X120704389Y-101960018D01*
X120714888Y-102062796D01*
X120714889Y-102062799D01*
X120737958Y-102132415D01*
X120770074Y-102229334D01*
X120862176Y-102378656D01*
X120986232Y-102502712D01*
X121135554Y-102594814D01*
X121302091Y-102649999D01*
X121302097Y-102649999D01*
X121306336Y-102650907D01*
X121367772Y-102684185D01*
X121401464Y-102745394D01*
X121404388Y-102772162D01*
X121404388Y-107825014D01*
X121384703Y-107892053D01*
X121368069Y-107912695D01*
X120714682Y-108566081D01*
X120653359Y-108599566D01*
X120588683Y-108596331D01*
X120560390Y-108587138D01*
X120354324Y-108554500D01*
X120354319Y-108554500D01*
X120145681Y-108554500D01*
X120145676Y-108554500D01*
X119939610Y-108587137D01*
X119741179Y-108651612D01*
X119555285Y-108746330D01*
X119386493Y-108868966D01*
X119238966Y-109016493D01*
X119116330Y-109185285D01*
X119090485Y-109236010D01*
X119042510Y-109286806D01*
X118974690Y-109303601D01*
X118908555Y-109281064D01*
X118869515Y-109236010D01*
X118843669Y-109185285D01*
X118812241Y-109142028D01*
X118721035Y-109016495D01*
X118573505Y-108868965D01*
X118404714Y-108746330D01*
X118218820Y-108651612D01*
X118020389Y-108587137D01*
X117814324Y-108554500D01*
X117814319Y-108554500D01*
X117605681Y-108554500D01*
X117605676Y-108554500D01*
X117399610Y-108587137D01*
X117201179Y-108651612D01*
X117015285Y-108746330D01*
X116846493Y-108868966D01*
X116698966Y-109016493D01*
X116628883Y-109112954D01*
X116573552Y-109155619D01*
X116503939Y-109161598D01*
X116442144Y-109128992D01*
X116418080Y-109096363D01*
X116352425Y-108967507D01*
X116231645Y-108818354D01*
X116134559Y-108739737D01*
X116082494Y-108697576D01*
X115911492Y-108610446D01*
X115911491Y-108610445D01*
X115911490Y-108610445D01*
X115726109Y-108560772D01*
X115646409Y-108554500D01*
X115646402Y-108554500D01*
X115494500Y-108554500D01*
X115427461Y-108534815D01*
X115381706Y-108482011D01*
X115370500Y-108430500D01*
X115370500Y-104279601D01*
X115390185Y-104212562D01*
X115438206Y-104169116D01*
X115451610Y-104162287D01*
X115617219Y-104041966D01*
X115761966Y-103897219D01*
X115761968Y-103897215D01*
X115761971Y-103897213D01*
X115818544Y-103819346D01*
X115882287Y-103731610D01*
X115975220Y-103549219D01*
X116038477Y-103354534D01*
X116070500Y-103152352D01*
X116070500Y-102947648D01*
X116066200Y-102920499D01*
X116038477Y-102745465D01*
X116006451Y-102646901D01*
X115975220Y-102550781D01*
X115975218Y-102550778D01*
X115975218Y-102550776D01*
X115918506Y-102439474D01*
X115882287Y-102368390D01*
X115855847Y-102331998D01*
X115761971Y-102202786D01*
X115617213Y-102058028D01*
X115451613Y-101937715D01*
X115451612Y-101937714D01*
X115451610Y-101937713D01*
X115351119Y-101886510D01*
X115269223Y-101844781D01*
X115074534Y-101781522D01*
X114899995Y-101753878D01*
X114872352Y-101749500D01*
X114667648Y-101749500D01*
X114643329Y-101753351D01*
X114465465Y-101781522D01*
X114270776Y-101844781D01*
X114088386Y-101937715D01*
X113922786Y-102058028D01*
X113778028Y-102202786D01*
X113657715Y-102368386D01*
X113564781Y-102550776D01*
X113501522Y-102745465D01*
X113469500Y-102947648D01*
X113469500Y-103152351D01*
X113501522Y-103354534D01*
X113564781Y-103549223D01*
X113607223Y-103632518D01*
X113655688Y-103727636D01*
X113657715Y-103731613D01*
X113778028Y-103897213D01*
X113778034Y-103897219D01*
X113922781Y-104041966D01*
X114088390Y-104162287D01*
X114101793Y-104169116D01*
X114152589Y-104217088D01*
X114169500Y-104279601D01*
X114169500Y-108709696D01*
X114149815Y-108776735D01*
X114123536Y-108806061D01*
X114108355Y-108818354D01*
X113987575Y-108967507D01*
X113900445Y-109138509D01*
X113850772Y-109323890D01*
X113844500Y-109403590D01*
X113844500Y-110356409D01*
X113850772Y-110436109D01*
X113898128Y-110612840D01*
X113900446Y-110621492D01*
X113987576Y-110792494D01*
X114033778Y-110849549D01*
X114108354Y-110941645D01*
X114182930Y-111002034D01*
X114257506Y-111062424D01*
X114428508Y-111149554D01*
X114613889Y-111199227D01*
X114693598Y-111205500D01*
X114693606Y-111205500D01*
X115646394Y-111205500D01*
X115646402Y-111205500D01*
X115726111Y-111199227D01*
X115911492Y-111149554D01*
X116082494Y-111062424D01*
X116231645Y-110941645D01*
X116352424Y-110792494D01*
X116418080Y-110663636D01*
X116466054Y-110612840D01*
X116533875Y-110596045D01*
X116600010Y-110618582D01*
X116628879Y-110647041D01*
X116698965Y-110743505D01*
X116846495Y-110891035D01*
X117015286Y-111013670D01*
X117103116Y-111058421D01*
X117201179Y-111108387D01*
X117201181Y-111108387D01*
X117201184Y-111108389D01*
X117299048Y-111140187D01*
X117399610Y-111172862D01*
X117605676Y-111205500D01*
X117605681Y-111205500D01*
X117814324Y-111205500D01*
X117907987Y-111190664D01*
X118020389Y-111172862D01*
X118048685Y-111163667D01*
X118118523Y-111161672D01*
X118174682Y-111193918D01*
X118248583Y-111267819D01*
X118282068Y-111329142D01*
X118277084Y-111398834D01*
X118235212Y-111454767D01*
X118169748Y-111479184D01*
X118160902Y-111479500D01*
X109980097Y-111479500D01*
X109913058Y-111459815D01*
X109892416Y-111443181D01*
X107866818Y-109417583D01*
X107833333Y-109356260D01*
X107830499Y-109329902D01*
X107830499Y-107982129D01*
X107830498Y-107982123D01*
X107830497Y-107982116D01*
X107824091Y-107922517D01*
X107822504Y-107918263D01*
X107773797Y-107787671D01*
X107773793Y-107787664D01*
X107687547Y-107672455D01*
X107687544Y-107672452D01*
X107572335Y-107586206D01*
X107572328Y-107586202D01*
X107437482Y-107535908D01*
X107437483Y-107535908D01*
X107377883Y-107529501D01*
X107377881Y-107529500D01*
X107377873Y-107529500D01*
X107377865Y-107529500D01*
X107204500Y-107529500D01*
X107137461Y-107509815D01*
X107091706Y-107457011D01*
X107080500Y-107405500D01*
X107080500Y-104474500D01*
X107100185Y-104407461D01*
X107152989Y-104361706D01*
X107204500Y-104350500D01*
X107252351Y-104350500D01*
X107252352Y-104350500D01*
X107454534Y-104318477D01*
X107649219Y-104255220D01*
X107831610Y-104162287D01*
X107957532Y-104070800D01*
X107997213Y-104041971D01*
X107997215Y-104041968D01*
X107997219Y-104041966D01*
X108141966Y-103897219D01*
X108141968Y-103897215D01*
X108141971Y-103897213D01*
X108198544Y-103819346D01*
X108262287Y-103731610D01*
X108355220Y-103549219D01*
X108418477Y-103354534D01*
X108450500Y-103152352D01*
X108450500Y-102947648D01*
X108446200Y-102920499D01*
X108418477Y-102745465D01*
X108386451Y-102646901D01*
X108355220Y-102550781D01*
X108355218Y-102550778D01*
X108355218Y-102550776D01*
X108298506Y-102439474D01*
X108262287Y-102368390D01*
X108235847Y-102331998D01*
X108141971Y-102202786D01*
X107997213Y-102058028D01*
X107831613Y-101937715D01*
X107831612Y-101937714D01*
X107831610Y-101937713D01*
X107731119Y-101886510D01*
X107649223Y-101844781D01*
X107454534Y-101781522D01*
X107279995Y-101753878D01*
X107252352Y-101749500D01*
X107047648Y-101749500D01*
X107023329Y-101753351D01*
X106845465Y-101781522D01*
X106650776Y-101844781D01*
X106468386Y-101937715D01*
X106302786Y-102058028D01*
X106158028Y-102202786D01*
X106037715Y-102368386D01*
X105944781Y-102550776D01*
X105881522Y-102745465D01*
X105849500Y-102947648D01*
X105849500Y-103152351D01*
X105881522Y-103354534D01*
X105894709Y-103395118D01*
X105910689Y-103444299D01*
X105911122Y-103445630D01*
X105913117Y-103515472D01*
X105912966Y-103516042D01*
X105879499Y-103640943D01*
X105879499Y-103809046D01*
X105879500Y-103809059D01*
X105879500Y-107405500D01*
X105859815Y-107472539D01*
X105807011Y-107518294D01*
X105755501Y-107529500D01*
X105582130Y-107529500D01*
X105582123Y-107529501D01*
X105522516Y-107535908D01*
X105387671Y-107586202D01*
X105387664Y-107586206D01*
X105272455Y-107672452D01*
X105272452Y-107672455D01*
X105186206Y-107787664D01*
X105186202Y-107787671D01*
X105135908Y-107922517D01*
X105131609Y-107962511D01*
X105129501Y-107982123D01*
X105129500Y-107982135D01*
X103770500Y-107982135D01*
X103770500Y-97094500D01*
X103790185Y-97027461D01*
X103842989Y-96981706D01*
X103894500Y-96970500D01*
X126554108Y-96970500D01*
X138296338Y-96970500D01*
X138363377Y-96990185D01*
G37*
%TD.AperFunction*%
%TA.AperFunction,Conductor*%
G36*
X152543548Y-84219570D02*
G01*
X152599482Y-84261441D01*
X152616398Y-84292419D01*
X152646202Y-84372328D01*
X152646206Y-84372335D01*
X152732452Y-84487544D01*
X152732455Y-84487547D01*
X152847664Y-84573793D01*
X152847671Y-84573797D01*
X152982517Y-84624091D01*
X152982516Y-84624091D01*
X152989444Y-84624835D01*
X153042127Y-84630500D01*
X154489902Y-84630499D01*
X154556941Y-84650184D01*
X154577583Y-84666818D01*
X157473929Y-87563164D01*
X157507414Y-87624487D01*
X157502430Y-87694179D01*
X157495969Y-87708614D01*
X157491394Y-87717302D01*
X157446204Y-87777669D01*
X157413633Y-87864995D01*
X157409937Y-87872016D01*
X157390906Y-87891633D01*
X157374526Y-87913514D01*
X157366931Y-87916346D01*
X157361287Y-87922165D01*
X157334670Y-87928379D01*
X157309062Y-87937931D01*
X157301141Y-87936207D01*
X157293247Y-87938051D01*
X157267495Y-87928888D01*
X157240789Y-87923079D01*
X157231389Y-87916042D01*
X157227420Y-87914630D01*
X157224563Y-87910932D01*
X157212535Y-87901928D01*
X157162363Y-87851756D01*
X157162358Y-87851752D01*
X156984025Y-87722187D01*
X156984024Y-87722186D01*
X156984022Y-87722185D01*
X156866791Y-87662452D01*
X156787606Y-87622104D01*
X156787603Y-87622103D01*
X156577952Y-87553985D01*
X156469086Y-87536742D01*
X156360222Y-87519500D01*
X156139778Y-87519500D01*
X156067201Y-87530995D01*
X155922047Y-87553985D01*
X155712396Y-87622103D01*
X155712393Y-87622104D01*
X155515974Y-87722187D01*
X155337641Y-87851752D01*
X155337636Y-87851756D01*
X155181756Y-88007636D01*
X155181752Y-88007641D01*
X155052187Y-88185974D01*
X154952104Y-88382393D01*
X154952103Y-88382396D01*
X154883985Y-88592047D01*
X154849500Y-88809778D01*
X154849500Y-89030221D01*
X154883985Y-89247952D01*
X154952103Y-89457603D01*
X154952104Y-89457606D01*
X155052187Y-89654025D01*
X155181752Y-89832358D01*
X155181756Y-89832363D01*
X155337636Y-89988243D01*
X155337641Y-89988247D01*
X155439606Y-90062328D01*
X155515978Y-90117815D01*
X155644375Y-90183237D01*
X155712393Y-90217895D01*
X155712396Y-90217896D01*
X155817221Y-90251955D01*
X155922049Y-90286015D01*
X156139778Y-90320500D01*
X156139779Y-90320500D01*
X156360221Y-90320500D01*
X156360222Y-90320500D01*
X156577951Y-90286015D01*
X156787606Y-90217895D01*
X156984022Y-90117815D01*
X157162365Y-89988242D01*
X157212536Y-89938070D01*
X157273857Y-89904586D01*
X157343548Y-89909570D01*
X157399482Y-89951441D01*
X157416398Y-89982419D01*
X157446202Y-90062328D01*
X157446206Y-90062335D01*
X157532452Y-90177544D01*
X157532455Y-90177547D01*
X157647664Y-90263793D01*
X157647671Y-90263797D01*
X157782517Y-90314091D01*
X157782516Y-90314091D01*
X157789444Y-90314835D01*
X157842127Y-90320500D01*
X159389902Y-90320499D01*
X159456941Y-90340184D01*
X159477583Y-90356818D01*
X161578584Y-92457819D01*
X161612069Y-92519142D01*
X161607085Y-92588834D01*
X161565213Y-92644767D01*
X161499749Y-92669184D01*
X161490903Y-92669500D01*
X161389778Y-92669500D01*
X161321969Y-92680240D01*
X161172047Y-92703985D01*
X160962396Y-92772103D01*
X160962393Y-92772104D01*
X160765974Y-92872187D01*
X160587641Y-93001752D01*
X160587636Y-93001756D01*
X160431756Y-93157636D01*
X160431752Y-93157641D01*
X160302187Y-93335974D01*
X160202104Y-93532393D01*
X160202103Y-93532396D01*
X160133985Y-93742047D01*
X160099500Y-93959778D01*
X160099500Y-94180221D01*
X160133985Y-94397952D01*
X160202103Y-94607603D01*
X160202104Y-94607606D01*
X160302187Y-94804025D01*
X160431752Y-94982358D01*
X160431756Y-94982363D01*
X160587636Y-95138243D01*
X160587641Y-95138247D01*
X160689606Y-95212328D01*
X160765978Y-95267815D01*
X160894375Y-95333237D01*
X160962393Y-95367895D01*
X160962396Y-95367896D01*
X161067221Y-95401955D01*
X161172049Y-95436015D01*
X161389778Y-95470500D01*
X161389779Y-95470500D01*
X161610221Y-95470500D01*
X161610222Y-95470500D01*
X161827951Y-95436015D01*
X162037606Y-95367895D01*
X162234022Y-95267815D01*
X162412365Y-95138242D01*
X162462536Y-95088070D01*
X162523857Y-95054586D01*
X162593548Y-95059570D01*
X162649482Y-95101441D01*
X162666398Y-95132419D01*
X162696202Y-95212328D01*
X162696206Y-95212335D01*
X162782452Y-95327544D01*
X162782455Y-95327547D01*
X162897664Y-95413793D01*
X162897671Y-95413797D01*
X163032517Y-95464091D01*
X163032516Y-95464091D01*
X163039444Y-95464835D01*
X163092127Y-95470500D01*
X164539902Y-95470499D01*
X164606941Y-95490184D01*
X164627583Y-95506818D01*
X166990048Y-97869284D01*
X167023533Y-97930607D01*
X167018549Y-98000299D01*
X166976677Y-98056232D01*
X166911213Y-98080649D01*
X166882970Y-98079438D01*
X166820222Y-98069500D01*
X166599778Y-98069500D01*
X166537032Y-98079438D01*
X166382047Y-98103985D01*
X166172396Y-98172103D01*
X166172393Y-98172104D01*
X165975974Y-98272187D01*
X165797641Y-98401752D01*
X165797636Y-98401756D01*
X165641756Y-98557636D01*
X165641752Y-98557641D01*
X165512187Y-98735974D01*
X165412104Y-98932393D01*
X165412103Y-98932396D01*
X165343985Y-99142047D01*
X165336573Y-99188844D01*
X165309500Y-99359778D01*
X165309500Y-99580222D01*
X165323704Y-99669901D01*
X165343692Y-99796102D01*
X165334737Y-99865396D01*
X165289741Y-99918848D01*
X165222990Y-99939487D01*
X165221219Y-99939500D01*
X155741941Y-99939500D01*
X155674902Y-99919815D01*
X155629147Y-99867011D01*
X155619203Y-99797853D01*
X155648228Y-99734297D01*
X155654260Y-99727819D01*
X155761786Y-99620292D01*
X155761789Y-99620289D01*
X155849394Y-99489179D01*
X155909737Y-99343497D01*
X155940500Y-99188842D01*
X155940500Y-99031158D01*
X155940500Y-99031155D01*
X155940499Y-99031153D01*
X155909738Y-98876510D01*
X155909737Y-98876503D01*
X155909445Y-98875798D01*
X155849397Y-98730827D01*
X155849390Y-98730814D01*
X155761789Y-98599711D01*
X155761786Y-98599707D01*
X155650292Y-98488213D01*
X155650288Y-98488210D01*
X155519185Y-98400609D01*
X155519172Y-98400602D01*
X155373501Y-98340264D01*
X155373489Y-98340261D01*
X155218845Y-98309500D01*
X155218842Y-98309500D01*
X155061158Y-98309500D01*
X155061155Y-98309500D01*
X154906510Y-98340261D01*
X154906498Y-98340264D01*
X154760827Y-98400602D01*
X154760814Y-98400609D01*
X154629125Y-98488602D01*
X154562447Y-98509480D01*
X154560234Y-98509500D01*
X148021888Y-98509500D01*
X147954849Y-98489815D01*
X147909094Y-98437011D01*
X147899150Y-98367853D01*
X147903957Y-98347182D01*
X147929440Y-98268751D01*
X147929440Y-98268750D01*
X147957700Y-98090331D01*
X147957700Y-97909668D01*
X147929440Y-97731249D01*
X147873613Y-97559433D01*
X147791602Y-97398477D01*
X147780439Y-97383112D01*
X147203700Y-97959851D01*
X147203700Y-97948168D01*
X147176870Y-97848038D01*
X147125038Y-97758263D01*
X147051737Y-97684962D01*
X146961962Y-97633130D01*
X146861832Y-97606300D01*
X146850147Y-97606300D01*
X147449627Y-97006819D01*
X147510950Y-96973334D01*
X147537308Y-96970500D01*
X150035890Y-96970500D01*
X150035892Y-96970500D01*
X150163186Y-96936392D01*
X150277314Y-96870500D01*
X150370500Y-96777314D01*
X150436392Y-96663186D01*
X150470500Y-96535892D01*
X150470500Y-86429221D01*
X150470500Y-84492829D01*
X150490185Y-84425790D01*
X150542989Y-84380035D01*
X150612147Y-84370091D01*
X150667385Y-84392511D01*
X150710005Y-84423475D01*
X150715978Y-84427815D01*
X150843574Y-84492829D01*
X150912393Y-84527895D01*
X150912396Y-84527896D01*
X151017221Y-84561955D01*
X151122049Y-84596015D01*
X151339778Y-84630500D01*
X151339779Y-84630500D01*
X151560221Y-84630500D01*
X151560222Y-84630500D01*
X151777951Y-84596015D01*
X151987606Y-84527895D01*
X152184022Y-84427815D01*
X152362365Y-84298242D01*
X152412536Y-84248070D01*
X152473857Y-84214586D01*
X152543548Y-84219570D01*
G37*
%TD.AperFunction*%
%TA.AperFunction,Conductor*%
G36*
X146149730Y-96990185D02*
G01*
X146170372Y-97006819D01*
X146769854Y-97606300D01*
X146758168Y-97606300D01*
X146658038Y-97633130D01*
X146568263Y-97684962D01*
X146494962Y-97758263D01*
X146443130Y-97848038D01*
X146416300Y-97948168D01*
X146416300Y-97959853D01*
X145839559Y-97383112D01*
X145839558Y-97383112D01*
X145828400Y-97398472D01*
X145828397Y-97398476D01*
X145746386Y-97559433D01*
X145690559Y-97731249D01*
X145662300Y-97909668D01*
X145662300Y-98090331D01*
X145690559Y-98268750D01*
X145690559Y-98268751D01*
X145716043Y-98347182D01*
X145718038Y-98417023D01*
X145681958Y-98476856D01*
X145619257Y-98507684D01*
X145598112Y-98509500D01*
X140600097Y-98509500D01*
X140570656Y-98500855D01*
X140540670Y-98494332D01*
X140535654Y-98490577D01*
X140533058Y-98489815D01*
X140512416Y-98473181D01*
X140354353Y-98315118D01*
X140320868Y-98253795D01*
X140319561Y-98208044D01*
X140338200Y-98090365D01*
X140338200Y-97909635D01*
X140309927Y-97731129D01*
X140254078Y-97559244D01*
X140172028Y-97398212D01*
X140161057Y-97383112D01*
X140065803Y-97252003D01*
X139995981Y-97182181D01*
X139962496Y-97120858D01*
X139967480Y-97051166D01*
X140009352Y-96995233D01*
X140074816Y-96970816D01*
X140083662Y-96970500D01*
X146082691Y-96970500D01*
X146149730Y-96990185D01*
G37*
%TD.AperFunction*%
%TD*%
M02*
