M48
; DRILL file {KiCad 9.0.6} date 2026-07-05T22:23:30+0300
; FORMAT={-:-/ absolute / metric / decimal}
; #@! TF.CreationDate,2026-07-05T22:23:30+03:00
; #@! TF.GenerationSoftware,Kicad,Pcbnew,9.0.6
; #@! TF.FileFunction,Plated,1,2,PTH
FMAT,2
METRIC
; #@! TA.AperFunction,Plated,PTH,ViaDrill
T1C0.300
; #@! TA.AperFunction,Plated,PTH,ComponentDrill
T2C0.787
; #@! TA.AperFunction,Plated,PTH,ComponentDrill
T3C0.800
; #@! TA.AperFunction,Plated,PTH,ComponentDrill
T4C0.850
; #@! TA.AperFunction,Plated,PTH,ComponentDrill
T5C0.900
; #@! TA.AperFunction,Plated,PTH,ComponentDrill
T6C1.000
%
G90
G05
T1
X131.29Y-112.22
X150.72Y-110.57
X153.55Y-104.63
X155.14Y-99.11
X156.02Y-113.25
X161.28Y-107.97
X162.57Y-103.26
X164.21Y-102.12
X164.21Y-104.4
X166.49Y-105.72
T2
X139.19Y-98.0
X139.19Y-100.54
X139.19Y-103.08
X139.19Y-105.62
X139.19Y-108.16
X139.19Y-110.7
X139.19Y-113.24
X139.19Y-115.78
X146.81Y-98.0
X146.81Y-100.54
X146.81Y-103.08
X146.81Y-105.62
X146.81Y-108.16
X146.81Y-110.7
X146.81Y-113.24
X146.81Y-115.78
T3
X107.15Y-103.05
X114.77Y-103.05
X122.005Y-101.36
X124.005Y-101.36
X127.14Y-106.63
X127.14Y-109.17
X127.14Y-111.71
X127.14Y-114.25
X134.76Y-106.63
X134.76Y-109.17
X134.76Y-111.71
X134.76Y-114.25
X139.01Y-120.52
X146.63Y-120.52
T4
X115.17Y-109.88
X117.71Y-109.88
X120.25Y-109.88
T5
X151.41Y-135.68
X151.45Y-83.23
X153.95Y-135.68
X153.99Y-83.23
X156.25Y-88.92
X156.88Y-130.12
X158.79Y-88.92
X159.42Y-130.12
X161.5Y-94.07
X162.09Y-124.87
X164.04Y-94.07
X164.63Y-124.87
X166.71Y-99.47
X167.39Y-119.65
X169.25Y-99.47
X169.93Y-119.65
X172.07Y-104.64
X172.19Y-115.02
X174.61Y-104.64
X174.73Y-115.02
T6
X106.48Y-108.88
X106.48Y-111.42
X128.99Y-100.07
X133.99Y-100.07
M30
