%TF.GenerationSoftware,KiCad,Pcbnew,9.0.6*%
%TF.CreationDate,2026-07-05T22:22:31+03:00*%
%TF.ProjectId,blinky board,626c696e-6b79-4206-926f-6172642e6b69,rev?*%
%TF.SameCoordinates,Original*%
%TF.FileFunction,Soldermask,Bot*%
%TF.FilePolarity,Negative*%
%FSLAX46Y46*%
G04 Gerber Fmt 4.6, Leading zero omitted, Abs format (unit mm)*
G04 Created by KiCad (PCBNEW 9.0.6) date 2026-07-05 22:22:31*
%MOMM*%
%LPD*%
G01*
G04 APERTURE LIST*
G04 Aperture macros list*
%AMRoundRect*
0 Rectangle with rounded corners*
0 $1 Rounding radius*
0 $2 $3 $4 $5 $6 $7 $8 $9 X,Y pos of 4 corners*
0 Add a 4 corners polygon primitive as box body*
4,1,4,$2,$3,$4,$5,$6,$7,$8,$9,$2,$3,0*
0 Add four circle primitives for the rounded corners*
1,1,$1+$1,$2,$3*
1,1,$1+$1,$4,$5*
1,1,$1+$1,$6,$7*
1,1,$1+$1,$8,$9*
0 Add four rect primitives between the rounded corners*
20,1,$1+$1,$2,$3,$4,$5,0*
20,1,$1+$1,$4,$5,$6,$7,0*
20,1,$1+$1,$6,$7,$8,$9,0*
20,1,$1+$1,$8,$9,$2,$3,0*%
G04 Aperture macros list end*
%ADD10R,1.800000X1.800000*%
%ADD11C,1.800000*%
%ADD12RoundRect,0.412500X-0.412500X-0.412500X0.412500X-0.412500X0.412500X0.412500X-0.412500X0.412500X0*%
%ADD13C,1.650000*%
%ADD14C,1.600000*%
%ADD15R,1.295400X1.295400*%
%ADD16C,1.295400*%
%ADD17RoundRect,0.250000X-0.550000X-0.550000X0.550000X-0.550000X0.550000X0.550000X-0.550000X0.550000X0*%
%ADD18RoundRect,0.250000X0.550000X0.550000X-0.550000X0.550000X-0.550000X-0.550000X0.550000X-0.550000X0*%
%ADD19C,2.000000*%
%ADD20R,1.700000X1.700000*%
%ADD21C,1.700000*%
G04 APERTURE END LIST*
D10*
%TO.C,D2LED3*%
X169250000Y-99470000D03*
D11*
X166710000Y-99470000D03*
%TD*%
D12*
%TO.C,RV1*%
X115170000Y-109880000D03*
D13*
X117710000Y-109880000D03*
X120250000Y-109880000D03*
%TD*%
D10*
%TO.C,D2LED1*%
X158790000Y-88920000D03*
D11*
X156250000Y-88920000D03*
%TD*%
D10*
%TO.C,D2LED9*%
X151410000Y-135680000D03*
D11*
X153950000Y-135680000D03*
%TD*%
D10*
%TO.C,D1LED1*%
X153990000Y-83230000D03*
D11*
X151450000Y-83230000D03*
%TD*%
D10*
%TO.C,D2LED2*%
X164040000Y-94070000D03*
D11*
X161500000Y-94070000D03*
%TD*%
D10*
%TO.C,D2LED8*%
X159420000Y-130120000D03*
D11*
X156880000Y-130120000D03*
%TD*%
D14*
%TO.C,R1*%
X107150000Y-103050000D03*
X114770000Y-103050000D03*
%TD*%
%TO.C,R2*%
X146630000Y-120520000D03*
X139010000Y-120520000D03*
%TD*%
D10*
%TO.C,D2LED6*%
X169930000Y-119650000D03*
D11*
X167390000Y-119650000D03*
%TD*%
D15*
%TO.C,U2*%
X146810000Y-115780000D03*
D16*
X146810000Y-113240000D03*
X146810000Y-110700000D03*
X146810000Y-108160000D03*
X146810000Y-105620000D03*
X146810000Y-103080000D03*
X146810000Y-100540000D03*
X146810000Y-98000000D03*
X139190000Y-98000000D03*
X139190000Y-100540000D03*
X139190000Y-103080000D03*
X139190000Y-105620000D03*
X139190000Y-108160000D03*
X139190000Y-110700000D03*
X139190000Y-113240000D03*
X139190000Y-115780000D03*
%TD*%
D17*
%TO.C,C1*%
X122004888Y-101360000D03*
D14*
X124004888Y-101360000D03*
%TD*%
D18*
%TO.C,U1*%
X134760000Y-114250000D03*
D14*
X134760000Y-111710000D03*
X134760000Y-109170000D03*
X134760000Y-106630000D03*
X127140000Y-106630000D03*
X127140000Y-109170000D03*
X127140000Y-111710000D03*
X127140000Y-114250000D03*
%TD*%
D10*
%TO.C,D2LED4*%
X174610000Y-104640000D03*
D11*
X172070000Y-104640000D03*
%TD*%
D19*
%TO.C,C2*%
X128990000Y-100070000D03*
X133990000Y-100070000D03*
%TD*%
D10*
%TO.C,D2LED5*%
X174730000Y-115020000D03*
D11*
X172190000Y-115020000D03*
%TD*%
D10*
%TO.C,D2LED7*%
X164630000Y-124870000D03*
D11*
X162090000Y-124870000D03*
%TD*%
D20*
%TO.C,J2*%
X106480000Y-108880000D03*
D21*
X106480000Y-111420000D03*
%TD*%
M02*
