%TF.GenerationSoftware,KiCad,Pcbnew,9.0.6*%
%TF.CreationDate,2026-07-05T22:22:31+03:00*%
%TF.ProjectId,blinky board,626c696e-6b79-4206-926f-6172642e6b69,rev?*%
%TF.SameCoordinates,Original*%
%TF.FileFunction,Legend,Top*%
%TF.FilePolarity,Positive*%
%FSLAX46Y46*%
G04 Gerber Fmt 4.6, Leading zero omitted, Abs format (unit mm)*
G04 Created by KiCad (PCBNEW 9.0.6) date 2026-07-05 22:22:31*
%MOMM*%
%LPD*%
G01*
G04 APERTURE LIST*
%ADD10C,0.187500*%
%ADD11C,0.150000*%
%ADD12C,0.120000*%
%ADD13C,0.152400*%
G04 APERTURE END LIST*
D10*
X105290497Y-122046678D02*
X105290497Y-120546678D01*
X105290497Y-120546678D02*
X105790497Y-121618107D01*
X105790497Y-121618107D02*
X106290497Y-120546678D01*
X106290497Y-120546678D02*
X106290497Y-122046678D01*
X107647641Y-122046678D02*
X107647641Y-121260964D01*
X107647641Y-121260964D02*
X107576212Y-121118107D01*
X107576212Y-121118107D02*
X107433355Y-121046678D01*
X107433355Y-121046678D02*
X107147641Y-121046678D01*
X107147641Y-121046678D02*
X107004783Y-121118107D01*
X107647641Y-121975250D02*
X107504783Y-122046678D01*
X107504783Y-122046678D02*
X107147641Y-122046678D01*
X107147641Y-122046678D02*
X107004783Y-121975250D01*
X107004783Y-121975250D02*
X106933355Y-121832392D01*
X106933355Y-121832392D02*
X106933355Y-121689535D01*
X106933355Y-121689535D02*
X107004783Y-121546678D01*
X107004783Y-121546678D02*
X107147641Y-121475250D01*
X107147641Y-121475250D02*
X107504783Y-121475250D01*
X107504783Y-121475250D02*
X107647641Y-121403821D01*
X109004784Y-122046678D02*
X109004784Y-120546678D01*
X109004784Y-121975250D02*
X108861926Y-122046678D01*
X108861926Y-122046678D02*
X108576212Y-122046678D01*
X108576212Y-122046678D02*
X108433355Y-121975250D01*
X108433355Y-121975250D02*
X108361926Y-121903821D01*
X108361926Y-121903821D02*
X108290498Y-121760964D01*
X108290498Y-121760964D02*
X108290498Y-121332392D01*
X108290498Y-121332392D02*
X108361926Y-121189535D01*
X108361926Y-121189535D02*
X108433355Y-121118107D01*
X108433355Y-121118107D02*
X108576212Y-121046678D01*
X108576212Y-121046678D02*
X108861926Y-121046678D01*
X108861926Y-121046678D02*
X109004784Y-121118107D01*
X110290498Y-121975250D02*
X110147641Y-122046678D01*
X110147641Y-122046678D02*
X109861927Y-122046678D01*
X109861927Y-122046678D02*
X109719069Y-121975250D01*
X109719069Y-121975250D02*
X109647641Y-121832392D01*
X109647641Y-121832392D02*
X109647641Y-121260964D01*
X109647641Y-121260964D02*
X109719069Y-121118107D01*
X109719069Y-121118107D02*
X109861927Y-121046678D01*
X109861927Y-121046678D02*
X110147641Y-121046678D01*
X110147641Y-121046678D02*
X110290498Y-121118107D01*
X110290498Y-121118107D02*
X110361927Y-121260964D01*
X110361927Y-121260964D02*
X110361927Y-121403821D01*
X110361927Y-121403821D02*
X109647641Y-121546678D01*
X112647640Y-121260964D02*
X112861926Y-121332392D01*
X112861926Y-121332392D02*
X112933355Y-121403821D01*
X112933355Y-121403821D02*
X113004783Y-121546678D01*
X113004783Y-121546678D02*
X113004783Y-121760964D01*
X113004783Y-121760964D02*
X112933355Y-121903821D01*
X112933355Y-121903821D02*
X112861926Y-121975250D01*
X112861926Y-121975250D02*
X112719069Y-122046678D01*
X112719069Y-122046678D02*
X112147640Y-122046678D01*
X112147640Y-122046678D02*
X112147640Y-120546678D01*
X112147640Y-120546678D02*
X112647640Y-120546678D01*
X112647640Y-120546678D02*
X112790498Y-120618107D01*
X112790498Y-120618107D02*
X112861926Y-120689535D01*
X112861926Y-120689535D02*
X112933355Y-120832392D01*
X112933355Y-120832392D02*
X112933355Y-120975250D01*
X112933355Y-120975250D02*
X112861926Y-121118107D01*
X112861926Y-121118107D02*
X112790498Y-121189535D01*
X112790498Y-121189535D02*
X112647640Y-121260964D01*
X112647640Y-121260964D02*
X112147640Y-121260964D01*
X113504783Y-121046678D02*
X113861926Y-122046678D01*
X114219069Y-121046678D02*
X113861926Y-122046678D01*
X113861926Y-122046678D02*
X113719069Y-122403821D01*
X113719069Y-122403821D02*
X113647640Y-122475250D01*
X113647640Y-122475250D02*
X113504783Y-122546678D01*
X115933354Y-121260964D02*
X116433354Y-121260964D01*
X116647640Y-122046678D02*
X115933354Y-122046678D01*
X115933354Y-122046678D02*
X115933354Y-120546678D01*
X115933354Y-120546678D02*
X116647640Y-120546678D01*
X117147640Y-121046678D02*
X117504783Y-122046678D01*
X117861926Y-121046678D02*
X117504783Y-122046678D01*
X117504783Y-122046678D02*
X117361926Y-122403821D01*
X117361926Y-122403821D02*
X117290497Y-122475250D01*
X117290497Y-122475250D02*
X117147640Y-122546678D01*
X118433354Y-122046678D02*
X118433354Y-121046678D01*
X118433354Y-121189535D02*
X118504783Y-121118107D01*
X118504783Y-121118107D02*
X118647640Y-121046678D01*
X118647640Y-121046678D02*
X118861926Y-121046678D01*
X118861926Y-121046678D02*
X119004783Y-121118107D01*
X119004783Y-121118107D02*
X119076212Y-121260964D01*
X119076212Y-121260964D02*
X119076212Y-122046678D01*
X119076212Y-121260964D02*
X119147640Y-121118107D01*
X119147640Y-121118107D02*
X119290497Y-121046678D01*
X119290497Y-121046678D02*
X119504783Y-121046678D01*
X119504783Y-121046678D02*
X119647640Y-121118107D01*
X119647640Y-121118107D02*
X119719069Y-121260964D01*
X119719069Y-121260964D02*
X119719069Y-122046678D01*
X121004783Y-121975250D02*
X120861926Y-122046678D01*
X120861926Y-122046678D02*
X120576212Y-122046678D01*
X120576212Y-122046678D02*
X120433354Y-121975250D01*
X120433354Y-121975250D02*
X120361926Y-121832392D01*
X120361926Y-121832392D02*
X120361926Y-121260964D01*
X120361926Y-121260964D02*
X120433354Y-121118107D01*
X120433354Y-121118107D02*
X120576212Y-121046678D01*
X120576212Y-121046678D02*
X120861926Y-121046678D01*
X120861926Y-121046678D02*
X121004783Y-121118107D01*
X121004783Y-121118107D02*
X121076212Y-121260964D01*
X121076212Y-121260964D02*
X121076212Y-121403821D01*
X121076212Y-121403821D02*
X120361926Y-121546678D01*
X121719068Y-121046678D02*
X121719068Y-122046678D01*
X121719068Y-121189535D02*
X121790497Y-121118107D01*
X121790497Y-121118107D02*
X121933354Y-121046678D01*
X121933354Y-121046678D02*
X122147640Y-121046678D01*
X122147640Y-121046678D02*
X122290497Y-121118107D01*
X122290497Y-121118107D02*
X122361926Y-121260964D01*
X122361926Y-121260964D02*
X122361926Y-122046678D01*
X124219068Y-122046678D02*
X124219068Y-120546678D01*
X124219068Y-120546678D02*
X125076211Y-122046678D01*
X125076211Y-122046678D02*
X125076211Y-120546678D01*
X126433355Y-122046678D02*
X126433355Y-121260964D01*
X126433355Y-121260964D02*
X126361926Y-121118107D01*
X126361926Y-121118107D02*
X126219069Y-121046678D01*
X126219069Y-121046678D02*
X125933355Y-121046678D01*
X125933355Y-121046678D02*
X125790497Y-121118107D01*
X126433355Y-121975250D02*
X126290497Y-122046678D01*
X126290497Y-122046678D02*
X125933355Y-122046678D01*
X125933355Y-122046678D02*
X125790497Y-121975250D01*
X125790497Y-121975250D02*
X125719069Y-121832392D01*
X125719069Y-121832392D02*
X125719069Y-121689535D01*
X125719069Y-121689535D02*
X125790497Y-121546678D01*
X125790497Y-121546678D02*
X125933355Y-121475250D01*
X125933355Y-121475250D02*
X126290497Y-121475250D01*
X126290497Y-121475250D02*
X126433355Y-121403821D01*
X127147640Y-122046678D02*
X127147640Y-121046678D01*
X127147640Y-121189535D02*
X127219069Y-121118107D01*
X127219069Y-121118107D02*
X127361926Y-121046678D01*
X127361926Y-121046678D02*
X127576212Y-121046678D01*
X127576212Y-121046678D02*
X127719069Y-121118107D01*
X127719069Y-121118107D02*
X127790498Y-121260964D01*
X127790498Y-121260964D02*
X127790498Y-122046678D01*
X127790498Y-121260964D02*
X127861926Y-121118107D01*
X127861926Y-121118107D02*
X128004783Y-121046678D01*
X128004783Y-121046678D02*
X128219069Y-121046678D01*
X128219069Y-121046678D02*
X128361926Y-121118107D01*
X128361926Y-121118107D02*
X128433355Y-121260964D01*
X128433355Y-121260964D02*
X128433355Y-122046678D01*
X129361926Y-122046678D02*
X129219069Y-121975250D01*
X129219069Y-121975250D02*
X129147640Y-121832392D01*
X129147640Y-121832392D02*
X129147640Y-120546678D01*
X129933354Y-122046678D02*
X129933354Y-121046678D01*
X105350497Y-118996678D02*
X105350497Y-117496678D01*
X106207640Y-118996678D02*
X105564783Y-118139535D01*
X106207640Y-117496678D02*
X105350497Y-118353821D01*
X107493355Y-118996678D02*
X107493355Y-118210964D01*
X107493355Y-118210964D02*
X107421926Y-118068107D01*
X107421926Y-118068107D02*
X107279069Y-117996678D01*
X107279069Y-117996678D02*
X106993355Y-117996678D01*
X106993355Y-117996678D02*
X106850497Y-118068107D01*
X107493355Y-118925250D02*
X107350497Y-118996678D01*
X107350497Y-118996678D02*
X106993355Y-118996678D01*
X106993355Y-118996678D02*
X106850497Y-118925250D01*
X106850497Y-118925250D02*
X106779069Y-118782392D01*
X106779069Y-118782392D02*
X106779069Y-118639535D01*
X106779069Y-118639535D02*
X106850497Y-118496678D01*
X106850497Y-118496678D02*
X106993355Y-118425250D01*
X106993355Y-118425250D02*
X107350497Y-118425250D01*
X107350497Y-118425250D02*
X107493355Y-118353821D01*
X108850498Y-118925250D02*
X108707640Y-118996678D01*
X108707640Y-118996678D02*
X108421926Y-118996678D01*
X108421926Y-118996678D02*
X108279069Y-118925250D01*
X108279069Y-118925250D02*
X108207640Y-118853821D01*
X108207640Y-118853821D02*
X108136212Y-118710964D01*
X108136212Y-118710964D02*
X108136212Y-118282392D01*
X108136212Y-118282392D02*
X108207640Y-118139535D01*
X108207640Y-118139535D02*
X108279069Y-118068107D01*
X108279069Y-118068107D02*
X108421926Y-117996678D01*
X108421926Y-117996678D02*
X108707640Y-117996678D01*
X108707640Y-117996678D02*
X108850498Y-118068107D01*
X108564783Y-119068107D02*
X108707640Y-119139535D01*
X108707640Y-119139535D02*
X108779069Y-119282392D01*
X108779069Y-119282392D02*
X108707640Y-119425250D01*
X108707640Y-119425250D02*
X108564783Y-119496678D01*
X108564783Y-119496678D02*
X108350498Y-119496678D01*
X109493354Y-118996678D02*
X109493354Y-117996678D01*
X109493354Y-118139535D02*
X109564783Y-118068107D01*
X109564783Y-118068107D02*
X109707640Y-117996678D01*
X109707640Y-117996678D02*
X109921926Y-117996678D01*
X109921926Y-117996678D02*
X110064783Y-118068107D01*
X110064783Y-118068107D02*
X110136212Y-118210964D01*
X110136212Y-118210964D02*
X110136212Y-118996678D01*
X110136212Y-118210964D02*
X110207640Y-118068107D01*
X110207640Y-118068107D02*
X110350497Y-117996678D01*
X110350497Y-117996678D02*
X110564783Y-117996678D01*
X110564783Y-117996678D02*
X110707640Y-118068107D01*
X110707640Y-118068107D02*
X110779069Y-118210964D01*
X110779069Y-118210964D02*
X110779069Y-118996678D01*
X112136212Y-118996678D02*
X112136212Y-118210964D01*
X112136212Y-118210964D02*
X112064783Y-118068107D01*
X112064783Y-118068107D02*
X111921926Y-117996678D01*
X111921926Y-117996678D02*
X111636212Y-117996678D01*
X111636212Y-117996678D02*
X111493354Y-118068107D01*
X112136212Y-118925250D02*
X111993354Y-118996678D01*
X111993354Y-118996678D02*
X111636212Y-118996678D01*
X111636212Y-118996678D02*
X111493354Y-118925250D01*
X111493354Y-118925250D02*
X111421926Y-118782392D01*
X111421926Y-118782392D02*
X111421926Y-118639535D01*
X111421926Y-118639535D02*
X111493354Y-118496678D01*
X111493354Y-118496678D02*
X111636212Y-118425250D01*
X111636212Y-118425250D02*
X111993354Y-118425250D01*
X111993354Y-118425250D02*
X112136212Y-118353821D01*
X112707640Y-117996678D02*
X113493355Y-117996678D01*
X113493355Y-117996678D02*
X112707640Y-118996678D01*
X112707640Y-118996678D02*
X113493355Y-118996678D01*
X115707640Y-118210964D02*
X115921926Y-118282392D01*
X115921926Y-118282392D02*
X115993355Y-118353821D01*
X115993355Y-118353821D02*
X116064783Y-118496678D01*
X116064783Y-118496678D02*
X116064783Y-118710964D01*
X116064783Y-118710964D02*
X115993355Y-118853821D01*
X115993355Y-118853821D02*
X115921926Y-118925250D01*
X115921926Y-118925250D02*
X115779069Y-118996678D01*
X115779069Y-118996678D02*
X115207640Y-118996678D01*
X115207640Y-118996678D02*
X115207640Y-117496678D01*
X115207640Y-117496678D02*
X115707640Y-117496678D01*
X115707640Y-117496678D02*
X115850498Y-117568107D01*
X115850498Y-117568107D02*
X115921926Y-117639535D01*
X115921926Y-117639535D02*
X115993355Y-117782392D01*
X115993355Y-117782392D02*
X115993355Y-117925250D01*
X115993355Y-117925250D02*
X115921926Y-118068107D01*
X115921926Y-118068107D02*
X115850498Y-118139535D01*
X115850498Y-118139535D02*
X115707640Y-118210964D01*
X115707640Y-118210964D02*
X115207640Y-118210964D01*
X116921926Y-118996678D02*
X116779069Y-118925250D01*
X116779069Y-118925250D02*
X116707640Y-118782392D01*
X116707640Y-118782392D02*
X116707640Y-117496678D01*
X117493354Y-118996678D02*
X117493354Y-117996678D01*
X117493354Y-117496678D02*
X117421926Y-117568107D01*
X117421926Y-117568107D02*
X117493354Y-117639535D01*
X117493354Y-117639535D02*
X117564783Y-117568107D01*
X117564783Y-117568107D02*
X117493354Y-117496678D01*
X117493354Y-117496678D02*
X117493354Y-117639535D01*
X118207640Y-117996678D02*
X118207640Y-118996678D01*
X118207640Y-118139535D02*
X118279069Y-118068107D01*
X118279069Y-118068107D02*
X118421926Y-117996678D01*
X118421926Y-117996678D02*
X118636212Y-117996678D01*
X118636212Y-117996678D02*
X118779069Y-118068107D01*
X118779069Y-118068107D02*
X118850498Y-118210964D01*
X118850498Y-118210964D02*
X118850498Y-118996678D01*
X119564783Y-118996678D02*
X119564783Y-117496678D01*
X119707641Y-118425250D02*
X120136212Y-118996678D01*
X120136212Y-117996678D02*
X119564783Y-118568107D01*
X120636212Y-117996678D02*
X120993355Y-118996678D01*
X121350498Y-117996678D02*
X120993355Y-118996678D01*
X120993355Y-118996678D02*
X120850498Y-119353821D01*
X120850498Y-119353821D02*
X120779069Y-119425250D01*
X120779069Y-119425250D02*
X120636212Y-119496678D01*
D11*
X165408571Y-102884819D02*
X165408571Y-101884819D01*
X165408571Y-101884819D02*
X165646666Y-101884819D01*
X165646666Y-101884819D02*
X165789523Y-101932438D01*
X165789523Y-101932438D02*
X165884761Y-102027676D01*
X165884761Y-102027676D02*
X165932380Y-102122914D01*
X165932380Y-102122914D02*
X165979999Y-102313390D01*
X165979999Y-102313390D02*
X165979999Y-102456247D01*
X165979999Y-102456247D02*
X165932380Y-102646723D01*
X165932380Y-102646723D02*
X165884761Y-102741961D01*
X165884761Y-102741961D02*
X165789523Y-102837200D01*
X165789523Y-102837200D02*
X165646666Y-102884819D01*
X165646666Y-102884819D02*
X165408571Y-102884819D01*
X166360952Y-101980057D02*
X166408571Y-101932438D01*
X166408571Y-101932438D02*
X166503809Y-101884819D01*
X166503809Y-101884819D02*
X166741904Y-101884819D01*
X166741904Y-101884819D02*
X166837142Y-101932438D01*
X166837142Y-101932438D02*
X166884761Y-101980057D01*
X166884761Y-101980057D02*
X166932380Y-102075295D01*
X166932380Y-102075295D02*
X166932380Y-102170533D01*
X166932380Y-102170533D02*
X166884761Y-102313390D01*
X166884761Y-102313390D02*
X166313333Y-102884819D01*
X166313333Y-102884819D02*
X166932380Y-102884819D01*
X167837142Y-102884819D02*
X167360952Y-102884819D01*
X167360952Y-102884819D02*
X167360952Y-101884819D01*
X168170476Y-102361009D02*
X168503809Y-102361009D01*
X168646666Y-102884819D02*
X168170476Y-102884819D01*
X168170476Y-102884819D02*
X168170476Y-101884819D01*
X168170476Y-101884819D02*
X168646666Y-101884819D01*
X169075238Y-102884819D02*
X169075238Y-101884819D01*
X169075238Y-101884819D02*
X169313333Y-101884819D01*
X169313333Y-101884819D02*
X169456190Y-101932438D01*
X169456190Y-101932438D02*
X169551428Y-102027676D01*
X169551428Y-102027676D02*
X169599047Y-102122914D01*
X169599047Y-102122914D02*
X169646666Y-102313390D01*
X169646666Y-102313390D02*
X169646666Y-102456247D01*
X169646666Y-102456247D02*
X169599047Y-102646723D01*
X169599047Y-102646723D02*
X169551428Y-102741961D01*
X169551428Y-102741961D02*
X169456190Y-102837200D01*
X169456190Y-102837200D02*
X169313333Y-102884819D01*
X169313333Y-102884819D02*
X169075238Y-102884819D01*
X169980000Y-101884819D02*
X170599047Y-101884819D01*
X170599047Y-101884819D02*
X170265714Y-102265771D01*
X170265714Y-102265771D02*
X170408571Y-102265771D01*
X170408571Y-102265771D02*
X170503809Y-102313390D01*
X170503809Y-102313390D02*
X170551428Y-102361009D01*
X170551428Y-102361009D02*
X170599047Y-102456247D01*
X170599047Y-102456247D02*
X170599047Y-102694342D01*
X170599047Y-102694342D02*
X170551428Y-102789580D01*
X170551428Y-102789580D02*
X170503809Y-102837200D01*
X170503809Y-102837200D02*
X170408571Y-102884819D01*
X170408571Y-102884819D02*
X170122857Y-102884819D01*
X170122857Y-102884819D02*
X170027619Y-102837200D01*
X170027619Y-102837200D02*
X169980000Y-102789580D01*
X117114761Y-106834819D02*
X116781428Y-106358628D01*
X116543333Y-106834819D02*
X116543333Y-105834819D01*
X116543333Y-105834819D02*
X116924285Y-105834819D01*
X116924285Y-105834819D02*
X117019523Y-105882438D01*
X117019523Y-105882438D02*
X117067142Y-105930057D01*
X117067142Y-105930057D02*
X117114761Y-106025295D01*
X117114761Y-106025295D02*
X117114761Y-106168152D01*
X117114761Y-106168152D02*
X117067142Y-106263390D01*
X117067142Y-106263390D02*
X117019523Y-106311009D01*
X117019523Y-106311009D02*
X116924285Y-106358628D01*
X116924285Y-106358628D02*
X116543333Y-106358628D01*
X117400476Y-105834819D02*
X117733809Y-106834819D01*
X117733809Y-106834819D02*
X118067142Y-105834819D01*
X118924285Y-106834819D02*
X118352857Y-106834819D01*
X118638571Y-106834819D02*
X118638571Y-105834819D01*
X118638571Y-105834819D02*
X118543333Y-105977676D01*
X118543333Y-105977676D02*
X118448095Y-106072914D01*
X118448095Y-106072914D02*
X118352857Y-106120533D01*
X154948571Y-92334819D02*
X154948571Y-91334819D01*
X154948571Y-91334819D02*
X155186666Y-91334819D01*
X155186666Y-91334819D02*
X155329523Y-91382438D01*
X155329523Y-91382438D02*
X155424761Y-91477676D01*
X155424761Y-91477676D02*
X155472380Y-91572914D01*
X155472380Y-91572914D02*
X155519999Y-91763390D01*
X155519999Y-91763390D02*
X155519999Y-91906247D01*
X155519999Y-91906247D02*
X155472380Y-92096723D01*
X155472380Y-92096723D02*
X155424761Y-92191961D01*
X155424761Y-92191961D02*
X155329523Y-92287200D01*
X155329523Y-92287200D02*
X155186666Y-92334819D01*
X155186666Y-92334819D02*
X154948571Y-92334819D01*
X155900952Y-91430057D02*
X155948571Y-91382438D01*
X155948571Y-91382438D02*
X156043809Y-91334819D01*
X156043809Y-91334819D02*
X156281904Y-91334819D01*
X156281904Y-91334819D02*
X156377142Y-91382438D01*
X156377142Y-91382438D02*
X156424761Y-91430057D01*
X156424761Y-91430057D02*
X156472380Y-91525295D01*
X156472380Y-91525295D02*
X156472380Y-91620533D01*
X156472380Y-91620533D02*
X156424761Y-91763390D01*
X156424761Y-91763390D02*
X155853333Y-92334819D01*
X155853333Y-92334819D02*
X156472380Y-92334819D01*
X157377142Y-92334819D02*
X156900952Y-92334819D01*
X156900952Y-92334819D02*
X156900952Y-91334819D01*
X157710476Y-91811009D02*
X158043809Y-91811009D01*
X158186666Y-92334819D02*
X157710476Y-92334819D01*
X157710476Y-92334819D02*
X157710476Y-91334819D01*
X157710476Y-91334819D02*
X158186666Y-91334819D01*
X158615238Y-92334819D02*
X158615238Y-91334819D01*
X158615238Y-91334819D02*
X158853333Y-91334819D01*
X158853333Y-91334819D02*
X158996190Y-91382438D01*
X158996190Y-91382438D02*
X159091428Y-91477676D01*
X159091428Y-91477676D02*
X159139047Y-91572914D01*
X159139047Y-91572914D02*
X159186666Y-91763390D01*
X159186666Y-91763390D02*
X159186666Y-91906247D01*
X159186666Y-91906247D02*
X159139047Y-92096723D01*
X159139047Y-92096723D02*
X159091428Y-92191961D01*
X159091428Y-92191961D02*
X158996190Y-92287200D01*
X158996190Y-92287200D02*
X158853333Y-92334819D01*
X158853333Y-92334819D02*
X158615238Y-92334819D01*
X160139047Y-92334819D02*
X159567619Y-92334819D01*
X159853333Y-92334819D02*
X159853333Y-91334819D01*
X159853333Y-91334819D02*
X159758095Y-91477676D01*
X159758095Y-91477676D02*
X159662857Y-91572914D01*
X159662857Y-91572914D02*
X159567619Y-91620533D01*
X150108571Y-133174819D02*
X150108571Y-132174819D01*
X150108571Y-132174819D02*
X150346666Y-132174819D01*
X150346666Y-132174819D02*
X150489523Y-132222438D01*
X150489523Y-132222438D02*
X150584761Y-132317676D01*
X150584761Y-132317676D02*
X150632380Y-132412914D01*
X150632380Y-132412914D02*
X150679999Y-132603390D01*
X150679999Y-132603390D02*
X150679999Y-132746247D01*
X150679999Y-132746247D02*
X150632380Y-132936723D01*
X150632380Y-132936723D02*
X150584761Y-133031961D01*
X150584761Y-133031961D02*
X150489523Y-133127200D01*
X150489523Y-133127200D02*
X150346666Y-133174819D01*
X150346666Y-133174819D02*
X150108571Y-133174819D01*
X151060952Y-132270057D02*
X151108571Y-132222438D01*
X151108571Y-132222438D02*
X151203809Y-132174819D01*
X151203809Y-132174819D02*
X151441904Y-132174819D01*
X151441904Y-132174819D02*
X151537142Y-132222438D01*
X151537142Y-132222438D02*
X151584761Y-132270057D01*
X151584761Y-132270057D02*
X151632380Y-132365295D01*
X151632380Y-132365295D02*
X151632380Y-132460533D01*
X151632380Y-132460533D02*
X151584761Y-132603390D01*
X151584761Y-132603390D02*
X151013333Y-133174819D01*
X151013333Y-133174819D02*
X151632380Y-133174819D01*
X152537142Y-133174819D02*
X152060952Y-133174819D01*
X152060952Y-133174819D02*
X152060952Y-132174819D01*
X152870476Y-132651009D02*
X153203809Y-132651009D01*
X153346666Y-133174819D02*
X152870476Y-133174819D01*
X152870476Y-133174819D02*
X152870476Y-132174819D01*
X152870476Y-132174819D02*
X153346666Y-132174819D01*
X153775238Y-133174819D02*
X153775238Y-132174819D01*
X153775238Y-132174819D02*
X154013333Y-132174819D01*
X154013333Y-132174819D02*
X154156190Y-132222438D01*
X154156190Y-132222438D02*
X154251428Y-132317676D01*
X154251428Y-132317676D02*
X154299047Y-132412914D01*
X154299047Y-132412914D02*
X154346666Y-132603390D01*
X154346666Y-132603390D02*
X154346666Y-132746247D01*
X154346666Y-132746247D02*
X154299047Y-132936723D01*
X154299047Y-132936723D02*
X154251428Y-133031961D01*
X154251428Y-133031961D02*
X154156190Y-133127200D01*
X154156190Y-133127200D02*
X154013333Y-133174819D01*
X154013333Y-133174819D02*
X153775238Y-133174819D01*
X154822857Y-133174819D02*
X155013333Y-133174819D01*
X155013333Y-133174819D02*
X155108571Y-133127200D01*
X155108571Y-133127200D02*
X155156190Y-133079580D01*
X155156190Y-133079580D02*
X155251428Y-132936723D01*
X155251428Y-132936723D02*
X155299047Y-132746247D01*
X155299047Y-132746247D02*
X155299047Y-132365295D01*
X155299047Y-132365295D02*
X155251428Y-132270057D01*
X155251428Y-132270057D02*
X155203809Y-132222438D01*
X155203809Y-132222438D02*
X155108571Y-132174819D01*
X155108571Y-132174819D02*
X154918095Y-132174819D01*
X154918095Y-132174819D02*
X154822857Y-132222438D01*
X154822857Y-132222438D02*
X154775238Y-132270057D01*
X154775238Y-132270057D02*
X154727619Y-132365295D01*
X154727619Y-132365295D02*
X154727619Y-132603390D01*
X154727619Y-132603390D02*
X154775238Y-132698628D01*
X154775238Y-132698628D02*
X154822857Y-132746247D01*
X154822857Y-132746247D02*
X154918095Y-132793866D01*
X154918095Y-132793866D02*
X155108571Y-132793866D01*
X155108571Y-132793866D02*
X155203809Y-132746247D01*
X155203809Y-132746247D02*
X155251428Y-132698628D01*
X155251428Y-132698628D02*
X155299047Y-132603390D01*
X150388571Y-86624819D02*
X150388571Y-85624819D01*
X150388571Y-85624819D02*
X150626666Y-85624819D01*
X150626666Y-85624819D02*
X150769523Y-85672438D01*
X150769523Y-85672438D02*
X150864761Y-85767676D01*
X150864761Y-85767676D02*
X150912380Y-85862914D01*
X150912380Y-85862914D02*
X150959999Y-86053390D01*
X150959999Y-86053390D02*
X150959999Y-86196247D01*
X150959999Y-86196247D02*
X150912380Y-86386723D01*
X150912380Y-86386723D02*
X150864761Y-86481961D01*
X150864761Y-86481961D02*
X150769523Y-86577200D01*
X150769523Y-86577200D02*
X150626666Y-86624819D01*
X150626666Y-86624819D02*
X150388571Y-86624819D01*
X151912380Y-86624819D02*
X151340952Y-86624819D01*
X151626666Y-86624819D02*
X151626666Y-85624819D01*
X151626666Y-85624819D02*
X151531428Y-85767676D01*
X151531428Y-85767676D02*
X151436190Y-85862914D01*
X151436190Y-85862914D02*
X151340952Y-85910533D01*
X152817142Y-86624819D02*
X152340952Y-86624819D01*
X152340952Y-86624819D02*
X152340952Y-85624819D01*
X153150476Y-86101009D02*
X153483809Y-86101009D01*
X153626666Y-86624819D02*
X153150476Y-86624819D01*
X153150476Y-86624819D02*
X153150476Y-85624819D01*
X153150476Y-85624819D02*
X153626666Y-85624819D01*
X154055238Y-86624819D02*
X154055238Y-85624819D01*
X154055238Y-85624819D02*
X154293333Y-85624819D01*
X154293333Y-85624819D02*
X154436190Y-85672438D01*
X154436190Y-85672438D02*
X154531428Y-85767676D01*
X154531428Y-85767676D02*
X154579047Y-85862914D01*
X154579047Y-85862914D02*
X154626666Y-86053390D01*
X154626666Y-86053390D02*
X154626666Y-86196247D01*
X154626666Y-86196247D02*
X154579047Y-86386723D01*
X154579047Y-86386723D02*
X154531428Y-86481961D01*
X154531428Y-86481961D02*
X154436190Y-86577200D01*
X154436190Y-86577200D02*
X154293333Y-86624819D01*
X154293333Y-86624819D02*
X154055238Y-86624819D01*
X155579047Y-86624819D02*
X155007619Y-86624819D01*
X155293333Y-86624819D02*
X155293333Y-85624819D01*
X155293333Y-85624819D02*
X155198095Y-85767676D01*
X155198095Y-85767676D02*
X155102857Y-85862914D01*
X155102857Y-85862914D02*
X155007619Y-85910533D01*
X160198571Y-97484819D02*
X160198571Y-96484819D01*
X160198571Y-96484819D02*
X160436666Y-96484819D01*
X160436666Y-96484819D02*
X160579523Y-96532438D01*
X160579523Y-96532438D02*
X160674761Y-96627676D01*
X160674761Y-96627676D02*
X160722380Y-96722914D01*
X160722380Y-96722914D02*
X160769999Y-96913390D01*
X160769999Y-96913390D02*
X160769999Y-97056247D01*
X160769999Y-97056247D02*
X160722380Y-97246723D01*
X160722380Y-97246723D02*
X160674761Y-97341961D01*
X160674761Y-97341961D02*
X160579523Y-97437200D01*
X160579523Y-97437200D02*
X160436666Y-97484819D01*
X160436666Y-97484819D02*
X160198571Y-97484819D01*
X161150952Y-96580057D02*
X161198571Y-96532438D01*
X161198571Y-96532438D02*
X161293809Y-96484819D01*
X161293809Y-96484819D02*
X161531904Y-96484819D01*
X161531904Y-96484819D02*
X161627142Y-96532438D01*
X161627142Y-96532438D02*
X161674761Y-96580057D01*
X161674761Y-96580057D02*
X161722380Y-96675295D01*
X161722380Y-96675295D02*
X161722380Y-96770533D01*
X161722380Y-96770533D02*
X161674761Y-96913390D01*
X161674761Y-96913390D02*
X161103333Y-97484819D01*
X161103333Y-97484819D02*
X161722380Y-97484819D01*
X162627142Y-97484819D02*
X162150952Y-97484819D01*
X162150952Y-97484819D02*
X162150952Y-96484819D01*
X162960476Y-96961009D02*
X163293809Y-96961009D01*
X163436666Y-97484819D02*
X162960476Y-97484819D01*
X162960476Y-97484819D02*
X162960476Y-96484819D01*
X162960476Y-96484819D02*
X163436666Y-96484819D01*
X163865238Y-97484819D02*
X163865238Y-96484819D01*
X163865238Y-96484819D02*
X164103333Y-96484819D01*
X164103333Y-96484819D02*
X164246190Y-96532438D01*
X164246190Y-96532438D02*
X164341428Y-96627676D01*
X164341428Y-96627676D02*
X164389047Y-96722914D01*
X164389047Y-96722914D02*
X164436666Y-96913390D01*
X164436666Y-96913390D02*
X164436666Y-97056247D01*
X164436666Y-97056247D02*
X164389047Y-97246723D01*
X164389047Y-97246723D02*
X164341428Y-97341961D01*
X164341428Y-97341961D02*
X164246190Y-97437200D01*
X164246190Y-97437200D02*
X164103333Y-97484819D01*
X164103333Y-97484819D02*
X163865238Y-97484819D01*
X164817619Y-96580057D02*
X164865238Y-96532438D01*
X164865238Y-96532438D02*
X164960476Y-96484819D01*
X164960476Y-96484819D02*
X165198571Y-96484819D01*
X165198571Y-96484819D02*
X165293809Y-96532438D01*
X165293809Y-96532438D02*
X165341428Y-96580057D01*
X165341428Y-96580057D02*
X165389047Y-96675295D01*
X165389047Y-96675295D02*
X165389047Y-96770533D01*
X165389047Y-96770533D02*
X165341428Y-96913390D01*
X165341428Y-96913390D02*
X164770000Y-97484819D01*
X164770000Y-97484819D02*
X165389047Y-97484819D01*
X155508571Y-127554819D02*
X155508571Y-126554819D01*
X155508571Y-126554819D02*
X155746666Y-126554819D01*
X155746666Y-126554819D02*
X155889523Y-126602438D01*
X155889523Y-126602438D02*
X155984761Y-126697676D01*
X155984761Y-126697676D02*
X156032380Y-126792914D01*
X156032380Y-126792914D02*
X156079999Y-126983390D01*
X156079999Y-126983390D02*
X156079999Y-127126247D01*
X156079999Y-127126247D02*
X156032380Y-127316723D01*
X156032380Y-127316723D02*
X155984761Y-127411961D01*
X155984761Y-127411961D02*
X155889523Y-127507200D01*
X155889523Y-127507200D02*
X155746666Y-127554819D01*
X155746666Y-127554819D02*
X155508571Y-127554819D01*
X156460952Y-126650057D02*
X156508571Y-126602438D01*
X156508571Y-126602438D02*
X156603809Y-126554819D01*
X156603809Y-126554819D02*
X156841904Y-126554819D01*
X156841904Y-126554819D02*
X156937142Y-126602438D01*
X156937142Y-126602438D02*
X156984761Y-126650057D01*
X156984761Y-126650057D02*
X157032380Y-126745295D01*
X157032380Y-126745295D02*
X157032380Y-126840533D01*
X157032380Y-126840533D02*
X156984761Y-126983390D01*
X156984761Y-126983390D02*
X156413333Y-127554819D01*
X156413333Y-127554819D02*
X157032380Y-127554819D01*
X157937142Y-127554819D02*
X157460952Y-127554819D01*
X157460952Y-127554819D02*
X157460952Y-126554819D01*
X158270476Y-127031009D02*
X158603809Y-127031009D01*
X158746666Y-127554819D02*
X158270476Y-127554819D01*
X158270476Y-127554819D02*
X158270476Y-126554819D01*
X158270476Y-126554819D02*
X158746666Y-126554819D01*
X159175238Y-127554819D02*
X159175238Y-126554819D01*
X159175238Y-126554819D02*
X159413333Y-126554819D01*
X159413333Y-126554819D02*
X159556190Y-126602438D01*
X159556190Y-126602438D02*
X159651428Y-126697676D01*
X159651428Y-126697676D02*
X159699047Y-126792914D01*
X159699047Y-126792914D02*
X159746666Y-126983390D01*
X159746666Y-126983390D02*
X159746666Y-127126247D01*
X159746666Y-127126247D02*
X159699047Y-127316723D01*
X159699047Y-127316723D02*
X159651428Y-127411961D01*
X159651428Y-127411961D02*
X159556190Y-127507200D01*
X159556190Y-127507200D02*
X159413333Y-127554819D01*
X159413333Y-127554819D02*
X159175238Y-127554819D01*
X160318095Y-126983390D02*
X160222857Y-126935771D01*
X160222857Y-126935771D02*
X160175238Y-126888152D01*
X160175238Y-126888152D02*
X160127619Y-126792914D01*
X160127619Y-126792914D02*
X160127619Y-126745295D01*
X160127619Y-126745295D02*
X160175238Y-126650057D01*
X160175238Y-126650057D02*
X160222857Y-126602438D01*
X160222857Y-126602438D02*
X160318095Y-126554819D01*
X160318095Y-126554819D02*
X160508571Y-126554819D01*
X160508571Y-126554819D02*
X160603809Y-126602438D01*
X160603809Y-126602438D02*
X160651428Y-126650057D01*
X160651428Y-126650057D02*
X160699047Y-126745295D01*
X160699047Y-126745295D02*
X160699047Y-126792914D01*
X160699047Y-126792914D02*
X160651428Y-126888152D01*
X160651428Y-126888152D02*
X160603809Y-126935771D01*
X160603809Y-126935771D02*
X160508571Y-126983390D01*
X160508571Y-126983390D02*
X160318095Y-126983390D01*
X160318095Y-126983390D02*
X160222857Y-127031009D01*
X160222857Y-127031009D02*
X160175238Y-127078628D01*
X160175238Y-127078628D02*
X160127619Y-127173866D01*
X160127619Y-127173866D02*
X160127619Y-127364342D01*
X160127619Y-127364342D02*
X160175238Y-127459580D01*
X160175238Y-127459580D02*
X160222857Y-127507200D01*
X160222857Y-127507200D02*
X160318095Y-127554819D01*
X160318095Y-127554819D02*
X160508571Y-127554819D01*
X160508571Y-127554819D02*
X160603809Y-127507200D01*
X160603809Y-127507200D02*
X160651428Y-127459580D01*
X160651428Y-127459580D02*
X160699047Y-127364342D01*
X160699047Y-127364342D02*
X160699047Y-127173866D01*
X160699047Y-127173866D02*
X160651428Y-127078628D01*
X160651428Y-127078628D02*
X160603809Y-127031009D01*
X160603809Y-127031009D02*
X160508571Y-126983390D01*
X110793333Y-101134819D02*
X110460000Y-100658628D01*
X110221905Y-101134819D02*
X110221905Y-100134819D01*
X110221905Y-100134819D02*
X110602857Y-100134819D01*
X110602857Y-100134819D02*
X110698095Y-100182438D01*
X110698095Y-100182438D02*
X110745714Y-100230057D01*
X110745714Y-100230057D02*
X110793333Y-100325295D01*
X110793333Y-100325295D02*
X110793333Y-100468152D01*
X110793333Y-100468152D02*
X110745714Y-100563390D01*
X110745714Y-100563390D02*
X110698095Y-100611009D01*
X110698095Y-100611009D02*
X110602857Y-100658628D01*
X110602857Y-100658628D02*
X110221905Y-100658628D01*
X111745714Y-101134819D02*
X111174286Y-101134819D01*
X111460000Y-101134819D02*
X111460000Y-100134819D01*
X111460000Y-100134819D02*
X111364762Y-100277676D01*
X111364762Y-100277676D02*
X111269524Y-100372914D01*
X111269524Y-100372914D02*
X111174286Y-100420533D01*
X142683333Y-123064819D02*
X142350000Y-122588628D01*
X142111905Y-123064819D02*
X142111905Y-122064819D01*
X142111905Y-122064819D02*
X142492857Y-122064819D01*
X142492857Y-122064819D02*
X142588095Y-122112438D01*
X142588095Y-122112438D02*
X142635714Y-122160057D01*
X142635714Y-122160057D02*
X142683333Y-122255295D01*
X142683333Y-122255295D02*
X142683333Y-122398152D01*
X142683333Y-122398152D02*
X142635714Y-122493390D01*
X142635714Y-122493390D02*
X142588095Y-122541009D01*
X142588095Y-122541009D02*
X142492857Y-122588628D01*
X142492857Y-122588628D02*
X142111905Y-122588628D01*
X143064286Y-122160057D02*
X143111905Y-122112438D01*
X143111905Y-122112438D02*
X143207143Y-122064819D01*
X143207143Y-122064819D02*
X143445238Y-122064819D01*
X143445238Y-122064819D02*
X143540476Y-122112438D01*
X143540476Y-122112438D02*
X143588095Y-122160057D01*
X143588095Y-122160057D02*
X143635714Y-122255295D01*
X143635714Y-122255295D02*
X143635714Y-122350533D01*
X143635714Y-122350533D02*
X143588095Y-122493390D01*
X143588095Y-122493390D02*
X143016667Y-123064819D01*
X143016667Y-123064819D02*
X143635714Y-123064819D01*
X166178571Y-117114819D02*
X166178571Y-116114819D01*
X166178571Y-116114819D02*
X166416666Y-116114819D01*
X166416666Y-116114819D02*
X166559523Y-116162438D01*
X166559523Y-116162438D02*
X166654761Y-116257676D01*
X166654761Y-116257676D02*
X166702380Y-116352914D01*
X166702380Y-116352914D02*
X166749999Y-116543390D01*
X166749999Y-116543390D02*
X166749999Y-116686247D01*
X166749999Y-116686247D02*
X166702380Y-116876723D01*
X166702380Y-116876723D02*
X166654761Y-116971961D01*
X166654761Y-116971961D02*
X166559523Y-117067200D01*
X166559523Y-117067200D02*
X166416666Y-117114819D01*
X166416666Y-117114819D02*
X166178571Y-117114819D01*
X167130952Y-116210057D02*
X167178571Y-116162438D01*
X167178571Y-116162438D02*
X167273809Y-116114819D01*
X167273809Y-116114819D02*
X167511904Y-116114819D01*
X167511904Y-116114819D02*
X167607142Y-116162438D01*
X167607142Y-116162438D02*
X167654761Y-116210057D01*
X167654761Y-116210057D02*
X167702380Y-116305295D01*
X167702380Y-116305295D02*
X167702380Y-116400533D01*
X167702380Y-116400533D02*
X167654761Y-116543390D01*
X167654761Y-116543390D02*
X167083333Y-117114819D01*
X167083333Y-117114819D02*
X167702380Y-117114819D01*
X168607142Y-117114819D02*
X168130952Y-117114819D01*
X168130952Y-117114819D02*
X168130952Y-116114819D01*
X168940476Y-116591009D02*
X169273809Y-116591009D01*
X169416666Y-117114819D02*
X168940476Y-117114819D01*
X168940476Y-117114819D02*
X168940476Y-116114819D01*
X168940476Y-116114819D02*
X169416666Y-116114819D01*
X169845238Y-117114819D02*
X169845238Y-116114819D01*
X169845238Y-116114819D02*
X170083333Y-116114819D01*
X170083333Y-116114819D02*
X170226190Y-116162438D01*
X170226190Y-116162438D02*
X170321428Y-116257676D01*
X170321428Y-116257676D02*
X170369047Y-116352914D01*
X170369047Y-116352914D02*
X170416666Y-116543390D01*
X170416666Y-116543390D02*
X170416666Y-116686247D01*
X170416666Y-116686247D02*
X170369047Y-116876723D01*
X170369047Y-116876723D02*
X170321428Y-116971961D01*
X170321428Y-116971961D02*
X170226190Y-117067200D01*
X170226190Y-117067200D02*
X170083333Y-117114819D01*
X170083333Y-117114819D02*
X169845238Y-117114819D01*
X171273809Y-116114819D02*
X171083333Y-116114819D01*
X171083333Y-116114819D02*
X170988095Y-116162438D01*
X170988095Y-116162438D02*
X170940476Y-116210057D01*
X170940476Y-116210057D02*
X170845238Y-116352914D01*
X170845238Y-116352914D02*
X170797619Y-116543390D01*
X170797619Y-116543390D02*
X170797619Y-116924342D01*
X170797619Y-116924342D02*
X170845238Y-117019580D01*
X170845238Y-117019580D02*
X170892857Y-117067200D01*
X170892857Y-117067200D02*
X170988095Y-117114819D01*
X170988095Y-117114819D02*
X171178571Y-117114819D01*
X171178571Y-117114819D02*
X171273809Y-117067200D01*
X171273809Y-117067200D02*
X171321428Y-117019580D01*
X171321428Y-117019580D02*
X171369047Y-116924342D01*
X171369047Y-116924342D02*
X171369047Y-116686247D01*
X171369047Y-116686247D02*
X171321428Y-116591009D01*
X171321428Y-116591009D02*
X171273809Y-116543390D01*
X171273809Y-116543390D02*
X171178571Y-116495771D01*
X171178571Y-116495771D02*
X170988095Y-116495771D01*
X170988095Y-116495771D02*
X170892857Y-116543390D01*
X170892857Y-116543390D02*
X170845238Y-116591009D01*
X170845238Y-116591009D02*
X170797619Y-116686247D01*
X142238095Y-106344819D02*
X142238095Y-107154342D01*
X142238095Y-107154342D02*
X142285714Y-107249580D01*
X142285714Y-107249580D02*
X142333333Y-107297200D01*
X142333333Y-107297200D02*
X142428571Y-107344819D01*
X142428571Y-107344819D02*
X142619047Y-107344819D01*
X142619047Y-107344819D02*
X142714285Y-107297200D01*
X142714285Y-107297200D02*
X142761904Y-107249580D01*
X142761904Y-107249580D02*
X142809523Y-107154342D01*
X142809523Y-107154342D02*
X142809523Y-106344819D01*
X143238095Y-106440057D02*
X143285714Y-106392438D01*
X143285714Y-106392438D02*
X143380952Y-106344819D01*
X143380952Y-106344819D02*
X143619047Y-106344819D01*
X143619047Y-106344819D02*
X143714285Y-106392438D01*
X143714285Y-106392438D02*
X143761904Y-106440057D01*
X143761904Y-106440057D02*
X143809523Y-106535295D01*
X143809523Y-106535295D02*
X143809523Y-106630533D01*
X143809523Y-106630533D02*
X143761904Y-106773390D01*
X143761904Y-106773390D02*
X143190476Y-107344819D01*
X143190476Y-107344819D02*
X143809523Y-107344819D01*
X146809999Y-117734880D02*
X146809999Y-117496785D01*
X147048094Y-117592023D02*
X146809999Y-117496785D01*
X146809999Y-117496785D02*
X146571904Y-117592023D01*
X146952856Y-117306309D02*
X146809999Y-117496785D01*
X146809999Y-117496785D02*
X146667142Y-117306309D01*
X146810000Y-116644519D02*
X146810000Y-116882614D01*
X146571905Y-116787376D02*
X146810000Y-116882614D01*
X146810000Y-116882614D02*
X147048095Y-116787376D01*
X146667143Y-117073090D02*
X146810000Y-116882614D01*
X146810000Y-116882614D02*
X146952857Y-117073090D01*
X122838221Y-97969580D02*
X122790602Y-98017200D01*
X122790602Y-98017200D02*
X122647745Y-98064819D01*
X122647745Y-98064819D02*
X122552507Y-98064819D01*
X122552507Y-98064819D02*
X122409650Y-98017200D01*
X122409650Y-98017200D02*
X122314412Y-97921961D01*
X122314412Y-97921961D02*
X122266793Y-97826723D01*
X122266793Y-97826723D02*
X122219174Y-97636247D01*
X122219174Y-97636247D02*
X122219174Y-97493390D01*
X122219174Y-97493390D02*
X122266793Y-97302914D01*
X122266793Y-97302914D02*
X122314412Y-97207676D01*
X122314412Y-97207676D02*
X122409650Y-97112438D01*
X122409650Y-97112438D02*
X122552507Y-97064819D01*
X122552507Y-97064819D02*
X122647745Y-97064819D01*
X122647745Y-97064819D02*
X122790602Y-97112438D01*
X122790602Y-97112438D02*
X122838221Y-97160057D01*
X123790602Y-98064819D02*
X123219174Y-98064819D01*
X123504888Y-98064819D02*
X123504888Y-97064819D01*
X123504888Y-97064819D02*
X123409650Y-97207676D01*
X123409650Y-97207676D02*
X123314412Y-97302914D01*
X123314412Y-97302914D02*
X123219174Y-97350533D01*
X130188095Y-116034819D02*
X130188095Y-116844342D01*
X130188095Y-116844342D02*
X130235714Y-116939580D01*
X130235714Y-116939580D02*
X130283333Y-116987200D01*
X130283333Y-116987200D02*
X130378571Y-117034819D01*
X130378571Y-117034819D02*
X130569047Y-117034819D01*
X130569047Y-117034819D02*
X130664285Y-116987200D01*
X130664285Y-116987200D02*
X130711904Y-116939580D01*
X130711904Y-116939580D02*
X130759523Y-116844342D01*
X130759523Y-116844342D02*
X130759523Y-116034819D01*
X131759523Y-117034819D02*
X131188095Y-117034819D01*
X131473809Y-117034819D02*
X131473809Y-116034819D01*
X131473809Y-116034819D02*
X131378571Y-116177676D01*
X131378571Y-116177676D02*
X131283333Y-116272914D01*
X131283333Y-116272914D02*
X131188095Y-116320533D01*
X170768571Y-108054819D02*
X170768571Y-107054819D01*
X170768571Y-107054819D02*
X171006666Y-107054819D01*
X171006666Y-107054819D02*
X171149523Y-107102438D01*
X171149523Y-107102438D02*
X171244761Y-107197676D01*
X171244761Y-107197676D02*
X171292380Y-107292914D01*
X171292380Y-107292914D02*
X171339999Y-107483390D01*
X171339999Y-107483390D02*
X171339999Y-107626247D01*
X171339999Y-107626247D02*
X171292380Y-107816723D01*
X171292380Y-107816723D02*
X171244761Y-107911961D01*
X171244761Y-107911961D02*
X171149523Y-108007200D01*
X171149523Y-108007200D02*
X171006666Y-108054819D01*
X171006666Y-108054819D02*
X170768571Y-108054819D01*
X171720952Y-107150057D02*
X171768571Y-107102438D01*
X171768571Y-107102438D02*
X171863809Y-107054819D01*
X171863809Y-107054819D02*
X172101904Y-107054819D01*
X172101904Y-107054819D02*
X172197142Y-107102438D01*
X172197142Y-107102438D02*
X172244761Y-107150057D01*
X172244761Y-107150057D02*
X172292380Y-107245295D01*
X172292380Y-107245295D02*
X172292380Y-107340533D01*
X172292380Y-107340533D02*
X172244761Y-107483390D01*
X172244761Y-107483390D02*
X171673333Y-108054819D01*
X171673333Y-108054819D02*
X172292380Y-108054819D01*
X173197142Y-108054819D02*
X172720952Y-108054819D01*
X172720952Y-108054819D02*
X172720952Y-107054819D01*
X173530476Y-107531009D02*
X173863809Y-107531009D01*
X174006666Y-108054819D02*
X173530476Y-108054819D01*
X173530476Y-108054819D02*
X173530476Y-107054819D01*
X173530476Y-107054819D02*
X174006666Y-107054819D01*
X174435238Y-108054819D02*
X174435238Y-107054819D01*
X174435238Y-107054819D02*
X174673333Y-107054819D01*
X174673333Y-107054819D02*
X174816190Y-107102438D01*
X174816190Y-107102438D02*
X174911428Y-107197676D01*
X174911428Y-107197676D02*
X174959047Y-107292914D01*
X174959047Y-107292914D02*
X175006666Y-107483390D01*
X175006666Y-107483390D02*
X175006666Y-107626247D01*
X175006666Y-107626247D02*
X174959047Y-107816723D01*
X174959047Y-107816723D02*
X174911428Y-107911961D01*
X174911428Y-107911961D02*
X174816190Y-108007200D01*
X174816190Y-108007200D02*
X174673333Y-108054819D01*
X174673333Y-108054819D02*
X174435238Y-108054819D01*
X175863809Y-107388152D02*
X175863809Y-108054819D01*
X175625714Y-107007200D02*
X175387619Y-107721485D01*
X175387619Y-107721485D02*
X176006666Y-107721485D01*
X131323333Y-97929580D02*
X131275714Y-97977200D01*
X131275714Y-97977200D02*
X131132857Y-98024819D01*
X131132857Y-98024819D02*
X131037619Y-98024819D01*
X131037619Y-98024819D02*
X130894762Y-97977200D01*
X130894762Y-97977200D02*
X130799524Y-97881961D01*
X130799524Y-97881961D02*
X130751905Y-97786723D01*
X130751905Y-97786723D02*
X130704286Y-97596247D01*
X130704286Y-97596247D02*
X130704286Y-97453390D01*
X130704286Y-97453390D02*
X130751905Y-97262914D01*
X130751905Y-97262914D02*
X130799524Y-97167676D01*
X130799524Y-97167676D02*
X130894762Y-97072438D01*
X130894762Y-97072438D02*
X131037619Y-97024819D01*
X131037619Y-97024819D02*
X131132857Y-97024819D01*
X131132857Y-97024819D02*
X131275714Y-97072438D01*
X131275714Y-97072438D02*
X131323333Y-97120057D01*
X131704286Y-97120057D02*
X131751905Y-97072438D01*
X131751905Y-97072438D02*
X131847143Y-97024819D01*
X131847143Y-97024819D02*
X132085238Y-97024819D01*
X132085238Y-97024819D02*
X132180476Y-97072438D01*
X132180476Y-97072438D02*
X132228095Y-97120057D01*
X132228095Y-97120057D02*
X132275714Y-97215295D01*
X132275714Y-97215295D02*
X132275714Y-97310533D01*
X132275714Y-97310533D02*
X132228095Y-97453390D01*
X132228095Y-97453390D02*
X131656667Y-98024819D01*
X131656667Y-98024819D02*
X132275714Y-98024819D01*
X170848571Y-112494819D02*
X170848571Y-111494819D01*
X170848571Y-111494819D02*
X171086666Y-111494819D01*
X171086666Y-111494819D02*
X171229523Y-111542438D01*
X171229523Y-111542438D02*
X171324761Y-111637676D01*
X171324761Y-111637676D02*
X171372380Y-111732914D01*
X171372380Y-111732914D02*
X171419999Y-111923390D01*
X171419999Y-111923390D02*
X171419999Y-112066247D01*
X171419999Y-112066247D02*
X171372380Y-112256723D01*
X171372380Y-112256723D02*
X171324761Y-112351961D01*
X171324761Y-112351961D02*
X171229523Y-112447200D01*
X171229523Y-112447200D02*
X171086666Y-112494819D01*
X171086666Y-112494819D02*
X170848571Y-112494819D01*
X171800952Y-111590057D02*
X171848571Y-111542438D01*
X171848571Y-111542438D02*
X171943809Y-111494819D01*
X171943809Y-111494819D02*
X172181904Y-111494819D01*
X172181904Y-111494819D02*
X172277142Y-111542438D01*
X172277142Y-111542438D02*
X172324761Y-111590057D01*
X172324761Y-111590057D02*
X172372380Y-111685295D01*
X172372380Y-111685295D02*
X172372380Y-111780533D01*
X172372380Y-111780533D02*
X172324761Y-111923390D01*
X172324761Y-111923390D02*
X171753333Y-112494819D01*
X171753333Y-112494819D02*
X172372380Y-112494819D01*
X173277142Y-112494819D02*
X172800952Y-112494819D01*
X172800952Y-112494819D02*
X172800952Y-111494819D01*
X173610476Y-111971009D02*
X173943809Y-111971009D01*
X174086666Y-112494819D02*
X173610476Y-112494819D01*
X173610476Y-112494819D02*
X173610476Y-111494819D01*
X173610476Y-111494819D02*
X174086666Y-111494819D01*
X174515238Y-112494819D02*
X174515238Y-111494819D01*
X174515238Y-111494819D02*
X174753333Y-111494819D01*
X174753333Y-111494819D02*
X174896190Y-111542438D01*
X174896190Y-111542438D02*
X174991428Y-111637676D01*
X174991428Y-111637676D02*
X175039047Y-111732914D01*
X175039047Y-111732914D02*
X175086666Y-111923390D01*
X175086666Y-111923390D02*
X175086666Y-112066247D01*
X175086666Y-112066247D02*
X175039047Y-112256723D01*
X175039047Y-112256723D02*
X174991428Y-112351961D01*
X174991428Y-112351961D02*
X174896190Y-112447200D01*
X174896190Y-112447200D02*
X174753333Y-112494819D01*
X174753333Y-112494819D02*
X174515238Y-112494819D01*
X175991428Y-111494819D02*
X175515238Y-111494819D01*
X175515238Y-111494819D02*
X175467619Y-111971009D01*
X175467619Y-111971009D02*
X175515238Y-111923390D01*
X175515238Y-111923390D02*
X175610476Y-111875771D01*
X175610476Y-111875771D02*
X175848571Y-111875771D01*
X175848571Y-111875771D02*
X175943809Y-111923390D01*
X175943809Y-111923390D02*
X175991428Y-111971009D01*
X175991428Y-111971009D02*
X176039047Y-112066247D01*
X176039047Y-112066247D02*
X176039047Y-112304342D01*
X176039047Y-112304342D02*
X175991428Y-112399580D01*
X175991428Y-112399580D02*
X175943809Y-112447200D01*
X175943809Y-112447200D02*
X175848571Y-112494819D01*
X175848571Y-112494819D02*
X175610476Y-112494819D01*
X175610476Y-112494819D02*
X175515238Y-112447200D01*
X175515238Y-112447200D02*
X175467619Y-112399580D01*
X160998571Y-122314819D02*
X160998571Y-121314819D01*
X160998571Y-121314819D02*
X161236666Y-121314819D01*
X161236666Y-121314819D02*
X161379523Y-121362438D01*
X161379523Y-121362438D02*
X161474761Y-121457676D01*
X161474761Y-121457676D02*
X161522380Y-121552914D01*
X161522380Y-121552914D02*
X161569999Y-121743390D01*
X161569999Y-121743390D02*
X161569999Y-121886247D01*
X161569999Y-121886247D02*
X161522380Y-122076723D01*
X161522380Y-122076723D02*
X161474761Y-122171961D01*
X161474761Y-122171961D02*
X161379523Y-122267200D01*
X161379523Y-122267200D02*
X161236666Y-122314819D01*
X161236666Y-122314819D02*
X160998571Y-122314819D01*
X161950952Y-121410057D02*
X161998571Y-121362438D01*
X161998571Y-121362438D02*
X162093809Y-121314819D01*
X162093809Y-121314819D02*
X162331904Y-121314819D01*
X162331904Y-121314819D02*
X162427142Y-121362438D01*
X162427142Y-121362438D02*
X162474761Y-121410057D01*
X162474761Y-121410057D02*
X162522380Y-121505295D01*
X162522380Y-121505295D02*
X162522380Y-121600533D01*
X162522380Y-121600533D02*
X162474761Y-121743390D01*
X162474761Y-121743390D02*
X161903333Y-122314819D01*
X161903333Y-122314819D02*
X162522380Y-122314819D01*
X163427142Y-122314819D02*
X162950952Y-122314819D01*
X162950952Y-122314819D02*
X162950952Y-121314819D01*
X163760476Y-121791009D02*
X164093809Y-121791009D01*
X164236666Y-122314819D02*
X163760476Y-122314819D01*
X163760476Y-122314819D02*
X163760476Y-121314819D01*
X163760476Y-121314819D02*
X164236666Y-121314819D01*
X164665238Y-122314819D02*
X164665238Y-121314819D01*
X164665238Y-121314819D02*
X164903333Y-121314819D01*
X164903333Y-121314819D02*
X165046190Y-121362438D01*
X165046190Y-121362438D02*
X165141428Y-121457676D01*
X165141428Y-121457676D02*
X165189047Y-121552914D01*
X165189047Y-121552914D02*
X165236666Y-121743390D01*
X165236666Y-121743390D02*
X165236666Y-121886247D01*
X165236666Y-121886247D02*
X165189047Y-122076723D01*
X165189047Y-122076723D02*
X165141428Y-122171961D01*
X165141428Y-122171961D02*
X165046190Y-122267200D01*
X165046190Y-122267200D02*
X164903333Y-122314819D01*
X164903333Y-122314819D02*
X164665238Y-122314819D01*
X165570000Y-121314819D02*
X166236666Y-121314819D01*
X166236666Y-121314819D02*
X165808095Y-122314819D01*
X106146666Y-105954819D02*
X106146666Y-106669104D01*
X106146666Y-106669104D02*
X106099047Y-106811961D01*
X106099047Y-106811961D02*
X106003809Y-106907200D01*
X106003809Y-106907200D02*
X105860952Y-106954819D01*
X105860952Y-106954819D02*
X105765714Y-106954819D01*
X106575238Y-106050057D02*
X106622857Y-106002438D01*
X106622857Y-106002438D02*
X106718095Y-105954819D01*
X106718095Y-105954819D02*
X106956190Y-105954819D01*
X106956190Y-105954819D02*
X107051428Y-106002438D01*
X107051428Y-106002438D02*
X107099047Y-106050057D01*
X107099047Y-106050057D02*
X107146666Y-106145295D01*
X107146666Y-106145295D02*
X107146666Y-106240533D01*
X107146666Y-106240533D02*
X107099047Y-106383390D01*
X107099047Y-106383390D02*
X106527619Y-106954819D01*
X106527619Y-106954819D02*
X107146666Y-106954819D01*
D12*
%TO.C,D2LED3*%
X169540000Y-98390000D02*
X169540000Y-98234000D01*
X169540000Y-100706000D02*
X169540000Y-100550000D01*
X166308563Y-98390000D02*
G75*
G02*
X169540000Y-98234484I1671437J-1080000D01*
G01*
X166939039Y-98390000D02*
G75*
G02*
X169020961Y-98390000I1040961J-1080000D01*
G01*
X169020961Y-100550000D02*
G75*
G02*
X166939039Y-100550000I-1040961J1080000D01*
G01*
X169540000Y-100705516D02*
G75*
G02*
X166308563Y-100550000I-1560000J1235516D01*
G01*
%TO.C,RV1*%
X112750000Y-107270000D02*
X112750000Y-112490000D01*
X112750000Y-107270000D02*
X114870000Y-107270000D01*
X112750000Y-112490000D02*
X122670000Y-112490000D01*
X115570000Y-107270000D02*
X122670000Y-107270000D01*
X122670000Y-107270000D02*
X122670000Y-112490000D01*
X115170000Y-107270000D02*
X114930000Y-106940000D01*
X115410000Y-106940000D01*
X115170000Y-107270000D01*
G36*
X115170000Y-107270000D02*
G01*
X114930000Y-106940000D01*
X115410000Y-106940000D01*
X115170000Y-107270000D01*
G37*
%TO.C,D2LED1*%
X159080000Y-87840000D02*
X159080000Y-87684000D01*
X159080000Y-90156000D02*
X159080000Y-90000000D01*
X155848563Y-87840000D02*
G75*
G02*
X159080000Y-87684484I1671437J-1080000D01*
G01*
X156479039Y-87840000D02*
G75*
G02*
X158560961Y-87840000I1040961J-1080000D01*
G01*
X158560961Y-90000000D02*
G75*
G02*
X156479039Y-90000000I-1040961J1080000D01*
G01*
X159080000Y-90155516D02*
G75*
G02*
X155848563Y-90000000I-1560000J1235516D01*
G01*
%TO.C,D2LED9*%
X151120000Y-134444000D02*
X151120000Y-134600000D01*
X151120000Y-136760000D02*
X151120000Y-136916000D01*
X151120000Y-134444484D02*
G75*
G02*
X154351437Y-134600000I1560000J-1235516D01*
G01*
X151639039Y-134600000D02*
G75*
G02*
X153720961Y-134600000I1040961J-1080000D01*
G01*
X153720961Y-136760000D02*
G75*
G02*
X151639039Y-136760000I-1040961J1080000D01*
G01*
X154351437Y-136760000D02*
G75*
G02*
X151120000Y-136915516I-1671437J1080000D01*
G01*
%TO.C,D1LED1*%
X154280000Y-82150000D02*
X154280000Y-81994000D01*
X154280000Y-84466000D02*
X154280000Y-84310000D01*
X151048563Y-82150000D02*
G75*
G02*
X154280000Y-81994484I1671437J-1080000D01*
G01*
X151679039Y-82150000D02*
G75*
G02*
X153760961Y-82150000I1040961J-1080000D01*
G01*
X153760961Y-84310000D02*
G75*
G02*
X151679039Y-84310000I-1040961J1080000D01*
G01*
X154280000Y-84465516D02*
G75*
G02*
X151048563Y-84310000I-1560000J1235516D01*
G01*
%TO.C,D2LED2*%
X164330000Y-92990000D02*
X164330000Y-92834000D01*
X164330000Y-95306000D02*
X164330000Y-95150000D01*
X161098563Y-92990000D02*
G75*
G02*
X164330000Y-92834484I1671437J-1080000D01*
G01*
X161729039Y-92990000D02*
G75*
G02*
X163810961Y-92990000I1040961J-1080000D01*
G01*
X163810961Y-95150000D02*
G75*
G02*
X161729039Y-95150000I-1040961J1080000D01*
G01*
X164330000Y-95305516D02*
G75*
G02*
X161098563Y-95150000I-1560000J1235516D01*
G01*
%TO.C,D2LED8*%
X159710000Y-129040000D02*
X159710000Y-128884000D01*
X159710000Y-131356000D02*
X159710000Y-131200000D01*
X156478563Y-129040000D02*
G75*
G02*
X159710000Y-128884484I1671437J-1080000D01*
G01*
X157109039Y-129040000D02*
G75*
G02*
X159190961Y-129040000I1040961J-1080000D01*
G01*
X159190961Y-131200000D02*
G75*
G02*
X157109039Y-131200000I-1040961J1080000D01*
G01*
X159710000Y-131355516D02*
G75*
G02*
X156478563Y-131200000I-1560000J1235516D01*
G01*
%TO.C,R1*%
X107690000Y-101680000D02*
X114230000Y-101680000D01*
X107690000Y-102010000D02*
X107690000Y-101680000D01*
X107690000Y-104090000D02*
X107690000Y-104420000D01*
X107690000Y-104420000D02*
X114230000Y-104420000D01*
X114230000Y-101680000D02*
X114230000Y-102010000D01*
X114230000Y-104420000D02*
X114230000Y-104090000D01*
%TO.C,R2*%
X139550000Y-119150000D02*
X139550000Y-119480000D01*
X139550000Y-121890000D02*
X139550000Y-121560000D01*
X146090000Y-119150000D02*
X139550000Y-119150000D01*
X146090000Y-119480000D02*
X146090000Y-119150000D01*
X146090000Y-121560000D02*
X146090000Y-121890000D01*
X146090000Y-121890000D02*
X139550000Y-121890000D01*
%TO.C,D2LED6*%
X170220000Y-118570000D02*
X170220000Y-118414000D01*
X170220000Y-120886000D02*
X170220000Y-120730000D01*
X166988563Y-118570000D02*
G75*
G02*
X170220000Y-118414484I1671437J-1080000D01*
G01*
X167619039Y-118570000D02*
G75*
G02*
X169700961Y-118570000I1040961J-1080000D01*
G01*
X169700961Y-120730000D02*
G75*
G02*
X167619039Y-120730000I-1040961J1080000D01*
G01*
X170220000Y-120885516D02*
G75*
G02*
X166988563Y-120730000I-1560000J1235516D01*
G01*
D13*
%TO.C,U2*%
X139698000Y-98838569D02*
X139698000Y-99701431D01*
X139698000Y-101378569D02*
X139698000Y-102241431D01*
X139698000Y-103918569D02*
X139698000Y-104781431D01*
X139698000Y-106458569D02*
X139698000Y-107321431D01*
X139698000Y-108998569D02*
X139698000Y-109861431D01*
X139698000Y-111538569D02*
X139698000Y-112401431D01*
X139698000Y-114078569D02*
X139698000Y-114941431D01*
X139698000Y-116732500D02*
X146028835Y-116732500D01*
X146302000Y-97047500D02*
X139698000Y-97047500D01*
X146302000Y-99701431D02*
X146302000Y-98838569D01*
X146302000Y-102241431D02*
X146302000Y-101378569D01*
X146302000Y-104781431D02*
X146302000Y-103918569D01*
X146302000Y-107321431D02*
X146302000Y-106458569D01*
X146302000Y-109861431D02*
X146302000Y-108998569D01*
X146302000Y-112401431D02*
X146302000Y-111538569D01*
X146302000Y-114799560D02*
X146302000Y-114078569D01*
X142695200Y-116732500D02*
G75*
G02*
X143304800Y-116732500I304800J0D01*
G01*
D12*
%TO.C,C1*%
X120200113Y-99885000D02*
X120700113Y-99885000D01*
X120450113Y-99635000D02*
X120450113Y-100135000D01*
X123004888Y-98780000D02*
X123004888Y-100320000D01*
X123004888Y-102400000D02*
X123004888Y-103940000D01*
X123044888Y-98780000D02*
X123044888Y-100320000D01*
X123044888Y-102400000D02*
X123044888Y-103940000D01*
X123084888Y-98781000D02*
X123084888Y-100320000D01*
X123084888Y-102400000D02*
X123084888Y-103939000D01*
X123124888Y-98783000D02*
X123124888Y-100320000D01*
X123124888Y-102400000D02*
X123124888Y-103937000D01*
X123164888Y-98785000D02*
X123164888Y-100320000D01*
X123164888Y-102400000D02*
X123164888Y-103935000D01*
X123204888Y-98788000D02*
X123204888Y-100320000D01*
X123204888Y-102400000D02*
X123204888Y-103932000D01*
X123244888Y-98791000D02*
X123244888Y-100320000D01*
X123244888Y-102400000D02*
X123244888Y-103929000D01*
X123284888Y-98795000D02*
X123284888Y-100320000D01*
X123284888Y-102400000D02*
X123284888Y-103925000D01*
X123324888Y-98800000D02*
X123324888Y-100320000D01*
X123324888Y-102400000D02*
X123324888Y-103920000D01*
X123364888Y-98805000D02*
X123364888Y-100320000D01*
X123364888Y-102400000D02*
X123364888Y-103915000D01*
X123404888Y-98811000D02*
X123404888Y-100320000D01*
X123404888Y-102400000D02*
X123404888Y-103909000D01*
X123444888Y-98817000D02*
X123444888Y-100320000D01*
X123444888Y-102400000D02*
X123444888Y-103903000D01*
X123484888Y-98824000D02*
X123484888Y-100320000D01*
X123484888Y-102400000D02*
X123484888Y-103896000D01*
X123524888Y-98832000D02*
X123524888Y-100320000D01*
X123524888Y-102400000D02*
X123524888Y-103888000D01*
X123564888Y-98841000D02*
X123564888Y-100320000D01*
X123564888Y-102400000D02*
X123564888Y-103879000D01*
X123604888Y-98850000D02*
X123604888Y-100320000D01*
X123604888Y-102400000D02*
X123604888Y-103870000D01*
X123644888Y-98859000D02*
X123644888Y-100320000D01*
X123644888Y-102400000D02*
X123644888Y-103861000D01*
X123684888Y-98870000D02*
X123684888Y-100320000D01*
X123684888Y-102400000D02*
X123684888Y-103850000D01*
X123724888Y-98881000D02*
X123724888Y-100320000D01*
X123724888Y-102400000D02*
X123724888Y-103839000D01*
X123764888Y-98893000D02*
X123764888Y-100320000D01*
X123764888Y-102400000D02*
X123764888Y-103827000D01*
X123804888Y-98905000D02*
X123804888Y-100320000D01*
X123804888Y-102400000D02*
X123804888Y-103815000D01*
X123844888Y-98918000D02*
X123844888Y-100320000D01*
X123844888Y-102400000D02*
X123844888Y-103802000D01*
X123884888Y-98932000D02*
X123884888Y-100320000D01*
X123884888Y-102400000D02*
X123884888Y-103788000D01*
X123924888Y-98947000D02*
X123924888Y-100320000D01*
X123924888Y-102400000D02*
X123924888Y-103773000D01*
X123964888Y-98962000D02*
X123964888Y-100320000D01*
X123964888Y-102400000D02*
X123964888Y-103758000D01*
X124004888Y-98978000D02*
X124004888Y-100320000D01*
X124004888Y-102400000D02*
X124004888Y-103742000D01*
X124044888Y-98995000D02*
X124044888Y-100320000D01*
X124044888Y-102400000D02*
X124044888Y-103725000D01*
X124084888Y-99013000D02*
X124084888Y-100320000D01*
X124084888Y-102400000D02*
X124084888Y-103707000D01*
X124124888Y-99031000D02*
X124124888Y-100320000D01*
X124124888Y-102400000D02*
X124124888Y-103689000D01*
X124164888Y-99051000D02*
X124164888Y-100320000D01*
X124164888Y-102400000D02*
X124164888Y-103669000D01*
X124204888Y-99071000D02*
X124204888Y-100320000D01*
X124204888Y-102400000D02*
X124204888Y-103649000D01*
X124244888Y-99092000D02*
X124244888Y-100320000D01*
X124244888Y-102400000D02*
X124244888Y-103628000D01*
X124284888Y-99114000D02*
X124284888Y-100320000D01*
X124284888Y-102400000D02*
X124284888Y-103606000D01*
X124324888Y-99137000D02*
X124324888Y-100320000D01*
X124324888Y-102400000D02*
X124324888Y-103583000D01*
X124364888Y-99161000D02*
X124364888Y-100320000D01*
X124364888Y-102400000D02*
X124364888Y-103559000D01*
X124404888Y-99185000D02*
X124404888Y-100320000D01*
X124404888Y-102400000D02*
X124404888Y-103535000D01*
X124444888Y-99211000D02*
X124444888Y-100320000D01*
X124444888Y-102400000D02*
X124444888Y-103509000D01*
X124484888Y-99238000D02*
X124484888Y-100320000D01*
X124484888Y-102400000D02*
X124484888Y-103482000D01*
X124524888Y-99266000D02*
X124524888Y-100320000D01*
X124524888Y-102400000D02*
X124524888Y-103454000D01*
X124564888Y-99295000D02*
X124564888Y-100320000D01*
X124564888Y-102400000D02*
X124564888Y-103425000D01*
X124604888Y-99325000D02*
X124604888Y-100320000D01*
X124604888Y-102400000D02*
X124604888Y-103395000D01*
X124644888Y-99357000D02*
X124644888Y-100320000D01*
X124644888Y-102400000D02*
X124644888Y-103363000D01*
X124684888Y-99390000D02*
X124684888Y-100320000D01*
X124684888Y-102400000D02*
X124684888Y-103330000D01*
X124724888Y-99424000D02*
X124724888Y-100320000D01*
X124724888Y-102400000D02*
X124724888Y-103296000D01*
X124764888Y-99459000D02*
X124764888Y-100320000D01*
X124764888Y-102400000D02*
X124764888Y-103261000D01*
X124804888Y-99496000D02*
X124804888Y-100320000D01*
X124804888Y-102400000D02*
X124804888Y-103224000D01*
X124844888Y-99535000D02*
X124844888Y-100320000D01*
X124844888Y-102400000D02*
X124844888Y-103185000D01*
X124884888Y-99575000D02*
X124884888Y-100320000D01*
X124884888Y-102400000D02*
X124884888Y-103145000D01*
X124924888Y-99617000D02*
X124924888Y-100320000D01*
X124924888Y-102400000D02*
X124924888Y-103103000D01*
X124964888Y-99661000D02*
X124964888Y-100320000D01*
X124964888Y-102400000D02*
X124964888Y-103059000D01*
X125004888Y-99708000D02*
X125004888Y-100320000D01*
X125004888Y-102400000D02*
X125004888Y-103012000D01*
X125044888Y-99756000D02*
X125044888Y-102964000D01*
X125084888Y-99807000D02*
X125084888Y-102913000D01*
X125124888Y-99861000D02*
X125124888Y-102859000D01*
X125164888Y-99917000D02*
X125164888Y-102803000D01*
X125204888Y-99977000D02*
X125204888Y-102743000D01*
X125244888Y-100041000D02*
X125244888Y-102679000D01*
X125284888Y-100109000D02*
X125284888Y-102611000D01*
X125324888Y-100183000D02*
X125324888Y-102537000D01*
X125364888Y-100262000D02*
X125364888Y-102458000D01*
X125404888Y-100349000D02*
X125404888Y-102371000D01*
X125444888Y-100446000D02*
X125444888Y-102274000D01*
X125484888Y-100555000D02*
X125484888Y-102165000D01*
X125524888Y-100683000D02*
X125524888Y-102037000D01*
X125564888Y-100843000D02*
X125564888Y-101877000D01*
X125604888Y-101077000D02*
X125604888Y-101643000D01*
X125624888Y-101360000D02*
G75*
G02*
X120384888Y-101360000I-2620000J0D01*
G01*
X120384888Y-101360000D02*
G75*
G02*
X125624888Y-101360000I2620000J0D01*
G01*
%TO.C,U1*%
X128300000Y-105300000D02*
X128300000Y-115580000D01*
X128300000Y-115580000D02*
X129950000Y-115580000D01*
X131950000Y-115580000D02*
X133600000Y-115580000D01*
X133600000Y-105300000D02*
X128300000Y-105300000D01*
X133600000Y-115580000D02*
X133600000Y-105300000D01*
X129950000Y-115580000D02*
G75*
G02*
X131950000Y-115580000I1000000J0D01*
G01*
%TO.C,D2LED4*%
X174900000Y-103560000D02*
X174900000Y-103404000D01*
X174900000Y-105876000D02*
X174900000Y-105720000D01*
X171668563Y-103560000D02*
G75*
G02*
X174900000Y-103404484I1671437J-1080000D01*
G01*
X172299039Y-103560000D02*
G75*
G02*
X174380961Y-103560000I1040961J-1080000D01*
G01*
X174380961Y-105720000D02*
G75*
G02*
X172299039Y-105720000I-1040961J1080000D01*
G01*
X174900000Y-105875516D02*
G75*
G02*
X171668563Y-105720000I-1560000J1235516D01*
G01*
%TO.C,C2*%
X127620000Y-98700000D02*
X135360000Y-98700000D01*
X127620000Y-101440000D02*
X127620000Y-98700000D01*
X135360000Y-98700000D02*
X135360000Y-101440000D01*
X135360000Y-101440000D02*
X127620000Y-101440000D01*
%TO.C,D2LED5*%
X175020000Y-113940000D02*
X175020000Y-113784000D01*
X175020000Y-116256000D02*
X175020000Y-116100000D01*
X171788563Y-113940000D02*
G75*
G02*
X175020000Y-113784484I1671437J-1080000D01*
G01*
X172419039Y-113940000D02*
G75*
G02*
X174500961Y-113940000I1040961J-1080000D01*
G01*
X174500961Y-116100000D02*
G75*
G02*
X172419039Y-116100000I-1040961J1080000D01*
G01*
X175020000Y-116255516D02*
G75*
G02*
X171788563Y-116100000I-1560000J1235516D01*
G01*
%TO.C,D2LED7*%
X164920000Y-123790000D02*
X164920000Y-123634000D01*
X164920000Y-126106000D02*
X164920000Y-125950000D01*
X161688563Y-123790000D02*
G75*
G02*
X164920000Y-123634484I1671437J-1080000D01*
G01*
X162319039Y-123790000D02*
G75*
G02*
X164400961Y-123790000I1040961J-1080000D01*
G01*
X164400961Y-125950000D02*
G75*
G02*
X162319039Y-125950000I-1040961J1080000D01*
G01*
X164920000Y-126105516D02*
G75*
G02*
X161688563Y-125950000I-1560000J1235516D01*
G01*
%TO.C,J2*%
X105100000Y-107500000D02*
X106480000Y-107500000D01*
X105100000Y-108880000D02*
X105100000Y-107500000D01*
X105100000Y-110150000D02*
X105100000Y-112800000D01*
X105100000Y-110150000D02*
X107860000Y-110150000D01*
X105100000Y-112800000D02*
X107860000Y-112800000D01*
X107860000Y-110150000D02*
X107860000Y-112800000D01*
%TD*%
M02*
